<svg width="40" height="43" viewBox="0 0 40 43" fill="none" xmlns="http://www.w3.org/2000/svg">
<g filter="url(#filter0_d_17_1951)">
<circle cx="19.989" cy="19.989" r="19.989" fill="#FF4672"/>
<circle cx="19.989" cy="19.989" r="18.489" stroke="white" stroke-width="3"/>
</g>
<mask id="path-3-inside-1_17_1951" fill="white">
<path d="M11.1141 11.9204C12.3788 10.6025 14.4727 10.5595 15.7908 11.824L20.012 15.8741L24.2333 11.824C25.5513 10.5593 27.6451 10.6026 28.91 11.9204C30.1748 13.2385 30.1317 15.3333 28.8136 16.5981L24.7891 20.4583L29.0123 24.5103C30.3304 25.7751 30.3735 27.8689 29.1087 29.187C27.8439 30.5051 25.7501 30.5491 24.432 29.2844L20.012 25.0425L15.5921 29.2844C14.2739 30.5488 12.1801 30.505 10.9154 29.187C9.65092 27.8689 9.69386 25.775 11.0118 24.5103L15.234 20.4583L11.2105 16.5981C9.89237 15.3333 9.84931 13.2385 11.1141 11.9204Z"/>
</mask>
<path d="M11.1141 11.9204C12.3788 10.6025 14.4727 10.5595 15.7908 11.824L20.012 15.8741L24.2333 11.824C25.5513 10.5593 27.6451 10.6026 28.91 11.9204C30.1748 13.2385 30.1317 15.3333 28.8136 16.5981L24.7891 20.4583L29.0123 24.5103C30.3304 25.7751 30.3735 27.8689 29.1087 29.187C27.8439 30.5051 25.7501 30.5491 24.432 29.2844L20.012 25.0425L15.5921 29.2844C14.2739 30.5488 12.1801 30.505 10.9154 29.187C9.65092 27.8689 9.69386 25.775 11.0118 24.5103L15.234 20.4583L11.2105 16.5981C9.89237 15.3333 9.84931 13.2385 11.1141 11.9204Z" fill="white"/>
<path d="M11.1141 11.9204L10.3873 11.2229L10.3873 11.223L11.1141 11.9204ZM15.7908 11.824L16.4882 11.0971L16.4882 11.0971L15.7908 11.824ZM20.012 15.8741L19.3146 16.6009L20.012 17.2701L20.7094 16.6009L20.012 15.8741ZM24.2333 11.824L24.9307 12.5509L24.9307 12.5509L24.2333 11.824ZM28.91 11.9204L29.6368 11.223L29.6367 11.2228L28.91 11.9204ZM28.8136 16.5981L29.5109 17.3251L29.511 17.3249L28.8136 16.5981ZM24.7891 20.4583L24.0918 19.7313L23.334 20.4582L24.0917 21.1852L24.7891 20.4583ZM29.0123 24.5103L29.7097 23.7834L29.7097 23.7834L29.0123 24.5103ZM29.1087 29.187L29.8355 29.8844H29.8355L29.1087 29.187ZM24.432 29.2844L23.7345 30.0112L23.7346 30.0113L24.432 29.2844ZM20.012 25.0425L20.7095 24.3157L20.012 23.6463L19.3145 24.3157L20.012 25.0425ZM15.5921 29.2844L16.2894 30.0114L16.2896 30.0112L15.5921 29.2844ZM10.9154 29.187L10.1885 29.8844L10.1885 29.8844L10.9154 29.187ZM11.0118 24.5103L11.7093 25.2371L11.7093 25.2371L11.0118 24.5103ZM15.234 20.4583L15.9315 21.1851L16.689 20.4582L15.9314 19.7314L15.234 20.4583ZM11.2105 16.5981L10.5131 17.3249L10.5131 17.325L11.2105 16.5981ZM11.1141 11.9204L11.8409 12.6179C12.7204 11.7014 14.1766 11.6714 15.0934 12.5509L15.7908 11.824L16.4882 11.0971C14.7688 9.44759 12.0373 9.50347 10.3873 11.2229L11.1141 11.9204ZM15.7908 11.824L15.0934 12.5509L19.3146 16.6009L20.012 15.8741L20.7094 15.1472L16.4882 11.0971L15.7908 11.824ZM20.012 15.8741L20.7094 16.6009L24.9307 12.5509L24.2333 11.824L23.5358 11.0971L19.3146 15.1472L20.012 15.8741ZM24.2333 11.824L24.9307 12.5509C25.8472 11.6714 27.3035 11.7014 28.1832 12.618L28.91 11.9204L29.6367 11.2228C27.9867 9.50386 25.2553 9.44723 23.5358 11.0971L24.2333 11.824ZM28.91 11.9204L28.1831 12.6178C29.0628 13.5346 29.0327 14.9917 28.1161 15.8712L28.8136 16.5981L29.511 17.3249C31.2306 15.6749 31.2867 12.9425 29.6368 11.223L28.91 11.9204ZM28.8136 16.5981L28.1162 15.8711L24.0918 19.7313L24.7891 20.4583L25.4864 21.1853L29.5109 17.3251L28.8136 16.5981ZM24.7891 20.4583L24.0917 21.1852L28.3148 25.2372L29.0123 24.5103L29.7097 23.7834L25.4865 19.7314L24.7891 20.4583ZM29.0123 24.5103L28.3148 25.2372C29.2315 26.1167 29.2615 27.5728 28.3818 28.4896L29.1087 29.187L29.8355 29.8844C31.4855 28.1649 31.4294 25.4335 29.7097 23.7834L29.0123 24.5103ZM29.1087 29.187L28.3818 28.4896C27.502 29.4065 26.0458 29.4368 25.1294 28.5575L24.432 29.2844L23.7346 30.0113C25.4544 31.6614 28.1859 31.6037 29.8355 29.8844L29.1087 29.187ZM24.432 29.2844L25.1295 28.5576L20.7095 24.3157L20.012 25.0425L19.3145 25.7693L23.7345 30.0112L24.432 29.2844ZM20.012 25.0425L19.3145 24.3157L14.8946 28.5576L15.5921 29.2844L16.2896 30.0112L20.7095 25.7693L20.012 25.0425ZM15.5921 29.2844L14.8948 28.5574C13.9782 29.4366 12.5219 29.4063 11.6423 28.4896L10.9154 29.187L10.1885 29.8844C11.8382 31.6037 14.5696 31.661 16.2894 30.0114L15.5921 29.2844ZM10.9154 29.187L11.6423 28.4896C10.7628 27.5728 10.7929 26.1165 11.7093 25.2371L11.0118 24.5103L10.3143 23.7835C8.59487 25.4335 8.53902 28.1649 10.1885 29.8844L10.9154 29.187ZM11.0118 24.5103L11.7093 25.2371L15.9315 21.1851L15.234 20.4583L14.5365 19.7315L10.3143 23.7835L11.0118 24.5103ZM15.234 20.4583L15.9314 19.7314L11.9079 15.8712L11.2105 16.5981L10.5131 17.325L14.5366 21.1852L15.234 20.4583ZM11.2105 16.5981L11.908 15.8712C10.9913 14.9917 10.9613 13.5346 11.841 12.6178L11.1141 11.9204L10.3873 11.223C8.73733 12.9425 8.79342 15.6749 10.5131 17.3249L11.2105 16.5981Z" fill="#E90038" mask="url(#path-3-inside-1_17_1951)"/>
<defs>
<filter id="filter0_d_17_1951" x="0" y="0" width="39.978" height="43" filterUnits="userSpaceOnUse" color-interpolation-filters="sRGB">
<feFlood flood-opacity="0" result="BackgroundImageFix"/>
<feColorMatrix in="SourceAlpha" type="matrix" values="0 0 0 0 0 0 0 0 0 0 0 0 0 0 0 0 0 0 127 0" result="hardAlpha"/>
<feOffset dy="3"/>
<feComposite in2="hardAlpha" operator="out"/>
<feColorMatrix type="matrix" values="0 0 0 0 1 0 0 0 0 0.15 0 0 0 0 0.352162 0 0 0 1 0"/>
<feBlend mode="normal" in2="BackgroundImageFix" result="effect1_dropShadow_17_1951"/>
<feBlend mode="normal" in="SourceGraphic" in2="effect1_dropShadow_17_1951" result="shape"/>
</filter>
</defs>
</svg>
