<svg width="40" height="43" viewBox="0 0 40 43" fill="none" xmlns="http://www.w3.org/2000/svg">
<g filter="url(#filter0_d_17_1950)">
<circle cx="19.989" cy="19.989" r="19.989" fill="#92F200"/>
<circle cx="19.989" cy="19.989" r="18.489" stroke="white" stroke-width="3"/>
</g>
<path d="M30.4868 21.2174C30.4867 27.006 25.7783 31.7136 19.9893 31.7139C14.2004 31.7138 9.49081 27.0061 9.49081 21.2174C9.49084 15.4292 14.2004 10.721 19.9893 10.7209C20.0603 10.7209 20.1315 10.7224 20.2028 10.7238V10.2772L20.25 10.2408C20.4333 9.29931 21.2541 8.58237 22.2558 8.58222C22.6846 8.58222 23.0762 8.71678 23.3999 8.93735H23.4511L23.5986 9.08393L23.639 9.12426C23.6856 9.16645 23.7327 9.21303 23.7786 9.26592L26.358 11.8482C26.8561 12.2204 27.1843 12.813 27.1844 13.4881C27.1844 14.0889 26.9212 14.6193 26.5184 14.9913L26.5193 14.9923L23.8308 17.6877C23.458 18.1383 22.8968 18.4362 22.2568 18.4363C21.2923 18.4363 20.4848 17.7704 20.2647 16.8742H20.2037V15.9662C20.1326 15.9633 20.0614 15.9603 19.9903 15.9603C17.092 15.9603 14.7322 18.3205 14.7322 21.2174C14.7323 24.1158 17.092 26.4745 19.9903 26.4745C22.8885 26.4743 25.2473 24.1157 25.2474 21.2174V21.1406C25.2387 21.0574 25.2336 20.9708 25.2336 20.8839C25.2337 19.4344 26.4094 18.2612 27.8582 18.2612C29.1806 18.2615 30.2724 19.2419 30.4514 20.515L30.4868 20.5288V21.2174Z" fill="white" stroke="#39BD01"/>
<defs>
<filter id="filter0_d_17_1950" x="0" y="0" width="39.978" height="43" filterUnits="userSpaceOnUse" color-interpolation-filters="sRGB">
<feFlood flood-opacity="0" result="BackgroundImageFix"/>
<feColorMatrix in="SourceAlpha" type="matrix" values="0 0 0 0 0 0 0 0 0 0 0 0 0 0 0 0 0 0 127 0" result="hardAlpha"/>
<feOffset dy="3"/>
<feComposite in2="hardAlpha" operator="out"/>
<feColorMatrix type="matrix" values="0 0 0 0 0.225553 0 0 0 0 0.741667 0 0 0 0 0.00309026 0 0 0 1 0"/>
<feBlend mode="normal" in2="BackgroundImageFix" result="effect1_dropShadow_17_1950"/>
<feBlend mode="normal" in="SourceGraphic" in2="effect1_dropShadow_17_1950" result="shape"/>
</filter>
</defs>
</svg>
