<svg width="60" height="143" viewBox="0 0 60 143" fill="none" xmlns="http://www.w3.org/2000/svg">
<path d="M18.6694 35.7117C17.5094 35.3417 16.1294 34.5817 14.7894 34.7717C14.6651 34.9825 14.6224 35.2316 14.6694 35.4717C15.6994 35.6817 18.0294 37.3617 18.6694 35.7117Z" fill="#343434"/>
<path d="M14.7894 36.7716C14.7894 37.8416 16.7894 38.4516 18.0894 38.5316C18.7094 38.5316 19.7494 38.7116 19.7294 37.8216C18.2994 37.2616 16.3294 37.2316 15.1494 36.4116L14.7894 36.7716Z" fill="#343434"/>
<path d="M19.8494 44.1816C19.2394 43.2916 17.1094 43.3217 15.9694 43.3517C15.6694 43.3517 15.7394 43.7516 15.7294 44.0616C16.7994 44.3416 19.2294 45.2716 19.8494 44.1816Z" fill="#343434"/>
<path d="M16.2094 45.4717H15.8494C15.7394 45.4717 15.6194 45.5917 15.4994 45.7117C15.8394 47.2517 18.6694 48.1017 20.1994 47.2917C19.5494 45.9817 16.7994 46.4717 16.2094 45.4717Z" fill="#343434"/>
<path d="M20.0894 48.5317C18.4394 48.4117 17.3594 47.7217 15.9694 47.3517C15.8594 47.5617 15.6394 47.6517 15.7294 48.0617C16.1794 48.7517 17.1694 48.8917 17.9694 49.2417C17.5611 49.1642 17.1387 49.2465 16.7894 49.4717C16.6794 50.7117 17.9294 50.2617 18.7894 50.2917C19.0694 50.1817 18.9394 49.6517 19.1494 49.4717C19.4677 49.4986 19.7881 49.4577 20.0894 49.3517C20.0894 49.2617 20.0894 49.1217 20.1994 49.1217C20.2994 48.7817 20.0394 48.8117 20.0894 48.5317Z" fill="#343434"/>
<path d="M14.4394 63.7016C15.3294 63.8316 16.2494 64.4216 17.1494 64.1716C17.1494 63.9516 17.2794 63.9116 17.2594 63.7016C17.0694 62.9816 13.8294 62.0016 14.4394 63.7016Z" fill="#343434"/>
<path d="M19.8494 82.5216C19.9694 83.7216 21.8494 83.9316 23.5494 83.7116V80.5916C21.6794 80.4716 19.6994 81.0316 19.8494 82.5216Z" fill="#343434"/>
<path d="M19.9694 97.0217C20.6294 96.4117 19.7794 95.8717 19.4994 95.3317C19.1237 94.3123 18.6088 93.3499 17.9694 92.4717H17.7294C17.1594 93.4717 18.8894 97.0417 19.9694 97.0217Z" fill="#343434"/>
<path d="M16.4394 119.342C17.5194 119.112 17.0294 116.232 16.7894 115.452C15.4694 115.392 15.7494 118.902 16.4394 119.342Z" fill="#343434"/>
<path d="M22.6694 62.2917C22.9162 62.4931 23.2321 62.59 23.5494 62.5617V61.4717C23.2494 61.4717 22.8494 61.4717 22.6694 61.5817C22.6394 61.8617 22.4394 62.0717 22.6694 62.2917Z" fill="#343434"/>
<path d="M22.0894 63.9417C22.3394 64.3317 23.0094 64.2117 23.5494 64.3217V63.1917C22.8294 62.9517 22.0194 62.8517 22.0894 63.9417Z" fill="#343434"/>
<path d="M15.6194 1.36166C15.3894 8.77166 15.6994 16.6517 15.7294 24.1817C14.8494 24.5917 14.7294 25.7917 13.7294 26.0617C12.7294 27.3217 12.7294 28.2016 13.0194 30.3016C13.7594 36.4316 14.1094 43.9917 14.3094 50.1817C12.0394 50.4417 9.98941 49.8217 8.07941 50.1817C6.49941 50.4717 5.58941 51.9717 4.54941 52.6517C4.93941 54.5717 5.2194 56.6017 6.1994 57.9417C5.6694 58.2217 5.86941 59.0917 5.95941 59.7017C5.43941 60.5917 4.51941 61.5417 3.60941 62.7617C2.69941 63.9817 0.439404 65.8217 1.8394 67.2317C1.3994 67.9017 0.519405 68.4917 0.669405 69.3517C0.779405 69.9917 2.33942 70.9217 3.25942 70.7617C4.17942 70.6017 4.13942 69.6617 4.78942 69.2317C5.15942 69.3717 5.4094 69.7017 5.8394 69.4717C6.1994 68.2517 7.16941 67.6317 8.07941 66.6417C8.81941 65.8517 9.15941 64.2417 10.1894 63.9417C12.4994 63.2617 14.5394 66.0716 16.5394 66.0516V67.8217C18.5394 68.2217 18.4694 69.2217 19.4894 69.7017C19.3694 70.8817 19.3494 71.9817 19.3094 73.2317C16.2294 73.4117 15.1694 75.1717 13.3094 76.8817C9.5594 80.2617 5.30942 82.9516 2.17942 86.5216C2.13041 88.8168 2.37573 91.1088 2.90941 93.3417C5.2205 94.3394 7.63055 95.0903 10.0994 95.5816C12.5794 96.1416 14.9594 97.3017 17.3994 97.8117C19.5294 98.2617 21.6094 98.3417 23.5694 98.8917V97.8117C23.4738 97.7917 23.375 97.7917 23.2794 97.8117C23.1194 96.2317 23.0094 93.6317 21.6394 92.8717C20.6394 93.8717 22.3794 95.7716 22.2194 97.4616C21.9794 97.5117 21.9094 97.3817 21.7494 97.3417C21.2394 97.3417 21.8294 96.8216 21.6394 96.4016C21.2894 95.0617 20.8394 93.8216 20.5794 92.4016C21.5794 92.6016 22.5794 92.8517 23.5794 93.0917V92.0017C18.9294 90.9417 14.1194 90.0017 9.40941 89.3417C7.24169 89.1674 5.16475 88.3955 3.40941 87.1117C3.95941 85.5817 5.46941 84.6917 6.70941 83.7017C9.15941 81.7017 11.5794 79.9317 14.1194 77.7017C15.7594 76.2617 17.1194 74.1516 19.5294 74.5216C19.6994 75.3016 19.0794 74.6716 18.6994 74.9916C18.5394 75.3316 18.1394 75.4517 17.8794 75.7017C17.4494 77.1317 17.5394 78.4417 17.0594 79.4616C16.0594 81.5916 12.8194 82.8617 10.8194 84.1717C10.2394 84.5517 9.00942 84.9216 9.28942 85.9316C9.99942 86.5517 10.4594 85.5617 10.9394 85.2217C13.2694 83.6017 16.4994 82.5116 18.1194 80.0516C18.4794 78.7216 18.4594 77.0516 19.1794 76.0516C19.8494 76.1016 19.9694 76.8317 20.8194 77.1117C21.7158 77.3714 22.6591 77.426 23.5794 77.2716V76.2217C22.6003 76.3262 21.6105 76.1853 20.6994 75.8117C20.3294 73.7417 20.8194 71.5516 20.9394 69.5816C21.8436 69.6638 22.7535 69.5087 23.5794 69.1317V67.8517C23.3194 68.1417 22.8394 68.2217 22.4694 68.4117C21.9394 68.4117 22.8294 67.8716 22.3494 67.5816C22.0294 67.1216 20.2894 67.0116 19.9994 67.5816C19.8794 68.1416 20.2694 68.1717 20.4694 68.4117C20.7894 68.4117 21.8994 68.3016 21.6494 68.5216C20.0994 68.6616 19.0294 68.3217 18.9394 67.0017C20.5394 66.8017 22.6194 66.1517 23.5794 67.2217V64.5717C22.9594 64.4017 22.2794 64.2817 21.8794 64.7617C21.8794 65.0517 21.8794 65.3317 22.1194 65.3517C21.5574 65.6079 20.9403 65.7201 20.3241 65.6782C19.7078 65.6363 19.1116 65.4416 18.5894 65.1117C18.3694 61.6417 19.5894 59.5716 23.2894 60.0516C23.2308 60.1439 23.1917 60.2473 23.1746 60.3552C23.1575 60.4632 23.1627 60.5735 23.1898 60.6794C23.217 60.7853 23.2656 60.8845 23.3326 60.9709C23.3996 61.0573 23.4836 61.129 23.5794 61.1817V59.1217C22.8816 58.879 22.1297 58.8374 21.4094 59.0017C21.733 58.8094 22.0937 58.6877 22.4677 58.6446C22.8417 58.6015 23.2205 58.638 23.5794 58.7517V57.5417C21.3194 57.2617 18.0294 58.7917 17.4094 60.5417C16.8594 62.0917 17.9294 63.0617 17.5294 64.8917C15.9609 64.7279 14.462 64.1593 13.1794 63.2416C13.4194 62.6217 13.8494 62.1917 14.1194 61.5917C13.7394 60.4617 12.3494 59.9517 11.0594 58.8917C9.7694 57.8317 8.32941 55.5717 6.70941 56.8917C6.53941 55.6417 5.96941 54.8117 5.87941 53.4817C10.3294 52.5317 13.8794 53.4817 17.4094 54.6617C19.3194 55.3017 21.3394 55.6616 23.0594 56.3016L23.5794 56.5117V55.5117C21.8794 54.8717 19.9794 54.3717 17.9994 53.7117C15.3894 52.8417 13.4194 51.9617 10.1194 52.0717C10.1805 51.7778 10.2994 51.499 10.4694 51.2517C15.6694 51.1917 20.1094 51.8917 23.5794 53.5617V52.3717C21.0327 51.2502 18.307 50.5899 15.5294 50.4217C15.6094 47.4817 15.0994 45.1217 15.1794 42.1917C15.4594 41.8717 15.8394 42.6517 16.4694 42.8917C17.5394 43.3117 19.3394 43.3917 19.9994 42.6617C19.3094 41.5117 16.5194 42.4517 15.8794 41.2517C15.4394 41.2517 15.1894 41.3417 15.1794 41.7217C14.8394 41.4317 14.9594 40.6717 14.9394 40.0717C16.6994 39.8817 18.5094 41.2417 19.7594 40.4217C19.0194 39.2117 16.3694 38.8917 14.8194 39.2517C14.7294 37.0717 14.4394 35.0917 14.3494 32.9017C15.2594 33.6917 17.3494 35.0217 18.8194 34.0717C18.2194 32.7917 15.7194 33.4117 15.1794 32.0717C14.7294 31.9717 14.4294 32.2717 14.2394 32.0717C14.1594 31.6417 14.3894 30.9017 14.1194 30.6617C15.0394 31.0417 17.5894 32.5417 19.0594 31.6017C18.3694 30.2517 15.7294 30.8517 14.8194 29.7217C14.7108 29.6995 14.5982 29.7094 14.4951 29.7503C14.3921 29.7911 14.3033 29.8611 14.2394 29.9517C13.9794 29.7817 14.1394 29.1916 13.8794 29.0216C14.7694 28.8716 15.7194 29.5917 16.9394 29.7217C19.169 29.9243 21.4169 29.7314 23.5794 29.1517V28.0717C21.5401 28.6704 19.4045 28.8707 17.2894 28.6617C16.1294 28.5517 14.1794 28.2817 14.4694 27.0117C15.2294 26.9417 15.7794 27.8917 16.9394 28.0717C19.1609 28.2901 21.4031 28.1482 23.5794 27.6517V26.4717C21.1694 27.0417 16.5794 27.5817 15.6494 26.0717C15.7259 26.0206 15.7874 25.9502 15.8278 25.8677C15.8682 25.7851 15.886 25.6933 15.8794 25.6017C17.8794 26.9917 20.6894 26.3017 23.5794 26.2017V24.3316C22.0594 24.8616 20.4594 25.4917 18.5794 24.7817C18.8468 22.3428 18.6877 19.876 18.1094 17.4916C17.9194 16.9216 18.6494 17.1417 18.8094 16.6617C19.1494 15.6617 18.5394 13.4517 17.9894 13.1317C16.9894 13.3417 17.6494 14.4117 17.6394 15.2517C17.6394 15.7917 17.0694 15.7117 17.0494 16.1917C17.1494 18.4117 17.0494 20.8517 17.8694 22.3117C17.2094 22.5917 17.5394 23.8617 17.2794 24.5417C16.4494 24.3017 16.8094 22.7817 16.8094 21.8417C16.8094 15.3917 16.4894 8.37166 16.6994 1.84166C18.2294 0.841655 21.6394 0.941668 23.5694 1.54167V0.47166C21.0594 -0.34834 16.9394 -0.12834 15.6194 1.36166ZM16.2094 96.2817C16.3094 96.0717 16.4894 95.9417 16.5594 95.6917C16.4146 94.8568 16.2175 94.0319 15.9694 93.2217C16.5394 94.0617 16.5094 95.5117 17.0294 96.4016C16.8294 96.7416 16.5994 96.1317 16.2094 96.2817ZM19.3794 92.1717C19.7394 93.8517 20.2294 95.3916 20.6694 96.9916C19.7594 97.2716 18.7294 96.6617 17.6194 96.7517C18.2594 95.4517 17.2594 93.1416 16.5594 92.0516C16.1194 92.0016 15.8694 92.1416 15.8494 92.5216C15.5794 92.3216 15.7494 91.6816 15.4994 91.4616C16.8111 91.5835 18.1095 91.8211 19.3794 92.1717ZM14.4394 91.1117C14.6874 92.7505 15.0823 94.3636 15.6194 95.9316C15.2494 96.1716 14.6194 95.6917 14.0894 95.6917C14.0894 94.2417 13.7794 92.1917 12.3194 91.8117C12.0494 91.8117 12.1894 92.1517 11.9694 92.1717C12.4227 93.1641 12.8168 94.1825 13.1494 95.2217C12.3394 95.2217 12.3494 94.0517 12.0894 93.2217C11.8294 92.3917 11.8494 91.3016 11.1494 90.9916C9.74942 91.6716 11.4594 93.6217 11.4994 94.7617C11.1294 94.7617 11.0894 94.5417 10.6794 94.6417C10.9894 93.2317 10.1694 92.0216 10.2094 90.5216C11.7394 90.5916 12.8694 91.0717 14.4394 91.1117ZM9.25942 90.4016C9.00942 91.7216 9.60941 93.1816 9.84941 94.4016C9.48941 94.4916 9.50942 94.2017 9.14942 94.2817C9.33942 93.0417 8.75941 90.5017 7.37941 91.2217C7.37941 92.3517 8.15941 92.8017 8.20941 93.9316C7.75941 94.0216 7.63941 93.7917 7.26941 93.8117C7.26941 92.8117 6.91941 90.5117 5.84941 89.8117C5.61941 89.9317 5.34941 90.0217 5.26941 90.2817C5.71555 91.2473 5.99289 92.2823 6.0894 93.3417C5.66162 92.9115 5.33981 92.3877 5.14942 91.8117C4.98869 90.9952 4.87185 90.1706 4.79941 89.3417C6.29941 89.6816 7.68942 90.1416 9.25942 90.4016ZM4.0894 88.8717C3.3594 89.8717 4.08941 91.8717 4.43941 92.8717C3.21941 92.3916 3.57941 89.7617 3.37941 88.6417C3.72941 88.6117 3.7494 88.9016 4.0894 88.8717ZM2.79941 69.7017C2.52021 69.4503 2.19854 69.2505 1.84941 69.1117C1.99941 68.5517 2.44941 68.3017 2.67941 67.8217C3.16941 67.9517 3.43941 68.3116 3.84941 68.5216C3.54941 68.9816 3.38941 69.5417 2.79941 69.7017ZM7.73941 57.5917C9.50941 58.7917 10.9394 60.3417 12.7894 61.4717C12.7094 61.9717 12.3394 62.1917 12.2094 62.6417C10.5748 61.2299 8.84391 59.9334 7.02941 58.7617C7.15941 58.2717 7.54941 58.0717 7.73941 57.5917ZM6.90941 60.1717C8.2903 60.8386 9.56155 61.7119 10.6794 62.7617C8.17941 63.8817 7.06941 66.3717 5.26941 68.1717C4.31941 67.4717 3.14941 66.9917 2.5594 65.9417C4.0494 64.0617 5.54941 62.2017 6.90941 60.1717ZM8.90941 51.9717H7.96941C7.96941 51.9717 8.25941 51.5617 7.96941 51.5417C8.09941 51.1617 8.61942 51.1517 9.14942 51.1717C9.16942 51.5417 8.83941 51.4717 8.90941 51.9717Z" fill="#343434"/>
<path d="M18.3194 107.812C18.2017 108.447 18.0448 109.075 17.8494 109.692C17.4794 110.432 16.2094 111.182 15.3794 111.932C14.5096 112.665 13.6848 113.449 12.9094 114.282C8.77941 119.112 4.36941 124.062 0.209409 128.392C-0.158954 131.371 -0.0407558 134.39 0.559399 137.332C2.1894 138.332 4.7094 138.512 7.0294 138.862C8.0294 138.442 8.0794 137.472 8.5594 136.632C9.3094 135.312 10.7094 134.502 11.6194 133.332C12.0594 132.762 12.3194 132.012 12.7894 131.452C13.6894 130.402 14.8694 129.622 15.8494 128.632C17.2894 127.192 18.6094 125.512 19.9694 124.042C21.1594 122.752 22.3594 121.572 23.5494 120.432V118.362C23.2094 118.272 22.8794 118.162 22.5494 118.042C22.1994 117.452 21.5494 117.212 21.2494 116.512C21.9904 116.782 22.758 116.973 23.5394 117.082V116.022C22.3493 115.826 21.2103 115.394 20.1894 114.752C20.5494 114.292 20.3594 113.752 20.3094 113.102C20.9694 113.102 20.6594 114.012 20.8994 114.402C21.3594 114.792 22.5094 115.402 22.8994 114.512C23.0357 114.813 23.2585 115.067 23.5394 115.242V108.592C23.2194 109.072 22.7994 109.502 22.5394 109.932C22.5317 109.487 22.6166 109.046 22.7888 108.636C22.9609 108.227 23.2166 107.857 23.5394 107.552V105.782C23.3594 105.782 23.1794 105.782 23.0194 105.782C21.9164 107.374 21.0444 109.115 20.4294 110.952C19.8594 108.652 21.9294 106.952 22.8994 105.432C23.0994 105.192 23.3194 104.962 23.5394 104.732V103.322C23.0394 103.762 22.5394 104.222 22.0794 104.722C20.8789 105.868 19.9894 107.301 19.4944 108.886C18.9993 110.471 18.9151 112.155 19.2494 113.782C18.7694 113.562 18.7394 112.882 18.4294 112.482C18.9694 109.072 19.8194 105.902 21.6094 103.662C22.1713 102.954 22.8197 102.319 23.5394 101.772V100.582C21.0483 102.349 19.2127 104.891 18.3194 107.812ZM1.37941 134.742C1.19941 134.202 2.04941 133.682 2.20941 133.102C2.27941 133.532 1.54941 134.182 1.37941 134.742ZM7.14941 136.162C6.94867 136.133 6.74401 136.148 6.54962 136.206C6.35523 136.263 6.17574 136.363 6.02357 136.497C5.8714 136.631 5.75019 136.797 5.66832 136.982C5.58644 137.168 5.54587 137.369 5.54941 137.572C5.4594 137.572 5.42941 137.452 5.31941 137.452C5.18941 136.922 6.5994 135.922 7.0794 135.212C7.2994 135.302 7.07941 135.882 7.14941 136.162ZM3.54941 137.212C4.73067 135.608 5.79348 133.92 6.7294 132.162C6.70265 132.047 6.64448 131.943 6.56143 131.86C6.47838 131.777 6.37378 131.718 6.25941 131.692C5.62941 131.692 5.4494 132.212 5.1994 132.632C4.9294 132.542 4.9394 132.182 4.6094 132.162C5.0694 131.162 5.93941 130.592 6.36941 129.572C6.42941 129.172 6.01941 129.212 5.89941 128.982C4.66941 129.832 3.4094 131.892 2.7294 132.512C3.2694 131.132 4.2394 130.182 4.7294 128.752C4.7294 128.512 4.48941 128.432 4.37941 128.272C3.37941 128.532 3.2294 129.562 2.7294 130.272C2.4394 130.272 2.3694 130.082 2.1394 130.032C1.6494 130.172 1.4894 130.632 1.1994 130.972C0.719399 128.972 3.1994 127.922 4.6094 128.032C7.0294 128.232 7.39941 131.552 7.42941 134.262C5.40941 134.112 5.08941 136.602 3.54941 137.212ZM19.5494 116.282C19.5927 116.274 19.6372 116.275 19.6798 116.286C19.7224 116.298 19.762 116.318 19.7958 116.346C19.8297 116.374 19.8569 116.409 19.8756 116.449C19.8943 116.489 19.9039 116.533 19.9039 116.577C19.9039 116.621 19.8943 116.664 19.8756 116.704C19.8569 116.744 19.8297 116.779 19.7958 116.807C19.762 116.835 19.7224 116.856 19.6798 116.867C19.6372 116.878 19.5927 116.88 19.5494 116.872V116.282ZM20.4394 117.572C21.4394 117.972 21.6194 119.132 22.9094 119.222C20.5694 122.332 17.4994 124.712 15.1494 127.812C12.3594 129.682 10.7894 132.812 8.4394 135.102C8.57443 133.314 8.37434 131.516 7.84941 129.802C9.06941 128.362 10.8494 127.512 12.3194 126.162C13.7894 124.812 14.8894 123.342 16.2094 122.042C17.5294 120.742 19.4394 119.472 20.4394 117.572ZM14.3194 121.692C14.6094 121.642 14.5794 121.902 14.9094 121.812C14.8777 121.986 14.7937 122.146 14.6687 122.271C14.5436 122.396 14.3834 122.48 14.2094 122.512C14.2094 122.202 14.1594 121.842 14.3194 121.692ZM18.6694 118.162C18.3794 118.002 18.5994 117.392 19.0294 117.572C19.0794 117.942 18.7094 117.882 18.6694 118.162ZM19.0294 115.812C18.4794 116.142 18.6394 115.322 17.9694 115.452C17.5794 116.172 16.9694 118.592 17.9694 118.862C17.242 119.859 16.3202 120.7 15.2594 121.332C15.0994 120.252 15.6394 118.452 14.9094 117.932C14.1794 117.932 14.1794 118.612 14.2094 119.342C13.9594 119.262 13.6794 119.032 13.4994 119.222C12.9394 119.742 12.8094 123.092 13.8494 122.752C13.8494 123.282 12.6894 124.252 12.3194 124.392C12.1194 123.312 12.8394 121.292 11.7394 121.102C10.5194 121.752 11.8894 125.102 11.0294 125.802C10.4794 124.652 11.5194 122.512 10.6794 121.802C9.34941 122.192 9.8394 125.392 10.0894 126.622C9.5894 126.742 9.49941 127.282 8.90941 127.322C8.80941 125.692 9.3194 124.772 8.5594 123.682C7.2294 124.052 8.03941 127.492 7.84941 128.262C7.77216 128.254 7.69472 128.274 7.6307 128.318C7.56669 128.362 7.5202 128.427 7.4994 128.502C6.4994 127.902 4.73941 126.082 2.79941 127.322C7.69941 122.122 12.0894 116.392 17.3794 111.562C16.9794 113.472 18.6094 114.752 19.0294 115.812Z" fill="#343434"/>
<path d="M41.6094 38.1816C42.1794 36.0016 42.8594 31.9716 40.4294 31.8316C38.2494 31.7016 38.8694 36.1716 39.4294 37.9417C40.1012 38.2892 40.8781 38.3747 41.6094 38.1816ZM40.3194 32.8917C41.5394 33.2617 41.4394 35.9816 41.0194 37.2416C39.4494 37.0716 39.8894 34.0117 40.3194 32.8917Z" fill="#343434"/>
<path d="M35.4894 84.8717C36.0794 83.2217 36.0994 81.0117 38.0794 80.7617C38.3858 81.5876 38.5449 82.4608 38.5494 83.3417C38.6964 83.4111 38.8569 83.4471 39.0194 83.4471C39.1819 83.4471 39.3425 83.4111 39.4894 83.3417C39.7994 82.6917 39.4094 82.0217 39.4894 81.2317C39.897 81.0012 40.2269 80.6547 40.437 80.2363C40.6472 79.8178 40.7281 79.3463 40.6694 78.8817C40.1694 78.3317 39.5494 78.6917 38.5494 78.8817V78.4717H37.5494V79.4717C36.5494 80.2817 34.4994 81.0217 34.6394 83.5917C33.5973 84.9222 32.4211 86.1419 31.1294 87.2317C30.2594 87.8917 29.1294 88.1017 28.4894 89.1217C29.6994 89.8417 31.1994 88.7117 32.0494 88.0617C33.2894 87.0917 34.2694 85.5417 35.4894 84.8717Z" fill="#343434"/>
<path d="M25.6194 80.9917C24.9547 80.7506 24.2561 80.6156 23.5494 80.5916V83.7116C24.2696 83.6363 24.9706 83.4332 25.6194 83.1117C25.7775 82.7807 25.8595 82.4185 25.8595 82.0517C25.8595 81.6849 25.7775 81.3227 25.6194 80.9917Z" fill="#343434"/>
<path d="M46.7894 90.9917C44.3294 91.4817 43.7894 97.2618 47.0194 97.1018C50.0294 96.9618 50.5494 90.2417 46.7894 90.9917ZM47.2594 95.8118C47.5894 94.8918 47.1594 93.2018 47.4894 92.2818C49.0994 92.5518 48.4494 95.6018 47.2594 95.8118Z" fill="#343434"/>
<path d="M32.6694 98.6417C33.5094 98.1817 32.8994 96.2816 32.5494 95.5816C31.0994 95.4716 31.8294 98.5217 32.6694 98.6417Z" fill="#343434"/>
<path d="M54.3094 108.282C54.8594 107.682 54.1694 106.732 53.9594 106.162C53.5094 106.092 53.4794 106.072 53.1394 106.282C53.2194 107.252 53.2394 108.302 54.3094 108.282Z" fill="#343434"/>
<path d="M52.8994 110.042C53.3694 109.252 52.7694 107.742 52.4294 106.982C50.9794 107.012 51.7594 110.092 52.8994 110.042Z" fill="#343434"/>
<path d="M49.6094 113.472C51.1694 113.472 49.9994 111.412 50.0794 110.422C49.9131 110.444 49.7447 110.401 49.6094 110.302C48.7294 110.792 49.2594 112.752 49.6094 113.472Z" fill="#343434"/>
<path d="M48.8994 114.982C49.3694 114.222 48.7894 112.742 48.5494 111.932C47.1294 111.902 47.6594 115.152 48.8994 114.982Z" fill="#343434"/>
<path d="M47.2594 114.162C45.9694 112.782 45.6794 116.712 47.2594 116.392C47.8394 115.812 47.0394 115.102 47.2594 114.162Z" fill="#343434"/>
<path d="M44.3194 116.982C42.8494 116.252 43.1994 119.742 43.9594 119.932C45.1194 119.792 44.2494 117.842 44.3194 116.982Z" fill="#343434"/>
<path d="M42.5494 118.402C41.9094 118.732 41.6694 121.662 42.6694 121.812C43.4494 121.582 43.3194 118.912 42.7894 118.512C42.6694 118.472 42.6494 118.472 42.5494 118.402Z" fill="#343434"/>
<path d="M31.6094 118.472C33.3874 117.761 35.1177 116.936 36.7894 116.002C37.6994 115.442 38.3994 114.392 39.3794 114.122C40.0294 113.942 40.5494 114.122 41.0194 114.002C43.9694 113.182 44.5794 107.502 43.4894 104.482C43.0994 103.382 41.9794 102.662 41.6094 101.652C40.8694 99.6517 41.7194 96.6517 40.9094 95.0717C41.5594 94.4617 42.2694 93.3017 43.0194 93.1817C42.6994 99.4517 44.3994 103.352 44.1994 108.712C44.207 110.077 43.9664 111.432 43.4894 112.712C42.9329 113.624 42.3043 114.49 41.6094 115.302C39.7736 117.896 37.7266 120.334 35.4894 122.592C34.1194 123.962 32.3294 125.282 30.7894 126.822C29.7894 127.822 28.6994 129.362 27.7294 130.472C27.329 130.861 26.9734 131.293 26.6694 131.762C25.8794 133.602 26.3294 141.132 27.2594 142.112C28.6994 143.642 33.4894 142.752 35.6094 142.702C36.5194 141.592 37.7394 140.702 38.7894 139.642C39.8394 138.582 41.0394 137.792 42.1994 136.822C43.6833 135.438 45.0605 133.943 46.3194 132.352C49.1494 129.032 51.4494 126.542 54.3194 123.182C55.5394 121.752 57.6094 119.862 58.2094 118.472C58.8094 117.082 58.7794 114.702 58.9094 113.062C59.1994 109.422 58.7794 105.382 59.0294 101.532C57.0894 99.9517 54.9694 99.0217 53.4994 97.0617C51.3894 94.2617 50.9994 90.1517 48.9094 87.0617C49.2594 86.3317 50.4094 85.8817 50.7894 84.7117C51.3394 83.0317 51.0494 78.4917 49.9694 78.2417C51.3494 73.0617 51.6194 67.2417 51.6194 60.7117C51.7248 57.8515 51.6847 54.9878 51.4994 52.1317C51.2194 49.4317 50.3594 46.6317 49.8494 44.0117C49.3898 41.496 48.518 39.0734 47.2694 36.8417C46.6694 35.8417 45.3394 35.1217 45.0294 34.0117C44.9523 33.3478 44.9122 32.6801 44.9094 32.0117C44.5294 29.8317 43.3694 27.6417 41.0294 27.4217C39.6694 27.3017 38.7294 27.8117 37.3894 27.5417C36.0494 27.2717 33.8794 25.4417 32.3294 25.4317C30.7794 25.4217 29.3294 26.7217 27.5094 26.8417C27.5094 25.1617 26.1694 24.8417 25.1494 24.2517C24.9194 16.8217 24.7794 8.10168 24.9194 1.08168C24.504 0.796048 24.0396 0.589272 23.5494 0.47168V1.55168L23.7294 1.61168C23.7294 9.18168 23.8694 16.6817 23.9694 24.1917L23.5494 24.3317V26.2017C23.8794 26.2017 24.2194 26.2017 24.5494 26.2017C24.2217 26.3142 23.8879 26.4077 23.5494 26.4817V27.6617C24.8594 27.3317 25.8494 26.8217 25.9694 26.0817C26.2394 26.0817 26.2294 26.4517 26.4394 26.5517C25.6036 27.2728 24.6157 27.7958 23.5494 28.0817V29.1617C24.5365 28.9013 25.5025 28.5671 26.4394 28.1617C26.6694 37.5717 27.2294 46.6617 28.1994 55.3317C26.8016 54.1135 25.2355 53.1031 23.5494 52.3317V53.5217C25.0608 54.2282 26.4353 55.1965 27.6094 56.3817C27.3794 56.8317 27.6094 57.2817 27.6094 57.7917C26.4183 56.7638 25.0397 55.976 23.5494 55.4717V56.4717C26.3994 57.6817 28.5494 60.1417 30.5494 61.6717C29.874 62.5976 28.932 63.2954 27.8494 63.6717C28.2194 62.6717 29.7094 62.6717 30.0794 61.6717C29.6994 60.4817 28.5994 61.6717 28.0794 62.0317C27.6232 61.6407 27.1108 61.3204 26.5594 61.0817C26.2794 59.4517 25.4394 57.8917 23.8494 57.5617C23.7513 57.5353 23.6508 57.5186 23.5494 57.5117V58.7217C23.9635 58.835 24.345 59.0444 24.6629 59.3328C24.9809 59.6212 25.2264 59.9806 25.3794 60.3817C24.8809 59.812 24.2535 59.3697 23.5494 59.0917V61.1517C23.6426 61.2195 23.7433 61.2766 23.8494 61.3217C23.8105 61.3615 23.7637 61.3927 23.7121 61.4133C23.6604 61.434 23.605 61.4436 23.5494 61.4417V62.5317C23.8194 62.5317 24.0494 62.5317 24.5494 62.6117V63.4717C24.2067 63.4159 23.8713 63.322 23.5494 63.1917V64.3217C23.6864 64.333 23.8182 64.3794 23.9321 64.4565C24.0459 64.5336 24.138 64.6387 24.1994 64.7617L23.5494 64.5717V67.2217C23.6227 67.2945 23.6836 67.379 23.7294 67.4717C23.7069 67.6129 23.6444 67.7448 23.5494 67.8517V69.1317L23.9694 69.0017C24.1394 69.8817 23.5494 71.5417 24.4394 71.7017C25.4394 71.4317 25.0294 69.9717 25.0294 69.0017C25.0294 66.6017 25.1894 65.0817 25.3794 62.8817C25.7894 62.6417 26.2394 62.1517 26.6694 62.2917C26.8639 62.9785 26.862 63.706 26.664 64.3918C26.4661 65.0776 26.0799 65.6942 25.5494 66.1717C25.5494 68.2717 25.4294 70.6517 25.4294 72.9917C25.4294 73.9917 25.7094 75.0617 25.0794 75.7017C24.9794 74.8917 25.3694 73.6017 24.6094 73.4617C23.5494 73.4617 24.1394 75.7717 24.1394 76.0517C23.9666 76.1292 23.7854 76.1862 23.5994 76.2217V77.2717C24.4289 77.162 25.2417 76.9504 26.0194 76.6417C26.5394 76.2217 26.3994 75.1417 26.6094 74.4117C31.2426 75.1083 35.8357 76.0496 40.3694 77.2317C42.3694 77.8317 44.8794 78.2317 47.3094 78.8817C47.0694 79.1717 47.6794 79.4617 47.6594 79.8117C47.6594 80.3217 46.0994 81.6917 45.6594 82.0517C43.6341 83.4801 41.746 85.0938 40.0194 86.8717C39.2394 87.7817 38.3494 88.5817 37.4294 89.4617C35.6194 91.1717 33.9794 92.8817 31.5494 93.9317C28.9894 93.2717 26.3194 92.6117 23.5994 92.0017V93.0917C24.2794 93.2617 24.9594 93.4317 25.6694 93.5817C24.9294 94.7617 26.4394 97.3217 26.0194 98.5217C24.9594 97.3017 25.6094 94.3817 24.1394 93.5817C23.1394 94.4417 24.4594 96.6517 24.6094 97.9317C24.2994 98.2317 23.9894 97.9317 23.6094 97.8117V98.8917C24.2406 99.0609 24.8536 99.292 25.4394 99.5817C24.8024 99.863 24.1902 100.198 23.6094 100.582V101.772C25.3435 100.449 27.4915 99.7862 29.6694 99.9017C27.4241 100.586 25.3558 101.753 23.6094 103.322V104.732C25.2754 103.142 27.2765 101.946 29.4656 101.231C31.6548 100.516 33.9763 100.301 36.2594 100.602C37.5746 100.786 38.8042 101.361 39.7894 102.252C39.9419 103.264 39.9822 104.29 39.9094 105.312C39.5994 108.392 35.9094 112.382 33.0794 113.902C30.2494 115.422 26.8494 116.532 23.6094 115.992V117.052C29.3594 117.882 35.2894 114.422 38.3794 110.722C39.7394 109.092 40.8594 107.722 40.9694 105.072C41.425 106.281 41.4638 107.608 41.0794 108.842C40.0794 110.132 37.3094 110.582 38.3794 113.192C37.0041 114.649 35.3146 115.775 33.4394 116.482C31.5054 117.464 29.4464 118.177 27.3194 118.602C26.0771 118.759 24.8159 118.667 23.6094 118.332V120.472L24.3794 119.732C26.854 119.869 29.3272 119.438 31.6094 118.472ZM27.6094 133.062C27.2794 132.562 28.2894 132.402 28.5494 132.122C28.7794 132.122 28.4594 132.552 28.4394 132.712C27.9894 132.692 27.6994 132.792 27.6094 133.102V133.062ZM28.4394 141.412C28.1294 141.322 28.0294 141.032 28.0794 140.592C28.2594 140.522 28.6894 140.722 28.6694 140.472C28.8994 140.672 28.2494 140.942 28.4394 141.472V141.412ZM28.5494 135.762C28.0494 135.482 28.3994 134.372 28.5494 134.002C28.6194 134.632 28.8994 135.172 28.5494 135.802V135.762ZM31.8494 142.432H30.9094C31.1194 140.432 32.6694 139.432 33.4994 137.922C33.5494 137.522 33.1394 137.432 33.0194 137.192C32.8611 137.186 32.7057 137.235 32.5786 137.329C32.4514 137.424 32.3601 137.559 32.3194 137.712C32.1494 137.002 34.0294 135.782 32.9094 134.862C32.1064 135.527 31.4638 136.364 31.0294 137.312C30.4494 138.172 29.7794 139.002 29.2594 139.892C29.3894 137.742 31.1494 136.202 32.0794 134.472C32.0194 134.182 31.7994 134.052 31.6094 133.882C30.2994 134.482 29.8594 135.972 29.1394 137.172C29.3594 135.742 30.8194 134.542 31.3794 133.062C31.1494 132.472 30.5694 132.522 31.0294 131.762C33.5294 132.512 33.8594 135.712 33.8494 138.982C33.143 139.212 32.5473 139.697 32.1778 140.342C31.8083 140.987 31.6913 141.746 31.8494 142.472V142.432ZM33.4994 141.882C33.7194 141.432 34.1194 140.642 33.3794 140.472C33.3794 140.232 33.6994 140.242 33.7294 140.002C34.0894 140.382 34.0394 141.182 34.1994 141.762C34.0594 141.942 33.7894 141.932 33.5494 141.922L33.4994 141.882ZM57.8394 112.832C57.7094 114.472 57.7594 116.932 57.2594 118.122C56.6756 118.935 56.0049 119.683 55.2594 120.352C51.7894 124.242 48.8794 127.752 45.4994 131.652C44.2728 133.196 42.936 134.65 41.4994 136.002C40.4294 136.892 39.2094 137.622 38.2094 138.582C37.3248 139.583 36.3396 140.491 35.2694 141.292C34.6094 138.742 35.2694 134.872 33.9794 132.942C37.0394 129.632 40.4494 126.882 43.2694 123.412C44.6694 121.692 46.1594 120.072 47.6194 118.362C49.0794 116.652 50.3594 114.812 51.8494 113.182C52.4694 112.502 53.3494 112.002 53.9694 111.302C55.5994 109.482 56.4994 107.002 57.8494 104.952C57.7394 106.672 58.0494 110.212 57.8394 112.872V112.832ZM50.3094 92.9517C51.6894 96.9517 53.9094 99.9517 57.6094 101.772C57.6094 104.052 56.1794 105.622 55.2494 107.182C54.3194 108.742 53.5394 110.622 51.8394 111.532C51.4194 110.822 51.8394 109.222 50.8994 109.062C49.9794 109.482 50.5294 111.852 51.2594 112.122C49.6994 114.332 47.8894 116.292 46.1994 118.362C46.1994 117.492 46.1994 115.692 45.7294 114.942C45.5894 114.942 45.5194 114.942 45.4894 114.832C44.2794 115.292 45.4094 116.832 45.1394 118.122C45.2294 118.422 45.5094 118.532 45.9594 118.472C44.6894 120.062 43.2994 121.542 42.0794 123.182C41.6694 122.412 42.0794 120.872 41.0194 120.712C40.1994 121.052 40.7194 123.522 41.4894 123.762C41.2294 124.172 41.0294 124.642 40.5494 124.832C40.5494 123.712 40.4494 122.652 39.7294 122.242C38.7294 122.542 39.4494 124.852 39.9694 125.412C39.7194 125.842 39.0594 126.412 38.7894 126.472C38.3594 125.722 38.9094 124.002 38.1994 123.532C36.9594 123.742 37.3894 126.852 38.1994 127.182C37.9643 127.607 37.5901 127.939 37.1394 128.122C37.0094 127.302 37.4594 125.922 36.7894 125.652C35.5994 125.722 36.0394 128.342 36.4394 128.942C36.0394 129.062 36.0294 129.552 35.6094 129.652C35.4994 128.652 35.9494 127.112 35.1394 126.822C33.5394 127.672 35.6994 131.222 33.9694 131.062C33.8994 130.062 34.2094 128.622 33.2594 128.472C32.4894 128.702 32.6594 131.412 33.4994 131.532C32.4994 131.762 31.4994 130.132 29.2594 130.592C30.9594 127.512 34.1294 125.522 36.6694 122.942C37.8094 121.792 38.8394 120.462 39.9694 119.182C42.0394 116.822 44.8494 113.782 45.2594 110.362C45.3925 108.635 45.3522 106.9 45.1394 105.182C44.7794 101.092 43.9794 96.7317 43.8494 92.1317C45.0864 90.5912 46.5069 89.2077 48.0794 88.0117C49.3994 89.3417 49.7494 91.3417 50.3094 92.9917V92.9517ZM36.6694 33.5517C36.6833 32.1495 37.2303 30.8052 38.1994 29.7917C38.0794 29.4117 37.7294 30.4017 37.6094 30.0217C38.6094 29.3217 39.2394 28.5217 40.7894 28.7317C43.7194 29.1117 44.1294 33.6017 43.7294 37.3217C43.5394 39.0617 42.5294 42.3717 41.3794 42.6117C40.6153 42.606 39.8728 42.3573 39.2594 41.9017C37.1294 40.4017 36.4094 37.0817 36.6694 33.5917V33.5517ZM28.5494 58.6417C28.6757 58.1831 28.7164 57.7051 28.6694 57.2317C29.3794 57.5217 28.9094 58.4617 29.3794 59.1217C28.9194 59.1517 29.0194 58.6117 28.5494 58.6417ZM36.1994 74.9917C32.9694 74.3417 29.4194 73.9917 26.4394 73.1117C26.3594 70.8417 26.6394 68.9217 26.5594 66.6417C26.9094 65.9817 27.8394 65.8917 27.9694 65.0017C28.9694 64.0017 31.3694 63.5917 31.7294 62.0617C31.7311 61.4641 31.6537 60.869 31.4994 60.2917C31.5348 59.6255 31.5348 58.9579 31.4994 58.2917C31.1494 57.1217 29.4194 57.0217 29.1394 55.9417C30.3694 54.7717 32.9694 54.9417 34.1994 53.8217C34.0021 52.7305 34.1064 51.6062 34.5012 50.57C34.8959 49.5338 35.5661 48.625 36.4394 47.9417C37.2894 47.3717 38.0294 50.5917 38.0794 51.1117C38.2294 52.6217 38.0794 54.3517 38.1994 56.0517C38.3445 58.9132 38.3445 61.7802 38.1994 64.6417C37.9412 66.4624 37.5873 68.2682 37.1394 70.0517C36.8494 71.9517 37.0094 73.8317 36.1994 74.9917ZM39.6094 50.7617C40.2541 50.3188 40.7758 49.7194 41.1257 49.0198C41.4755 48.3202 41.6419 47.5432 41.6094 46.7617C41.9994 46.7617 42.1294 47.1117 42.4294 47.2317C42.0094 49.6417 40.2094 50.6617 39.2594 52.5317C39.0294 51.4217 39.1694 49.9217 38.6694 49.0917C39.1194 48.2817 39.8994 47.9717 39.8494 46.4717H40.5494C40.7394 48.4717 39.5494 48.9317 39.1394 50.2617C39.1353 50.3259 39.1444 50.3902 39.1662 50.4508C39.188 50.5113 39.2219 50.5667 39.266 50.6136C39.3101 50.6605 39.3633 50.6978 39.4223 50.7233C39.4814 50.7487 39.5451 50.7618 39.6094 50.7617ZM38.1994 47.8217C38.0594 47.5717 37.7594 47.4817 37.7294 47.1217C38.1794 47.1217 38.2694 46.7217 38.7894 46.7617C38.7194 47.2517 38.3794 47.4717 38.1994 47.8217ZM43.4894 76.7617C42.9694 76.8517 42.7894 76.6017 42.3194 76.6417C42.7081 76.1603 43.187 75.7594 43.7294 75.4617C43.7846 75.9094 43.7008 76.3632 43.4894 76.7617ZM43.9594 73.9417C42.5794 74.4617 41.8894 76.2217 40.1994 76.0517C41.3094 74.8117 42.9094 74.0517 44.0794 72.8817C44.2994 73.0317 43.9694 73.6217 43.9594 73.9417ZM41.8494 72.5217C42.7794 71.8417 43.6394 70.8717 44.4294 70.4117C44.7394 70.8317 44.3494 71.5717 44.3194 72.0517C44.1045 71.9283 43.8515 71.8891 43.6094 71.9417C41.9594 73.2317 40.2894 74.5017 38.5494 75.7017C38.3394 75.4817 37.8394 75.5517 37.6094 75.3517C37.6192 74.3898 37.7778 73.4351 38.0794 72.5217C39.2161 66.1587 39.5721 59.6809 39.1394 53.2317C39.1394 52.6817 39.4094 53.4717 39.8494 53.2317C41.2264 51.8093 42.3765 50.1837 43.2594 48.4117C43.3894 48.4117 43.4694 48.4117 43.4894 48.5317C43.5594 51.6217 39.9694 52.6817 39.7294 55.4717C39.8694 55.4717 39.9394 55.4717 39.9694 55.5917C41.0494 55.3817 41.2794 54.1817 41.8494 53.4717C42.6194 52.4717 43.7294 51.7417 44.1994 50.5317C44.6994 50.5317 44.1994 51.5317 44.5494 51.7117C43.8046 52.7895 42.9789 53.8091 42.0794 54.7617C41.3394 55.6317 39.8394 56.6917 40.5494 57.9417C41.6094 57.5417 42.0194 56.3617 42.6694 55.5917C43.3618 54.796 44.1068 54.0477 44.8994 53.3517C45.0494 55.1317 43.5194 56.2917 42.5494 57.3517C41.6722 58.2431 40.8475 59.1847 40.0794 60.1717C40.0294 60.5717 40.4294 60.5317 40.5494 60.7617C42.4494 59.6017 43.4994 57.5917 45.1394 56.1717C44.6594 59.5817 41.3394 60.1717 40.1994 62.8817C41.4694 63.7117 42.2794 61.7417 43.1394 60.8817C43.9994 60.0217 44.7594 59.4917 45.2594 59.0017C44.3494 60.9809 42.9777 62.7127 41.2594 64.0517C40.7994 64.4417 39.8094 64.6617 40.0794 65.5817C41.3694 65.8417 42.1394 64.5817 42.8994 63.8217C43.6594 63.0617 44.5794 62.1317 45.2594 61.5817C44.8094 64.7517 41.4894 65.0417 40.3194 67.4717C40.2294 67.7917 40.5494 67.7017 40.5494 67.9317C42.5494 67.2617 43.6794 65.1117 45.2594 64.4117C45.2843 64.8453 45.2439 65.2801 45.1394 65.7017C44.1394 66.5117 43.2294 67.3117 42.3194 68.1717C41.4094 69.0317 40.3194 69.7917 40.0794 71.1117C41.2794 71.4117 41.9494 70.0517 42.6694 69.3517C43.3908 68.6155 44.1773 67.9461 45.0194 67.3517C44.9074 67.6931 44.8666 68.0539 44.8994 68.4117C44.4094 68.7317 44.1594 69.3217 43.7294 69.7017C42.1994 71.0417 40.2094 71.9117 38.9094 73.4617C39.7594 74.4717 41.0394 73.1117 41.8494 72.5217ZM44.6694 77.1117C44.4994 76.4117 45.1094 74.8517 45.2594 73.9417C46.3494 67.1917 47.6794 52.9417 44.3194 47.7117C43.0594 45.7617 40.9894 44.9017 38.0794 45.8217C36.9494 46.1631 35.8798 46.6794 34.9094 47.3517C34.5457 47.9135 34.2312 48.5057 33.9694 49.1217C33.2064 50.3911 32.9127 51.888 33.1394 53.3517C31.7494 53.6017 30.6394 54.1517 29.2594 54.4117C28.1694 46.0917 27.7694 37.0817 27.4994 27.9517C29.1794 27.9517 30.5894 26.7017 32.0794 26.6517C33.5694 26.6017 34.3294 27.7717 35.7294 27.9517C35.5794 28.7517 34.5194 28.9517 34.0794 29.8317C33.7967 30.5177 33.5628 31.2228 33.3794 31.9417C33.0469 33.211 32.8887 34.5197 32.9094 35.8317C33.0591 36.5866 33.2562 37.3314 33.4994 38.0617C33.5694 38.5617 33.4394 39.0617 33.4994 39.5917C33.7094 41.4317 34.5694 43.3317 35.6094 43.7117C36.9794 44.2017 38.6594 43.5917 39.9694 43.5917C40.5515 43.7001 41.139 43.7769 41.7294 43.8217C42.25 43.6992 42.739 43.4685 43.1646 43.1446C43.5901 42.8207 43.9427 42.4109 44.1994 41.9417C44.9294 40.3917 44.5994 38.0317 44.8994 36.0617C47.7494 38.4317 48.6094 43.2817 49.4894 48.0617C49.7694 49.5517 50.2694 51.0617 50.4294 52.5317C50.6994 55.0917 50.5494 57.9417 50.5494 60.7617C50.5494 67.2217 50.2094 73.0917 48.8994 78.1717C47.2794 78.0317 46.3294 77.2117 44.6694 77.1117ZM26.9094 98.6417C27.4894 97.1917 26.4794 95.5117 26.3194 94.0517C26.6294 93.8217 27.3794 94.1617 27.7294 94.2817C27.8497 95.7808 28.0466 97.2727 28.3194 98.7517C27.8551 98.6619 27.3821 98.625 26.9094 98.6417ZM38.9094 99.3417C38.2475 98.99 37.5306 98.7533 36.7894 98.6417C37.8694 97.8518 38.892 96.9863 39.8494 96.0517C40.4894 96.9717 40.1394 98.8917 40.3194 100.282C39.9394 100.472 39.5494 99.6817 38.9094 99.3417ZM38.0794 96.1717C36.1794 97.7817 34.0794 100.062 31.1394 98.9917C30.8494 97.6917 30.9194 95.0917 29.8494 95.2217C28.7794 95.3517 30.3994 98.0017 29.9694 98.8717C28.6694 98.4717 29.4094 95.6817 28.6694 94.6417C29.3594 94.2817 30.4894 95.0417 31.3794 94.9917C32.2694 94.9417 34.3794 93.5917 35.3794 92.8717C37.3794 91.4117 39.1994 89.1817 41.3794 86.8717C44.2094 83.7917 47.2994 83.0217 49.1394 79.5217H49.7294C49.7294 80.5217 50.1694 83.0917 49.7294 84.4017C49.2894 85.7117 47.1294 87.2417 45.8394 88.4017C42.8094 91.1817 41.2194 93.4717 38.0794 96.1717ZM42.5494 107.572C42.3894 106.482 42.0994 105.522 41.9594 104.402C42.5559 105.343 42.7671 106.478 42.5494 107.572ZM42.5494 108.872C42.9794 110.632 42.0494 113.072 39.9694 113.102C40.1594 112.282 39.6194 112.192 39.1394 112.042C40.0394 110.742 41.5994 110.112 42.5494 108.872Z" fill="#343434"/>
<path d="M24.3194 115.222C24.2694 115.702 24.5694 115.832 24.7894 116.042C25.6694 115.632 26.3594 115.092 27.3794 115.342C27.9694 115.002 28.4594 114.282 29.3794 114.632C30.2394 113.632 31.9694 113.462 32.5494 112.162C32.8294 112.162 32.9994 112.352 33.3794 112.282C33.7794 111.612 33.6094 110.282 33.6094 109.222C33.6094 108.162 33.8594 106.802 33.2594 106.282C31.4894 106.552 33.6294 110.722 31.8494 110.982C31.3694 109.712 32.9794 107.072 31.4994 106.282C30.6994 106.462 31.0894 107.492 31.0294 108.162C30.8369 108.973 30.7165 109.799 30.6694 110.632C30.3894 110.782 30.0394 110.862 29.9694 111.222C29.4894 109.702 30.9694 107.452 30.0794 106.282C28.7294 106.812 29.2094 109.172 28.7894 110.632C28.6194 111.052 28.0794 111.092 27.9694 111.572C27.8994 111.762 27.8394 111.572 27.8494 111.462C28.0636 110.693 28.1811 109.9 28.1994 109.102C28.4694 107.482 29.6694 105.892 28.6694 105.102C27.4494 105.772 27.4894 108.172 27.0294 109.812C26.8494 109.752 26.7294 109.642 26.5594 109.572C26.1294 108.362 28.2594 105.932 27.2594 104.522C25.9594 104.982 26.3394 107.122 25.6194 108.162C24.4894 107.162 26.1194 105.382 26.4394 104.282C26.4394 104.042 26.1994 103.972 26.0894 103.812C25.0894 103.602 25.2194 104.902 24.7894 105.342C24.6223 105.494 24.4266 105.611 24.2137 105.687C24.0008 105.762 23.775 105.794 23.5494 105.782V107.552L23.9694 107.102C24.0019 107.366 23.9815 107.633 23.9094 107.889C23.8373 108.145 23.7149 108.384 23.5494 108.592V115.242C23.6685 115.305 23.8021 115.337 23.937 115.333C24.072 115.33 24.2038 115.291 24.3194 115.222Z" fill="#343434"/>
</svg>
