<svg width="393" height="852" viewBox="0 0 393 852" fill="none" xmlns="http://www.w3.org/2000/svg">
<g clip-path="url(#clip0_4_35903)">
<rect width="1311.84" height="852" transform="translate(-459.419)" fill="white"/>
<rect width="1311.84" height="852" transform="translate(-459.419)" fill="url(#paint0_linear_4_35903)"/>
<path d="M-438.88 293.141H-448.214C-453.006 293.141 -456.89 297.026 -456.89 301.817V769.183C-456.89 773.975 -453.006 777.859 -448.214 777.859H843.744C848.536 777.859 852.42 773.975 852.42 769.183V322.791C852.42 316.563 846.052 312.363 840.326 314.817L804.172 330.311C802.894 330.859 801.767 331.705 800.885 332.779L774.201 365.265C771.383 368.695 766.43 369.445 762.723 367.003L708.941 331.57C708.512 331.287 708.058 331.043 707.585 330.84L661.111 310.923C659.172 310.092 656.997 309.996 654.993 310.652L618.223 322.698C617.096 323.067 616.057 323.663 615.169 324.45L587.051 349.372C585.695 350.575 583.995 351.322 582.192 351.509L510.744 358.924C509.566 359.046 508.427 359.408 507.394 359.987L450.973 391.638C450.434 391.94 449.864 392.184 449.273 392.366L388.073 411.143C387.402 411.349 386.758 411.635 386.156 411.996L366.417 423.83C365.77 424.218 365.076 424.519 364.351 424.728L348.954 429.151C345.297 430.201 341.383 428.747 339.299 425.564L305.826 374.424C304.252 372.02 301.606 370.553 298.734 370.579C286.739 370.686 253.477 371.732 226.853 379.62C226.089 379.847 225.303 379.974 224.506 379.991L197.719 380.574C196.335 380.605 194.965 380.303 193.721 379.696L157.465 361.984C153.983 360.283 149.794 361.098 147.203 363.981L106.656 409.108C105.295 410.623 103.445 411.611 101.429 411.899L66.5794 416.877C65.1463 417.082 63.7872 417.642 62.6259 418.506L-26.586 484.912C-29.2653 486.907 -32.8517 487.186 -35.8074 485.63L-43.5444 481.558C-44.2411 481.191 -44.8846 480.732 -45.4573 480.191L-80.7263 446.919C-81.9474 445.767 -83.4764 444.994 -85.128 444.694L-110.669 440.05C-112.899 439.644 -114.881 438.383 -116.193 436.535L-127.328 420.844C-128.955 418.551 -131.592 417.189 -134.404 417.189H-151.433C-153.017 417.189 -154.301 415.905 -154.301 414.321C-154.301 412.737 -155.585 411.453 -157.169 411.453H-179.784C-182.274 411.453 -184.643 410.384 -186.29 408.517L-192.921 401.002C-193.926 399.863 -195.213 399.008 -196.652 398.522L-248.317 381.076C-249.211 380.774 -250.149 380.62 -251.092 380.62H-267.041C-269.239 380.62 -271.355 379.786 -272.961 378.287L-280.547 371.207C-280.992 370.791 -281.48 370.424 -282.003 370.11L-295.558 361.977L-315.525 346.003C-316.541 345.19 -317.727 344.616 -318.994 344.324L-335.712 340.466L-361.525 331.145L-434.971 294.072C-436.183 293.46 -437.522 293.141 -438.88 293.141Z" fill="#9FC9B5"/>
<path d="M225.09 380.794C224.919 380.794 224.778 380.934 224.778 381.106C224.778 381.278 225.48 381.418 226.338 381.418C227.196 381.418 227.898 381.278 227.898 381.106C227.898 380.934 227.682 380.794 227.418 380.794C227.017 380.794 226.952 380.369 227.028 378.22C227.098 376.217 227.219 375.646 227.572 375.646C227.822 375.646 228.124 375.997 228.243 376.426L228.46 377.206L228.491 376.348C228.508 375.876 228.671 375.49 228.853 375.49C229.035 375.49 229.087 375.334 228.97 375.144C228.824 374.909 228.98 374.87 229.456 375.021C229.971 375.185 230.119 375.132 230.017 374.821C229.94 374.588 229.397 374.325 228.81 374.236C227.821 374.087 227.788 374.047 228.366 373.7C228.975 373.334 228.974 373.325 228.288 373.315C227.778 373.308 227.58 373.114 227.565 372.604C227.544 371.934 227.53 371.93 227.274 372.526C227.106 372.919 226.998 371.626 226.984 369.038C226.967 365.695 227.054 364.834 227.453 364.436C228.228 363.66 229.892 363.826 231.042 364.793C231.926 365.537 232.005 365.558 231.687 364.965C231.488 364.593 231.015 364.072 230.635 363.806L229.944 363.322H230.809C231.284 363.322 232.088 363.536 232.594 363.798C233.608 364.322 233.678 364.194 233.171 362.742C232.812 361.711 232.405 361.521 230.239 361.377L228.99 361.294L230.046 360.781C231.303 360.171 232.749 360.456 233.593 361.48L234.139 362.143V361.484C234.139 359.58 231.147 358.914 229.034 360.348C227.655 361.284 227.548 360.816 228.844 359.52C229.476 358.888 229.994 358.627 230.404 358.734C231.204 358.944 231.197 358.447 230.394 358.017C229.528 357.554 229.61 357.274 230.785 356.69C231.782 356.193 231.786 356.185 230.984 356.165C230.536 356.154 229.642 356.503 228.997 356.941C228.353 357.378 227.763 357.674 227.688 357.599C227.612 357.523 227.771 356.933 228.04 356.287C228.31 355.642 228.475 355.058 228.406 354.989C228.282 354.865 227.213 356.511 226.845 357.393C226.738 357.651 226.703 357.099 226.766 356.166C226.867 354.695 226.827 354.546 226.467 355.038C226.239 355.35 225.962 356.205 225.852 356.937L225.653 358.269L224.548 357.519C223.412 356.748 222.282 356.53 222.282 357.081C222.282 357.253 222.549 357.393 222.874 357.393C223.477 357.393 225.402 359.327 225.402 359.933C225.402 360.116 224.906 359.83 224.299 359.298C223.551 358.641 222.872 358.329 222.185 358.329C221.142 358.329 219.786 359.058 219.786 359.618C219.786 359.792 220.142 359.655 220.577 359.313C221.206 358.818 221.562 358.747 222.323 358.965C224.314 359.536 224.753 360.481 222.984 360.388C222.341 360.354 221.393 360.424 220.878 360.544L219.942 360.762L220.8 360.794C221.657 360.825 221.936 361.241 221.346 361.606C221.175 361.712 221.034 361.955 221.034 362.146C221.034 362.338 221.384 362.166 221.811 361.764C222.516 361.103 222.668 361.073 223.449 361.451L224.31 361.867L223.082 362.087C222.388 362.211 221.607 362.611 221.288 363.005C220.462 364.024 220.597 364.353 221.58 363.72L222.438 363.168L221.58 364.205C221.108 364.775 220.727 365.406 220.732 365.608C220.738 365.809 221.03 365.588 221.382 365.116C222.259 363.941 222.583 364.04 222.408 365.428L222.261 366.598L222.825 365.194C223.272 364.079 223.561 363.77 224.224 363.692C224.684 363.639 225.347 363.749 225.699 363.937C226.298 364.258 226.338 364.563 226.338 368.793C226.338 373.181 226.32 373.306 225.678 373.306C225.155 373.306 225.054 373.166 225.194 372.631C225.357 372.009 225.331 371.995 224.865 372.461C224.399 372.927 224.328 372.925 223.955 372.434C223.592 371.957 223.549 371.992 223.54 372.771C223.532 373.532 223.456 373.6 222.927 373.317C221.923 372.779 221.44 372.972 222.36 373.542C223.532 374.269 223.437 374.55 222.095 374.332C221.313 374.205 220.888 374.282 220.696 374.586C220.257 375.279 220.36 375.444 221.112 375.251C221.741 375.088 221.769 375.125 221.38 375.599C221.006 376.055 221.01 376.104 221.406 375.952C221.764 375.814 221.836 375.98 221.731 376.696C221.657 377.203 221.746 377.876 221.93 378.192C222.227 378.704 222.264 378.676 222.273 377.933C222.287 376.702 222.592 376.114 223.218 376.114C223.826 376.114 224.154 376.707 224.154 377.807C224.154 378.195 224.435 378.767 224.778 379.078C225.428 379.666 225.633 380.794 225.09 380.794Z" fill="#9FC9B5"/>
<path fill-rule="evenodd" clip-rule="evenodd" d="M399.838 419.291C398.586 418.857 399.023 417.953 400.484 417.953C403.085 417.953 403.9 416.191 404.252 409.804C404.672 402.191 404.393 401.222 401.256 399.383C398.345 397.677 396.861 397.504 395.919 398.759C395.558 399.239 394.007 399.752 392.472 399.897C390.937 400.043 389.447 400.307 389.161 400.484C388.269 401.035 385.535 399.413 385.53 398.329C385.53 397.761 385.324 397.296 385.079 397.296C383.642 397.296 382.99 391.912 384.293 390.804C384.484 390.641 384.987 389.89 385.411 389.134C386.036 388.022 386.04 387.588 385.434 386.857C384.819 386.117 384.856 385.829 385.64 385.255C386.166 384.871 386.726 383.771 386.884 382.811C387.687 377.945 388.794 376.876 394.181 375.77C395.209 375.559 396.195 375.009 396.372 374.547C396.549 374.086 397.766 373.537 399.077 373.328C400.388 373.118 401.461 372.754 401.461 372.518C401.461 371.624 404.669 368.679 405.451 368.854C405.902 368.955 406.603 368.761 407.01 368.424C407.465 368.046 408.414 367.997 409.474 368.297C410.423 368.565 411.484 368.686 411.832 368.566C412.18 368.445 413.11 369.643 413.898 371.227C415.397 374.241 417.52 375.624 419.751 375.041C420.417 374.867 420.938 375.02 420.938 375.389C420.938 375.752 421.602 376.048 422.413 376.048C423.225 376.048 423.889 376.314 423.889 376.639C423.889 376.963 424.287 377.229 424.774 377.229C425.261 377.229 425.659 377.494 425.659 377.819C425.659 378.144 426.006 378.409 426.43 378.409C426.99 378.409 427.174 379.379 427.103 381.947C427.037 384.326 427.27 385.705 427.815 386.157C428.426 386.664 428.461 387.026 427.958 387.633C427.454 388.24 427.512 388.775 428.195 389.817C429.018 391.074 428.998 391.424 427.97 393.721C427.348 395.109 426.84 396.879 426.84 397.656C426.84 398.516 426.495 399.067 425.954 399.067C425.468 399.067 425.069 399.447 425.069 399.911C425.069 400.527 424.433 400.716 422.717 400.609C421.423 400.528 420.184 400.28 419.963 400.059C419.742 399.838 419.074 399.657 418.478 399.657C417.77 399.657 417.396 399.226 417.396 398.409C417.396 397.217 417.33 397.204 415.942 398.113C415.141 398.638 414.14 399.067 413.715 399.067C413.291 399.067 411.954 399.883 410.743 400.88L408.543 402.694V408.219C408.543 415.198 408.98 416.347 412.112 417.601C413.476 418.146 414.489 418.697 414.362 418.823C414.024 419.162 400.703 419.591 399.838 419.291ZM413.786 394.979C413.418 396.091 412.154 397.854 410.977 398.897C409.801 399.94 408.623 400.803 408.36 400.815C407.743 400.844 408.513 395.456 409.259 394.518C409.57 394.127 409.673 393.559 409.486 393.257C409.084 392.607 410.767 391.06 411.298 391.591C411.498 391.791 411.293 392.427 410.841 393.003C410.093 393.955 410.113 393.976 411.052 393.24C411.82 392.637 412.287 392.598 412.877 393.087C413.312 393.449 413.846 393.567 414.063 393.351C414.279 393.134 414.155 393.867 413.786 394.979ZM409.497 389.79C409.297 389.59 409.134 389.754 409.134 390.155C409.134 390.615 408.698 390.745 407.953 390.509C406.875 390.166 406.773 390.403 406.773 393.241V396.347L408.316 393.25C409.165 391.546 409.696 389.989 409.497 389.79ZM401.461 390.624C401.461 389.131 403.504 389.403 404.365 391.011C404.773 391.774 405.017 392.99 404.907 393.713C404.711 395.004 404.678 394.997 403.084 393.326C402.191 392.39 401.461 391.174 401.461 390.624ZM404.091 397.699C403.599 395.739 401.046 393.165 399.595 393.165C398.533 393.165 398.526 393.257 399.44 395.083C400.657 397.514 403.378 400.255 404.002 399.678C404.263 399.436 404.303 398.545 404.091 397.699ZM397.767 395.442C398.165 395.044 398.651 394.879 398.847 395.076C399.044 395.272 399.114 395.845 399.005 396.349C398.862 397.001 398.552 397.107 397.924 396.715C397.23 396.281 397.197 396.012 397.767 395.442ZM416.216 395.413C416.216 393.856 414.794 394.367 414.552 396.011C414.412 396.968 414.597 397.201 415.29 396.935C415.799 396.739 416.216 396.055 416.216 395.413ZM405.611 390.213C405.925 390.213 406.183 390.612 406.183 391.099C406.183 391.586 406.078 391.984 405.951 391.984C405.823 391.984 405.566 391.586 405.379 391.099C405.192 390.612 405.296 390.213 405.611 390.213Z" fill="#9FC9B5"/>
<path d="M28.4142 418.678C28.4195 419.074 28.4624 424.316 28.5095 430.327H28.5113C28.5584 436.338 28.7755 441.256 28.9939 441.256C29.2123 441.256 29.4085 436.044 29.4301 429.675C29.4535 422.767 29.6603 417.903 29.9425 417.621C30.5088 417.054 33.0553 418.551 32.6477 419.211C32.5023 419.446 33.0446 419.639 33.8528 419.639H35.3223L35.4201 423.842L35.5178 428.045L35.6815 423.977C35.8402 420.029 36.1782 419.183 37.6042 419.166C38.0668 419.16 38.2047 421.604 38.2047 429.807C38.2047 435.663 38.3668 440.292 38.565 440.092C38.7631 439.892 38.9397 434.83 38.9573 428.843C38.9965 415.52 38.9949 415.544 39.7665 416.15C40.8317 416.987 43.4889 417.289 43.4889 416.573C43.4889 416.177 44.0143 415.953 44.8678 415.985C45.7922 416.019 46.1676 416.243 46.0067 416.664C45.8748 417.009 45.4704 417.178 45.1082 417.039C44.746 416.9 44.4496 416.996 44.4496 417.252C44.4496 417.508 44.882 417.717 45.4104 417.717C46.3427 417.717 46.3711 418.037 46.3711 428.554C46.3711 434.514 46.5564 439.277 46.7828 439.137C47.0092 438.997 47.2062 433.772 47.2206 427.526C47.2361 420.773 47.4379 415.978 47.7184 415.697C48.2969 415.119 50.8235 416.64 50.406 417.315C49.9613 418.035 55.611 417.33 56.3697 416.571C57.1735 415.768 56.7076 413.874 55.7062 413.874C55.3277 413.874 55.018 413.658 55.018 413.394C55.018 413.13 54.5984 412.913 54.0856 412.913C53.5727 412.913 53.0286 412.712 52.8763 412.465C52.724 412.219 51.934 412.036 51.1208 412.059C50.3076 412.083 49.4704 411.823 49.2603 411.483C48.997 411.057 48.3376 410.967 47.1381 411.192C45.8226 411.438 45.3309 411.344 45.1238 410.804C44.9731 410.411 44.2342 409.955 43.4819 409.789C42.7296 409.624 41.8525 409.174 41.5327 408.788C41.2032 408.391 40.5645 408.211 40.0584 408.371C39.5673 408.527 39.1517 408.478 39.1347 408.262C39.1179 408.046 39.0354 407.172 38.9514 406.32C38.7567 404.345 39.6677 403.492 41.0493 404.354C41.5984 404.697 42.0477 405.252 42.0477 405.587C42.0477 406.044 42.7398 406.12 44.8099 405.893C48.2869 405.511 49.1691 404.797 48.3598 403.021C48.0389 402.317 47.6556 401.861 47.5081 402.009C47.3606 402.156 46.4974 401.86 45.59 401.35C44.6825 400.84 43.2981 400.423 42.5135 400.423C41.7289 400.423 41.087 400.23 41.087 399.994C41.087 399.34 39.5944 398.911 38.9845 399.389C38.6877 399.622 37.4679 399.806 36.2737 399.798C34.6846 399.787 33.5257 400.153 31.9503 401.164C30.7666 401.924 29.7389 402.577 29.6666 402.617C29.1897 402.875 30.2748 404.131 31.367 404.583C33.862 405.618 35.3224 405.782 35.3224 405.028C35.3224 404.565 35.8048 404.344 36.7616 404.372C37.9876 404.407 38.1122 404.52 37.6023 405.138C37.1224 405.718 37.1227 405.905 37.6023 406.066C37.9326 406.177 38.2028 406.589 38.2028 406.981C38.2028 407.474 37.908 407.6 37.2463 407.39C36.7202 407.223 36.0177 407.259 35.6851 407.469C35.3524 407.679 34.0608 407.874 32.8147 407.903C31.1758 407.942 30.0132 408.328 28.6114 409.299C26.3985 410.833 26.2261 411.504 27.7544 412.636L28.8353 413.436L27.5102 413.165C25.6211 412.777 20.4286 415.321 20.4286 416.634C20.4286 417.347 22.3426 418.475 24.1516 418.829C25.3294 419.059 25.7129 418.965 25.7129 418.445C25.7129 417.986 26.163 417.79 27.0587 417.857C27.8848 417.918 28.4085 418.236 28.4142 418.678Z" fill="#9FC9B5"/>
<path d="M35.2911 430.918C35.0563 431.705 34.9944 433.165 35.1536 434.161C35.5873 436.872 35.8057 436.356 35.7596 432.729C35.7254 430.045 35.6447 429.733 35.2911 430.918Z" fill="#9FC9B5"/>
<path d="M48.5711 416.567C48.1527 416.728 47.8103 417.07 47.8103 417.328C47.8103 417.96 48.9022 417.564 49.1415 416.846C49.2585 416.495 49.0389 416.388 48.5711 416.567Z" fill="#9FC9B5"/>
<path d="M40.6046 404.747C40.3404 404.747 40.1243 404.963 40.1243 405.227C40.1243 405.491 40.3404 405.708 40.6046 405.708C40.8689 405.708 41.085 405.491 41.085 405.227C41.085 404.963 40.8689 404.747 40.6046 404.747Z" fill="#9FC9B5"/>
<path d="M219.514 373.397C219.203 374.278 218.949 375.405 218.949 375.901C218.949 376.666 219.137 376.803 220.183 376.803L221.418 376.803L221.395 371.389C221.369 365.437 221.664 363.08 222.773 360.395C223.834 357.826 223.671 357.251 222.558 359.64C222.04 360.753 221.414 362.762 221.167 364.104C220.919 365.446 220.595 366.545 220.446 366.545C220.298 366.545 219.896 366.118 219.554 365.596C218.971 364.706 218.98 364.553 219.7 363.141C220.123 362.313 220.468 361.308 220.468 360.907C220.468 360.506 220.725 359.565 221.038 358.815C221.352 358.064 221.596 357.231 221.581 356.963C221.567 356.696 221.427 356.801 221.272 357.197C221.024 357.828 220.886 357.743 220.159 356.51C219.702 355.736 219.309 354.728 219.284 354.27C219.248 353.582 219.209 353.558 219.061 354.132C218.962 354.515 219.224 355.626 219.642 356.602C220.332 358.209 220.395 359.485 219.868 361.16C219.763 361.494 219.372 361.263 218.714 360.482C217.947 359.571 217.65 358.684 217.425 356.631C217.264 355.164 217.028 353.859 216.901 353.732C216.773 353.604 216.669 353.721 216.669 353.99C216.669 354.377 216.533 354.371 216.021 353.958C215.547 353.577 215.605 353.819 216.238 354.856C216.714 355.636 217.043 356.662 216.97 357.135C216.846 357.941 216.796 357.919 216.187 356.788C215.83 356.124 215.181 355.467 214.745 355.329C213.56 354.953 213.367 355.446 214.527 355.886C215.078 356.096 215.529 356.416 215.529 356.598C215.529 356.78 216.213 357.987 217.049 359.28C218.662 361.775 218.81 362.345 218.162 363.555C217.818 364.197 217.663 364.237 217.155 363.815C216.236 363.053 213.771 359.609 213.474 358.674C213.126 357.579 210.987 356.286 209.523 356.286C208.88 356.286 208.259 356.131 208.142 355.942C208.025 355.753 207.631 355.675 207.265 355.77C206.9 355.865 206.265 355.697 205.855 355.396C205.221 354.931 205.185 354.758 205.617 354.238C205.895 353.902 206.303 353.627 206.522 353.627C206.741 353.627 207.249 353.328 207.651 352.962C208.297 352.374 209.426 352.106 215.529 351.097C216.26 350.976 217.064 350.712 217.316 350.511C217.832 350.097 219.375 350.472 219.798 351.113C219.97 351.376 220.079 351.275 220.083 350.851C220.088 350.217 220.154 350.21 220.933 350.756C221.912 351.442 223.508 351.544 223.508 350.921C223.508 350.614 223.646 350.609 224.002 350.904C224.273 351.129 225.217 351.429 226.1 351.57C228.094 351.889 228.489 352.422 226.96 352.727L225.802 352.959L226.65 353.614C227.855 354.546 229.729 354.835 230.571 354.219C231.116 353.82 231.172 353.593 230.827 353.177C230.479 352.759 230.551 352.543 231.161 352.161C231.76 351.787 231.878 351.445 231.682 350.657C231.346 349.313 230.408 348.308 229.487 348.308C228.976 348.308 228.815 348.126 228.97 347.723C229.247 347 228.915 346.889 225.65 346.617C222.836 346.383 222.368 346.228 222.368 345.531C222.368 345.282 221.898 345.055 221.323 345.027C220.749 344.998 219.295 344.813 218.094 344.615C216.892 344.417 215.909 344.355 215.909 344.477C215.909 344.599 215.031 344.694 213.958 344.689C212.886 344.683 211.39 344.895 210.634 345.158C209.878 345.421 209.007 345.639 208.698 345.642C208.39 345.645 207.512 346.332 206.748 347.168C205.902 348.093 205.018 348.688 204.49 348.688C203.434 348.688 202.231 349.706 202.231 350.6C202.231 350.96 201.977 351.465 201.665 351.724C201.354 351.982 201.182 352.326 201.282 352.488C201.504 352.848 199.16 354.004 198.184 354.015C197.776 354.02 198.335 354.521 199.516 355.209C201.054 356.106 201.622 356.277 201.847 355.913C202.239 355.279 204.951 355.192 205.166 355.806C205.317 356.237 204.663 356.635 202.872 357.203C202.493 357.323 202.288 357.591 202.417 357.8C202.559 358.029 203.421 357.788 204.596 357.193C206.359 356.3 206.685 356.249 208.09 356.654C208.943 356.899 210.067 357.216 210.59 357.358C211.229 357.532 212.249 358.689 213.71 360.898C214.904 362.702 216.576 364.729 217.426 365.403C218.276 366.076 219.223 367.113 219.53 367.707C220.165 368.935 220.28 370.507 219.708 370.154C219.226 369.856 219.225 370.2 219.704 371.095C219.966 371.586 219.909 372.276 219.514 373.397Z" fill="#9FC9B5"/>
<path d="M224.446 354.503C223.899 355.124 223.526 355.996 223.552 356.593C223.586 357.384 223.638 357.444 223.781 356.856C223.883 356.438 224.205 355.826 224.498 355.496C224.79 355.165 224.915 354.781 224.775 354.641C224.635 354.501 224.721 354.387 224.964 354.387C225.208 354.387 225.402 354.173 225.396 353.912C225.389 353.651 224.962 353.917 224.446 354.503Z" fill="#9FC9B5"/>
<path d="M222.456 353.021C221.99 353.419 221.619 354.103 221.632 354.541C221.654 355.267 221.689 355.255 222.028 354.407C222.232 353.896 222.603 353.212 222.852 352.887C223.105 352.557 222.931 352.616 222.456 353.021Z" fill="#9FC9B5"/>
<path d="M209.482 354.268C209.882 354.164 210.3 354.226 210.412 354.406C210.635 354.768 211.544 354.514 212.618 353.79C213.295 353.333 213.295 353.313 212.618 353.115C211.855 352.893 210.135 352.763 208.772 352.827C208.011 352.862 207.956 352.966 208.329 353.663C208.61 354.186 209.004 354.393 209.482 354.268Z" fill="#9FC9B5"/>
<path d="M217.3 352.012C217.195 351.751 217.109 351.965 217.109 352.487C217.109 353.009 217.195 353.223 217.3 352.962C217.406 352.701 217.406 352.273 217.3 352.012Z" fill="#9FC9B5"/>
<path fill-rule="evenodd" clip-rule="evenodd" d="M237.726 388.935C236.202 389.613 236.052 389.851 236.721 390.521C237.214 391.013 244.407 390.718 244.611 390.196C244.68 390.019 245.074 390.055 245.485 390.275C246.464 390.799 252.972 390.848 254.196 390.341L255.149 389.947L254.006 389.503C251.302 388.451 250.036 386.078 249.436 380.937C249.062 377.734 249.127 373.256 249.558 372.486C249.865 371.938 250.077 372.134 250.882 373.71C251.831 375.568 251.844 375.577 252.11 374.533C252.369 373.517 252.288 372.802 251.697 370.884C251.425 370 251.436 369.997 252.569 370.583C253.2 370.909 254.247 371.826 254.896 372.62L256.075 374.064L256.088 372.992C256.095 372.402 255.924 371.589 255.707 371.184C255.13 370.106 252.392 368.815 251.276 369.095C250.451 369.303 250.392 369.247 250.744 368.588C250.962 368.182 251.785 367.461 252.573 366.987L252.732 366.891C253.836 366.228 254.221 365.996 254.198 365.817C254.186 365.721 254.057 365.639 253.858 365.514L253.858 365.514L253.835 365.5L253.805 365.481C252.936 364.931 252.421 365.041 251.288 366.015L250.24 366.916L249.032 365.635C248.367 364.93 247.458 364.353 247.011 364.353C245.956 364.353 245.979 364.456 247.375 366.047C249.169 368.09 248.503 368.626 246.651 366.631C245.779 365.692 245.064 364.81 245.061 364.67C245.054 364.273 247.549 362.83 248.243 362.83C248.585 362.83 248.865 362.677 248.865 362.49C248.865 361.686 246.285 361.411 245.032 362.081C243.698 362.795 244.157 361.497 246.275 358.564C246.995 357.567 246.332 357.293 244.878 357.987C244.117 358.35 243.273 359.183 242.869 359.97L242.173 361.328L241.068 360.175C239.862 358.916 238.112 358.637 236.915 359.512C236.316 359.95 236.47 360.095 238.366 360.881C239.615 361.399 240.815 362.222 241.286 362.883L242.086 364.006L241.099 363.758C240.026 363.489 237.524 364.579 236.018 365.973C235.112 366.811 234.535 368.894 234.927 369.915C235.109 370.388 235.495 370.083 236.588 368.603C237.371 367.542 238.654 366.313 239.439 365.87C240.225 365.428 240.866 365.12 240.863 365.186C240.861 365.251 240.604 366.145 240.293 367.172C239.854 368.619 239.818 369.376 240.132 370.542C240.704 372.668 240.311 372.733 239.395 370.664C238.699 369.088 237.703 368.152 237.229 368.626C237.131 368.724 237.312 369.543 237.63 370.446C237.949 371.349 238.15 372.148 238.077 372.221C238.004 372.294 237.408 372.167 236.752 371.938C235.265 371.42 233.133 372.036 232.3 373.226C231.422 374.479 231.606 374.696 233.041 374.097C233.876 373.748 234.742 373.653 235.421 373.835L236.488 374.122L235.483 374.375C234.109 374.722 232.108 377.079 232.108 378.351V379.374L233.495 377.946C234.257 377.161 234.924 376.567 234.976 376.625C235.028 376.683 235.175 377.488 235.302 378.415C235.554 380.258 236.922 383.394 237.474 383.394C237.665 383.394 237.834 382.495 237.85 381.395C237.883 379.142 238.579 376.5 239.154 376.448C239.883 376.382 240.934 380.176 241.144 383.634L241.355 387.11L240.254 387.705C239.649 388.032 238.511 388.586 237.726 388.935ZM243.944 380.823C244.405 376.687 244.279 376.385 241.9 375.951L240.457 375.687L241.035 377.161C241.82 379.158 242.754 383.288 242.79 384.918C242.818 386.144 242.849 386.179 243.18 385.353C243.377 384.859 243.721 382.821 243.944 380.823ZM242.965 367.717C243.337 367.734 244.169 370.717 243.875 370.975C243.792 371.047 243.081 371.223 242.295 371.365L240.867 371.623L241.727 369.661C242.2 368.582 242.757 367.707 242.965 367.717ZM247.17 370.767C247.363 370.16 247.196 369.765 246.529 369.252C245.3 368.307 245.057 368.366 245.057 369.608C245.057 371.454 246.671 372.339 247.17 370.767ZM244.517 367.832C244.199 367.318 244.519 366.735 244.906 367.122C245.032 367.249 245.064 367.568 244.976 367.833C244.847 368.22 244.757 368.22 244.517 367.832ZM248.688 372.379C248.884 371.576 248.836 371.52 248.318 371.95C247.99 372.221 247.722 372.765 247.722 373.159C247.722 373.552 247.475 373.874 247.174 373.874C246.177 373.874 246.106 374.677 247.016 375.646L247.913 376.601L248.188 374.952C248.339 374.045 248.564 372.887 248.688 372.379ZM247.073 378.306C247.899 378.929 248.035 379.423 248.337 382.913C248.56 385.494 248.545 386.807 248.294 386.777C248.084 386.752 247.419 386.624 246.816 386.491L245.719 386.251L245.791 382.071C245.831 379.772 245.927 377.827 246.005 377.749C246.083 377.671 246.564 377.921 247.073 378.306Z" fill="#9FC9B5"/>
<path d="M-316.173 489.171L-447.943 444.262C-453.572 442.343 -459.419 446.528 -459.419 452.474V792.952C-459.419 797.744 -455.534 801.628 -450.742 801.628H841.171C845.963 801.628 849.848 797.744 849.848 792.952V447.988C849.848 441.711 843.389 437.512 837.652 440.057L736.289 485.035L644.697 522.665C644.051 522.93 643.44 523.272 642.876 523.684L601.932 553.598C601.171 554.155 600.324 554.583 599.425 554.867L506.884 584.078C505.264 584.589 503.53 584.614 501.897 584.149L477.681 577.256L322.077 554.842C320.255 554.58 318.396 554.904 316.769 555.768L293.431 568.169C291.631 569.126 289.551 569.418 287.557 568.994L223.138 555.302C220.568 554.756 217.889 555.404 215.853 557.064L211.495 560.616C209.634 562.133 207.226 562.811 204.846 562.488L147.437 554.688C146.222 554.523 144.987 554.618 143.812 554.964L94.0641 569.65L18.4696 591.693C16.7419 592.197 14.9003 592.151 13.1999 591.562L-26.7025 577.734C-27.6162 577.417 -28.5764 577.256 -29.5434 577.256H-68.8018C-69.6432 577.256 -70.4802 577.133 -71.2864 576.892L-145.197 554.802C-146.003 554.561 -146.84 554.438 -147.681 554.438H-200.229C-202.438 554.438 -204.565 553.595 -206.174 552.081L-219.333 539.699C-220.327 538.763 -221.529 538.076 -222.839 537.692L-237.068 533.522L-289.913 512.278C-290.936 511.867 -291.871 511.264 -292.669 510.503L-312.981 491.109C-313.892 490.239 -314.981 489.578 -316.173 489.171Z" fill="#159888"/>
<path fill-rule="evenodd" clip-rule="evenodd" d="M371.553 604.061C368.937 603.155 369.85 601.266 372.903 601.266C378.339 601.266 380.042 597.583 380.777 584.236C381.654 568.328 381.071 566.302 374.515 562.46C368.433 558.896 365.332 558.533 363.363 561.156C362.61 562.16 359.369 563.23 356.161 563.535C352.953 563.839 349.839 564.391 349.242 564.76C347.377 565.913 341.664 562.523 341.654 560.257C341.654 559.07 341.224 558.099 340.712 558.099C337.709 558.099 336.347 546.848 339.069 544.532C339.468 544.193 340.52 542.623 341.407 541.044C342.712 538.72 342.72 537.812 341.453 536.285C340.168 534.737 340.246 534.136 341.884 532.938C342.983 532.135 344.152 529.836 344.484 527.83C346.162 517.661 348.475 515.429 359.732 513.117C361.88 512.675 363.94 511.526 364.31 510.562C364.68 509.598 367.224 508.451 369.963 508.013C372.703 507.575 374.944 506.813 374.944 506.321C374.944 504.453 381.648 498.299 383.283 498.665C384.224 498.876 385.689 498.471 386.54 497.765C387.491 496.976 389.473 496.874 391.69 497.5C393.672 498.06 395.889 498.313 396.617 498.062C397.344 497.811 399.287 500.314 400.933 503.624C404.067 509.922 408.502 512.812 413.165 511.593C414.555 511.229 415.644 511.549 415.644 512.321C415.644 513.079 417.032 513.698 418.728 513.698C420.423 513.698 421.811 514.253 421.811 514.932C421.811 515.61 422.643 516.165 423.661 516.165C424.678 516.165 425.511 516.72 425.511 517.398C425.511 518.077 426.236 518.632 427.122 518.632C428.291 518.632 428.677 520.659 428.528 526.024C428.39 530.996 428.877 533.876 430.016 534.821C431.292 535.881 431.365 536.639 430.314 537.906C429.26 539.175 429.382 540.292 430.809 542.471C432.53 545.097 432.488 545.828 430.338 550.628C429.04 553.529 427.978 557.228 427.978 558.85C427.978 560.649 427.256 561.799 426.128 561.799C425.11 561.799 424.278 562.593 424.278 563.564C424.278 564.851 422.948 565.246 419.362 565.021C416.659 564.852 414.069 564.335 413.607 563.873C413.145 563.41 411.749 563.032 410.505 563.032C409.025 563.032 408.244 562.131 408.244 560.424C408.244 557.935 408.105 557.906 405.204 559.807C403.532 560.902 401.439 561.799 400.552 561.799C399.665 561.799 396.87 563.504 394.342 565.589L389.744 569.378V580.925C389.744 595.508 390.658 597.91 397.202 600.528C400.053 601.669 402.169 602.819 401.904 603.084C401.196 603.792 373.36 604.688 371.553 604.061ZM400.7 553.257C399.93 555.581 397.288 559.265 394.83 561.444C392.372 563.623 389.911 565.427 389.36 565.452C388.072 565.512 389.68 554.254 391.239 552.294C391.891 551.476 392.104 550.29 391.714 549.659C390.875 548.301 394.39 545.067 395.5 546.176C395.919 546.596 395.49 547.924 394.545 549.127C392.983 551.117 393.023 551.162 394.986 549.623C396.592 548.363 397.568 548.282 398.8 549.304C399.71 550.059 400.825 550.307 401.278 549.854C401.73 549.402 401.47 550.933 400.7 553.257ZM391.736 542.413C391.319 541.996 390.978 542.339 390.978 543.176C390.978 544.137 390.068 544.409 388.511 543.915C386.258 543.2 386.044 543.694 386.044 549.624V556.116L389.27 549.644C391.044 546.084 392.154 542.83 391.736 542.413ZM374.944 544.156C374.944 541.037 379.215 541.605 381.012 544.965C381.866 546.559 382.376 549.1 382.146 550.611C381.735 553.309 381.666 553.294 378.336 549.803C376.471 547.847 374.944 545.306 374.944 544.156ZM380.44 558.94C379.412 554.844 374.078 549.465 371.044 549.465C368.826 549.465 368.81 549.658 370.721 553.474C373.265 558.555 378.951 564.283 380.254 563.076C380.801 562.57 380.884 560.708 380.44 558.94ZM367.226 554.224C368.057 553.393 369.072 553.049 369.483 553.459C369.893 553.87 370.041 555.067 369.812 556.12C369.514 557.483 368.865 557.703 367.554 556.884C366.103 555.977 366.033 555.416 367.226 554.224ZM405.778 554.164C405.778 550.909 402.807 551.978 402.301 555.414C402.007 557.414 402.395 557.9 403.843 557.344C404.907 556.936 405.778 555.505 405.778 554.164ZM383.616 543.299C384.273 543.299 384.811 544.131 384.811 545.149C384.811 546.166 384.593 546.999 384.326 546.999C384.06 546.999 383.522 546.166 383.132 545.149C382.741 544.131 382.959 543.299 383.616 543.299Z" fill="#159888"/>
<path d="M25.0446 545.504C25.0624 546.835 25.2062 564.432 25.3644 584.61H25.3705C25.5286 604.787 26.2576 621.296 26.9907 621.296C27.7236 621.296 28.3824 603.802 28.4549 582.42C28.5334 559.231 29.2276 542.902 30.175 541.955C32.0761 540.054 40.6245 545.079 39.2561 547.293C38.7678 548.083 40.5883 548.729 43.3014 548.729H48.2344L48.5627 562.84L48.8908 576.95L49.4403 563.294C49.973 550.04 51.1077 547.2 55.8945 547.141C57.4474 547.122 57.9104 555.328 57.9104 582.863C57.9104 602.523 58.4546 618.06 59.1198 617.389C59.785 616.719 60.3777 599.726 60.4369 579.628C60.5685 534.902 60.5632 534.984 63.1532 537.018C66.7291 539.827 75.6489 540.841 75.6489 538.439C75.6489 537.11 77.4127 536.357 80.2778 536.463C83.381 536.578 84.641 537.33 84.1012 538.743C83.6581 539.903 82.3008 540.47 81.0849 540.003C79.8689 539.537 78.874 539.858 78.874 540.717C78.874 541.576 80.3254 542.279 82.0993 542.279C85.229 542.279 85.3245 543.354 85.3245 578.658C85.3245 598.666 85.9463 614.652 86.7064 614.182C87.4664 613.712 88.1277 596.173 88.1761 575.205C88.2282 552.537 88.9056 536.44 89.8471 535.499C91.7892 533.557 100.271 538.662 98.869 540.929C97.3762 543.345 116.342 540.979 118.889 538.432C121.587 535.734 120.023 529.378 116.661 529.378C115.391 529.378 114.351 528.653 114.351 527.766C114.351 526.879 112.943 526.153 111.221 526.153C109.5 526.153 107.673 525.476 107.162 524.649C106.65 523.822 103.999 523.209 101.269 523.286C98.5389 523.364 95.7283 522.494 95.0231 521.352C94.1391 519.922 91.9257 519.618 87.899 520.373C83.4829 521.202 81.8326 520.884 81.1372 519.072C80.6313 517.753 78.151 516.221 75.6256 515.666C73.1001 515.111 70.1558 513.599 69.0823 512.306C67.976 510.973 65.8322 510.366 64.133 510.906C62.4844 511.429 61.0893 511.264 61.0325 510.539C60.9759 509.814 60.6989 506.88 60.417 504.019C59.7635 497.39 62.8217 494.525 67.4596 497.422C69.3029 498.573 70.8111 500.435 70.8111 501.56C70.8111 503.092 73.1342 503.35 80.0835 502.586C91.7556 501.304 94.7171 498.908 92.0004 492.946C90.923 490.581 89.6364 489.052 89.1412 489.547C88.6459 490.042 85.7484 489.047 82.7021 487.336C79.6559 485.625 75.0084 484.226 72.3746 484.226C69.7408 484.226 67.586 483.578 67.586 482.785C67.586 480.59 62.5755 479.147 60.528 480.753C59.5318 481.534 55.437 482.151 51.4284 482.124C46.0939 482.089 42.2033 483.318 36.915 486.712C32.9412 489.262 29.4914 491.456 29.2488 491.587C27.6479 492.456 31.2903 496.67 34.9567 498.19C43.3324 501.664 48.2348 502.215 48.2348 499.684C48.2348 498.127 49.8543 497.388 53.0661 497.479C57.1817 497.596 57.6001 497.978 55.8882 500.053C54.2772 501.998 54.2784 502.625 55.8882 503.167C56.9969 503.54 57.9039 504.922 57.9039 506.239C57.9039 507.894 56.9145 508.318 54.6931 507.613C52.9272 507.052 50.5688 507.171 49.4522 507.876C48.3357 508.581 43.9997 509.238 39.8168 509.335C34.315 509.464 30.4123 510.76 25.7065 514.021C18.278 519.169 17.6992 521.422 22.8298 525.221L26.4581 527.908L22.0101 526.996C15.6682 525.697 -1.76221 534.236 -1.76221 538.643C-1.76221 541.036 4.66292 544.824 10.7353 546.011C14.6892 546.784 15.9764 546.468 15.9764 544.722C15.9764 543.183 17.4876 542.522 20.4945 542.747C23.2676 542.955 25.0253 544.02 25.0446 545.504Z" fill="#159888"/>
<path d="M48.1298 586.593C47.3414 589.236 47.1336 594.135 47.6683 597.478C49.1239 606.581 49.8573 604.848 49.7023 592.673C49.5876 583.662 49.3168 582.615 48.1298 586.593Z" fill="#159888"/>
<path d="M92.7095 538.419C91.305 538.958 90.1558 540.107 90.1558 540.973C90.1558 543.093 93.8209 541.766 94.6245 539.355C95.0172 538.177 94.28 537.816 92.7095 538.419Z" fill="#159888"/>
<path d="M65.9668 498.739C65.0799 498.739 64.3543 499.465 64.3543 500.351C64.3543 501.238 65.0799 501.964 65.9668 501.964C66.8538 501.964 67.5795 501.238 67.5795 500.351C67.5795 499.465 66.8538 498.739 65.9668 498.739Z" fill="#159888"/>
<path d="M254.317 579.691C253.612 581.689 253.035 584.245 253.035 585.37C253.035 587.104 253.463 587.417 255.836 587.416L258.637 587.416L258.584 575.135C258.525 561.635 259.195 556.287 261.71 550.198C264.116 544.369 263.746 543.065 261.223 548.484C260.048 551.009 258.627 555.566 258.066 558.611C257.505 561.656 256.77 564.147 256.432 564.147C256.095 564.147 255.184 563.179 254.408 561.995C253.086 559.976 253.107 559.629 254.74 556.427C255.698 554.549 256.482 552.268 256.482 551.359C256.482 550.45 257.064 548.314 257.775 546.613C258.486 544.911 259.041 543.021 259.007 542.414C258.974 541.806 258.658 542.044 258.305 542.943C257.743 544.375 257.43 544.182 255.78 541.386C254.744 539.63 253.852 537.343 253.797 536.304C253.714 534.744 253.626 534.689 253.29 535.991C253.065 536.859 253.659 539.379 254.608 541.593C256.172 545.239 256.316 548.133 255.121 551.934C254.883 552.69 253.994 552.167 252.502 550.394C250.763 548.327 250.09 546.316 249.579 541.659C249.214 538.331 248.678 535.372 248.389 535.083C248.1 534.794 247.864 535.058 247.864 535.669C247.864 536.547 247.557 536.532 246.393 535.597C245.319 534.732 245.451 535.281 246.886 537.632C247.966 539.402 248.714 541.729 248.548 542.803C248.265 544.631 248.151 544.581 246.772 542.016C245.961 540.509 244.488 539.019 243.499 538.706C240.812 537.853 240.375 538.971 243.004 539.97C244.255 540.446 245.279 541.172 245.279 541.585C245.279 541.997 246.83 544.734 248.726 547.668C252.384 553.328 252.721 554.62 251.251 557.365C250.471 558.823 250.12 558.913 248.966 557.956C246.882 556.226 241.29 548.415 240.616 546.294C239.828 543.809 234.976 540.878 231.654 540.878C230.197 540.878 228.788 540.526 228.523 540.097C228.257 539.667 227.362 539.492 226.533 539.707C225.704 539.922 224.265 539.54 223.334 538.858C221.896 537.802 221.815 537.41 222.794 536.231C223.426 535.469 224.351 534.845 224.848 534.845C225.345 534.845 226.497 534.166 227.408 533.337C228.873 532.003 231.436 531.396 245.279 529.107C246.938 528.832 248.761 528.234 249.331 527.777C250.502 526.838 254.002 527.688 254.961 529.144C255.353 529.738 255.6 529.511 255.607 528.548C255.619 527.111 255.769 527.094 257.536 528.332C259.757 529.888 263.377 530.12 263.377 528.707C263.377 528.011 263.691 528 264.497 528.669C265.113 529.18 267.255 529.86 269.256 530.18C273.779 530.903 274.677 532.111 271.207 532.805L268.581 533.33L270.504 534.816C273.239 536.929 277.488 537.585 279.398 536.188C280.634 535.284 280.761 534.768 279.979 533.825C279.191 532.876 279.352 532.385 280.737 531.521C282.095 530.673 282.364 529.895 281.918 528.109C281.157 525.059 279.028 522.779 276.94 522.779C275.781 522.779 275.416 522.368 275.767 521.454C276.396 519.814 275.642 519.562 268.236 518.945C261.853 518.413 260.791 518.061 260.791 516.48C260.791 515.916 259.725 515.401 258.421 515.337C257.118 515.272 253.821 514.852 251.096 514.404C248.37 513.955 246.14 513.814 246.14 514.09C246.14 514.366 244.149 514.582 241.716 514.57C239.282 514.558 235.889 515.037 234.175 515.635C232.461 516.232 230.485 516.727 229.785 516.733C229.084 516.741 227.093 518.298 225.359 520.194C223.441 522.292 221.437 523.641 220.237 523.641C217.842 523.641 215.114 525.951 215.114 527.978C215.114 528.795 214.537 529.942 213.831 530.528C213.125 531.114 212.734 531.894 212.962 532.262C213.466 533.078 208.148 535.699 205.935 535.726C205.01 535.737 206.276 536.872 208.955 538.434C212.445 540.468 213.733 540.857 214.244 540.03C215.132 538.593 221.285 538.396 221.772 539.788C222.114 540.766 220.631 541.67 216.568 542.956C215.709 543.228 215.244 543.838 215.536 544.31C215.857 544.83 217.814 544.285 220.479 542.934C224.477 540.908 225.218 540.794 228.405 541.711C230.338 542.267 232.89 542.986 234.075 543.308C235.525 543.703 237.838 546.327 241.152 551.337C243.86 555.431 247.653 560.029 249.581 561.557C251.509 563.084 253.657 565.435 254.354 566.783C255.794 569.569 256.055 573.135 254.759 572.335C253.665 571.659 253.661 572.438 254.748 574.469C255.343 575.581 255.214 577.148 254.317 579.691Z" fill="#159888"/>
<path d="M265.504 536.832C264.264 538.242 263.419 540.219 263.477 541.572C263.554 543.368 263.672 543.504 263.997 542.171C264.228 541.222 264.959 539.834 265.622 539.084C266.285 538.335 266.569 537.462 266.252 537.145C265.935 536.828 266.128 536.569 266.681 536.569C267.234 536.569 267.674 536.084 267.659 535.491C267.644 534.899 266.674 535.502 265.504 536.832Z" fill="#159888"/>
<path d="M260.992 533.47C259.934 534.373 259.093 535.925 259.123 536.918C259.172 538.564 259.251 538.538 260.019 536.615C260.482 535.456 261.324 533.904 261.889 533.168C262.463 532.419 262.068 532.553 260.992 533.47Z" fill="#159888"/>
<path d="M231.562 536.3C232.469 536.063 233.418 536.203 233.671 536.612C234.178 537.433 236.239 536.857 238.674 535.214C240.211 534.178 240.211 534.133 238.674 533.685C236.944 533.179 233.043 532.887 229.951 533.03C228.226 533.11 228.101 533.345 228.947 534.926C229.583 536.114 230.477 536.584 231.562 536.3Z" fill="#159888"/>
<path d="M249.297 531.182C249.058 530.59 248.862 531.074 248.862 532.259C248.862 533.444 249.058 533.929 249.297 533.337C249.536 532.744 249.536 531.775 249.297 531.182Z" fill="#159888"/>
<path d="M-332.942 557.489L-446.488 493.613C-452.272 490.359 -459.419 494.539 -459.419 501.175V843.324C-459.419 848.116 -455.534 852 -450.742 852H843.742C848.534 852 852.419 848.116 852.419 843.324V471.721C852.419 465.211 845.517 461.02 839.741 464.022L774.565 497.901L710.995 540.386C710.13 540.964 709.168 541.382 708.155 541.619L638.651 557.918C636.756 558.362 635.065 559.431 633.851 560.953L596.09 608.271C594.868 609.801 593.165 610.874 591.257 611.313L558.818 618.789C557.347 619.128 555.991 619.844 554.882 620.868L513.956 658.639C512.173 660.284 509.784 661.108 507.366 660.911L355.846 648.562C353.145 648.341 350.496 649.396 348.685 651.413L323.003 680.019C321.357 681.852 319.01 682.899 316.547 682.899H284.829C281.252 682.899 278.041 685.095 276.744 688.43L264.178 720.728C262.881 724.062 259.67 726.258 256.092 726.258H208.484C207.849 726.258 207.217 726.328 206.597 726.466L173.717 733.791C170.572 734.491 167.297 733.391 165.213 730.933L127.084 685.964C125.435 684.02 123.015 682.899 120.466 682.899H106.773C104.8 682.899 102.885 682.226 101.345 680.992L43.6919 634.755C40.7942 632.431 36.7387 632.21 33.6051 634.204L13.0854 647.265C12.1031 647.89 11.005 648.311 9.85654 648.503L-65.0518 661.018C-65.8513 661.152 -66.6282 661.397 -67.3597 661.746L-111.672 682.899L-137.129 693.533C-140.533 694.955 -144.464 694.068 -146.929 691.323L-173.955 661.22L-201.204 630.869L-229.347 589.98C-230.449 588.379 -232.056 587.195 -233.911 586.617L-262.561 577.681C-263.176 577.489 -263.768 577.229 -264.326 576.906L-293.909 559.772C-295.23 559.007 -296.73 558.604 -298.257 558.604H-328.688C-330.178 558.604 -331.643 558.22 -332.942 557.489Z" fill="#34A591"/>
<path d="M32.9549 801.028C33.1252 803.229 33.6603 805.479 33.3928 807.62C31.6536 821.497 38.4279 829.901 50.6265 834.948C50.809 835.021 51.0644 835.07 51.1617 835.216C57.6076 844.41 67.6901 846.21 77.6388 848.29C77.5658 850.029 79.2441 850.686 79.9009 851.963H-459.419C-458.275 849.677 -458.847 847.22 -458.823 844.836C-458.64 827.76 -458.519 810.685 -458.385 793.621C-455.417 793.037 -452.498 792.405 -449.409 792.417C-428.575 792.502 -407.741 792.454 -386.908 792.466C-385.29 792.466 -383.6 792.32 -382.079 792.721C-371.887 795.433 -361.963 800.274 -351.041 795.093C-348.889 794.071 -345.848 794.898 -343.221 794.947C-330.427 795.202 -317.656 800.614 -304.789 795.032C-303.281 794.375 -301.164 794.85 -299.389 795.117C-285.633 797.197 -271.829 798.62 -257.891 798.547C-238.067 798.437 -218.243 798.595 -198.418 798.474C-191.413 798.437 -184.724 798.997 -178.959 803.57C-177.049 805.078 -174.739 804.616 -172.525 804.275C-163.294 802.828 -154.087 803.716 -144.82 804.02C-137.486 804.263 -130.067 804.591 -122.684 804.251C-118.136 804.032 -113.161 802.451 -109.111 803.752C-96.1709 807.924 -83.133 805.808 -70.1438 805.71C-61.6425 805.649 -53.2019 807.17 -44.7857 806.829C-34.9951 806.428 -25.2533 806.756 -15.4992 807.097C-11.5222 807.231 -7.55728 809.906 -3.61673 806.963C-2.97214 807.45 -2.38837 808.216 -1.68295 808.362C7.06165 810.113 16.013 811.062 23.2617 817.301C25.2076 818.979 26.3265 816.887 26.509 814.759C26.8008 811.378 27.1657 807.997 27.5063 804.616C30.6076 805.345 31.0454 802.062 32.9549 800.991V801.028Z" fill="#125348"/>
<path d="M274.241 851.988C277.245 845.481 282.45 841.869 289.48 842.343C297.872 842.915 304.683 840.969 310.873 834.863C314.802 830.996 320.494 829.111 325.955 827.493C328.46 826.751 330.917 825.839 333.337 824.854C336.353 823.625 336.73 822.032 333.532 820.536C331.391 819.539 330.272 817.35 332.923 817.143C339.357 816.669 335.453 812.935 335.441 809.919C339.138 810.794 343.188 815.489 345.438 808.52C348.807 815.246 349.16 815.343 353.818 809.761C357.406 805.467 362.636 803.4 366.673 799.751C373.533 799.763 379.93 803.424 386.984 802.257C389.575 801.831 392.202 802.342 394.719 803.278C400.399 805.394 406.346 805.248 412.075 804.093C425.514 801.393 438.905 801.6 452.405 803.266C461.806 804.421 471.195 805.735 480.682 803.606C482.932 803.096 485.729 803.205 487.833 804.093C496.748 807.827 506.04 807.097 515.295 807.036C522.203 806.988 529.014 806.915 535.107 811.038C537.199 812.448 539.839 812.169 542.21 811.706C553.168 809.566 564.26 811.05 575.23 811.123C583.562 811.171 592.136 811.415 600.345 811.22C614.052 810.892 627.808 810.673 641.502 810.904C653.956 811.111 666.459 811.512 678.876 812.996C686.831 813.944 694.626 817.07 702.824 815.319C709.44 813.908 715.971 814.674 722.636 815.075C727.586 815.379 730.663 819.624 735.601 819.259C755.316 817.824 774.909 820.938 794.648 820.792C813.536 820.646 832.546 820.877 851.421 822.871C852.771 832.552 850.813 842.331 852.419 852H274.241V851.988Z" fill="#125348"/>
<path d="M851.36 452.85C852.09 455.963 851.992 459.077 851.408 462.19C850.119 463.03 850.265 463.857 851.433 464.684C851.542 466.544 851.652 468.393 851.761 470.254C848.234 471.421 850.217 472.48 851.822 473.55C851.712 478.634 851.591 483.73 851.481 488.813C849.025 487.938 842.931 492.34 845.206 484.496C845.267 484.277 844.403 483.474 844.014 483.511C841.362 483.766 838.468 484.338 837.385 486.916C836.534 488.935 837.823 491.112 839.587 492.62C843.284 495.77 847.419 494.907 851.567 493.848C851.53 496.184 851.494 498.519 851.457 500.842C846.714 502.496 841.691 498.081 836.412 501.571C841.204 505.111 845.242 509.063 851.567 507.215C852.053 518.501 851.98 529.8 851.372 541.074C841.91 538.605 837.398 548.092 829.748 550.099C828.495 550.427 828.179 552.336 828.167 553.796C828.142 557.213 828.13 560.631 828.118 564.049C828.106 567.576 829.796 568.354 832.703 566.749C834.625 565.69 836.498 564.511 838.249 563.185C842.177 560.23 846.373 558.089 851.433 558.223C851.554 559.828 851.798 561.434 851.798 563.039C851.798 633.045 851.798 703.05 851.773 773.056C851.773 774.661 851.53 776.266 851.396 777.86C843.321 777.045 835.148 776.777 827.206 775.245C821.879 774.211 816.758 776.789 811.638 775.026C805.788 773.007 799.756 772.922 793.663 773.043C782.619 773.274 771.698 771.426 760.654 771.037C745.926 770.501 731.112 770.027 716.591 771.219C705.852 772.107 695.331 770.733 684.726 771.012C673.561 771.304 662.153 768.726 650.806 767.96C640.784 767.278 630.774 766.33 620.716 767.485C605.234 769.273 589.691 768.178 574.208 767.716C565.865 767.461 557.753 764.481 549.154 764.201C543.73 764.031 538.16 766.074 533.015 764.189C526.095 761.647 519.041 762.681 512.035 762.049C499.168 760.893 486.531 764.761 473.676 763.411C469.881 763.01 466.038 763.107 462.438 765.065C459.665 766.573 457.257 765.43 455.7 762.876C454.095 760.237 451.869 758.728 448.828 758.546C443.659 758.23 439.196 755.992 434.781 753.596C429.6 741.945 419.116 736.678 408.304 731.911C406.99 731.327 403.962 731.473 403.743 732.045C401.992 736.703 396.799 735.949 393.953 738.71C391.058 741.519 387.689 742.005 383.858 741.045C379.905 740.06 376.147 739.719 372.207 742.018C368.74 744.037 364.739 742.857 360.993 741.859C357.867 741.032 358.804 739.476 360.458 738.187C363.985 735.414 367.658 732.823 371.27 730.147C371.976 729.782 372.681 729.381 373.411 729.041C374.493 728.518 375.624 728.068 376.695 727.508C380.489 725.55 381.657 722.911 379.127 722.218C375.503 721.22 373.897 724.638 371.367 726.061C369.093 725.331 367.001 725.903 364.994 726.985C363.535 727.764 361.93 728.7 360.689 726.985C358.901 724.504 356.785 724.759 354.28 725.465C352.455 725.988 350.217 725.538 349.208 724.188C345.669 719.481 343.078 719.676 339.831 724.638C337.885 727.618 334.09 726.997 330.867 726.645C329.432 726.487 329.007 725.404 328.824 724.091C328.386 721.099 333.677 710.311 336.596 710.055C344.319 709.399 350.801 705.118 358.159 703.597C359.911 705.361 360.762 704.047 361.577 702.612C362.866 702.551 364.155 702.491 365.445 702.43C367.488 704.364 369.008 703.172 370.467 701.591C373.24 701.87 375.405 700.496 377.509 698.976C378.944 698.769 379.431 698.003 379.151 696.555C378.58 693.636 380.623 694.026 382.386 694.099C382.386 695.364 382.386 696.616 382.386 698.331C383.761 696.519 383.08 695.327 382.338 694.135L383.323 691.605C384.77 691.119 385.488 689.878 386.315 688.735C388.127 686.242 392.408 683.481 389.878 680.866C387.884 678.823 384.831 683.031 382.411 684.758C381.511 684.685 380.611 684.624 379.711 684.551C379.577 683.712 379.455 682.861 379.322 682.022C379.419 680.793 379.516 679.577 379.613 678.349C382.058 675.697 380.416 674.469 377.923 674.98C375.478 675.478 372.413 674.481 371.088 675.284C367.999 677.132 363.863 674.676 361.565 678.142C359.254 680.963 355.994 683.019 354.62 686.607C354.486 686.777 354.365 686.935 354.231 687.093C350.959 686.582 347.846 687.361 344.72 688.151C344.148 687.993 343.565 687.823 342.993 687.665C340.366 685.196 336.134 684.138 335.89 679.577C335.562 674.676 341.801 674.53 342.762 669.993C337.69 670.431 335.659 667.999 336.194 663.255C336.45 660.932 334.978 660.288 332.996 659.777C329.603 658.901 326.319 658.476 323.035 660.081C319.143 661.991 316.942 660.665 316.224 656.505C319.459 653.039 322.086 647.493 327.839 649.768C330.734 650.911 333.373 651.227 336.231 651.434C336.717 651.896 337.192 652.37 337.678 652.832C337.958 656.286 341.047 657.247 343.358 658.281C346.812 659.826 346.204 657.272 345.596 655.216C346.532 654.778 347.481 654.34 348.417 653.903C348.965 653.599 349.5 653.295 350.047 652.99C352.771 652.857 354.62 654.754 356.785 655.922C359.546 662.136 364.836 659.132 369.689 659.886C363.681 652.577 363.839 651.799 371.805 648.077C373.167 647.432 374.53 646.946 374.299 645.182C374.092 643.601 372.79 642.385 371.44 642.446C366.405 642.689 361.504 636.705 356.153 642.58C354.499 644.392 350.801 643.832 348.028 642.592C346.654 641.972 345.292 640.549 343.638 642.105C342.75 642.105 341.874 642.13 340.986 642.142C338.98 640.415 337.228 640.305 335.915 642.957C335.234 643.589 334.54 644.222 333.859 644.854C331.111 644.234 328.362 643.613 325.613 643.005C324.081 642.665 323.023 641.814 322.865 640.208C322.463 636.231 329.712 629.834 333.944 630.405C340.84 631.33 341.57 630.442 339.113 623.972C338.566 622.536 336.754 621.126 338.25 619.654C339.807 618.122 342.105 618.401 343.978 619.155C345.632 619.812 347.128 620.967 348.563 622.074C351.154 624.057 352.699 623.826 352.443 620.238C352.334 618.645 352.236 617.112 354.134 617.124C355.654 617.136 357.527 617.599 358.597 618.572C359.607 619.496 358.171 620.688 357.393 621.563C356.08 623.035 355.8 624.774 355.897 626.647C356.007 628.776 356.505 630.734 358.694 631.597C359.315 631.84 360.604 631.731 360.847 631.342C362.124 629.25 358.67 628.654 359.193 626.672C364.07 624.081 364.022 629.213 366.04 631.062C366.892 631.84 367.244 633.397 368.753 633.057C370.407 632.692 370.869 631.208 370.857 629.761C370.808 625.808 372.499 621.527 367.78 618.049C369.628 617.89 370.419 617.866 371.185 617.745C376.159 616.954 380.684 619.557 382.666 622.913C384.551 626.112 377.972 625.273 376.986 628.265C376.926 628.435 376.731 628.581 376.573 628.703C370.93 632.874 376.658 635.659 378.422 637.861C380.124 639.989 383.7 639.904 386.023 636.876C387.701 634.686 388.699 632.449 388.419 629.651C387.981 625.382 391.642 623.047 394.257 623.242C401.092 623.741 408.146 624.92 412.913 630.94C412.986 631.767 413.059 632.595 413.12 633.409C412.926 635.003 411.223 636.535 412.926 638.213C412.926 639.065 412.926 639.916 412.938 640.768C408.912 645.097 405.981 650.741 399.377 651.957C399.024 652.018 398.55 652.346 398.44 652.662C396.543 657.941 392.493 656.992 388.467 656.177C387.531 653.185 385.001 654.268 382.982 654.024C379.99 653.672 378.385 655.265 378.178 657.977C377.899 661.638 381.462 658.67 382.52 660.227C382.812 662.866 384.053 663.961 386.509 662.404C388.394 661.212 390.231 660.13 392.542 660.02C397.577 659.789 401.554 657.393 404.923 653.818C409.301 649.172 412.026 649.257 415.394 654.912C417.547 658.524 417.876 654.961 419.007 654.462C419.712 654.462 420.43 654.462 421.135 654.462C422.242 655.496 423.592 655.313 424.93 655.204C427.095 655.739 428.299 656.943 428.773 659.278C429.235 661.577 431.935 663.061 433.346 661.954C439.22 657.357 443.586 663.073 448.597 663.766C450.884 664.082 451.091 665.895 448.731 667.488C445.678 669.543 442.82 671.903 440.047 674.311C439.245 675.004 438.247 676.257 439.038 677.509C439.767 678.665 441.239 678.665 442.346 678.239C447.345 676.318 453.17 675.332 454.082 668.473C454.277 667.026 454.8 665.238 456.491 665.639C458.668 666.162 458.023 668.181 457.366 669.568C456.284 671.878 456.88 673.423 458.972 674.603C460.249 676.5 460.249 678.677 460.322 680.842C457.986 682.569 455.761 683.311 452.586 682.435C449.473 681.572 446.153 682.557 443.197 686.047C446.785 686.376 450.361 685.622 452.063 687.057C457.196 691.399 458.814 686.874 461.355 684.259C468.215 683.043 474.709 686.692 481.97 685.22C485.412 684.527 495.361 682.046 493.658 692.943C493.549 693.661 494.728 694.585 495.3 695.412C495.714 695.838 496.115 696.264 496.528 696.677C497.234 697.419 497.939 698.149 498.645 698.891C498.158 699.803 498.268 700.63 498.949 701.396C499.691 706.504 502.439 708.401 507.438 706.674C513.373 706.93 518.822 709.082 524.368 710.895C527.25 711.831 529.537 714.081 528.904 716.465C527.359 722.266 531.264 720.637 533.939 720.868C536.749 721.111 538.901 719.372 541.297 718.362C544.812 716.878 546.004 715.309 542.088 712.755C540.507 711.722 537.697 710.664 538.792 708.426C539.777 706.431 542.428 707.818 544.374 707.988C544.727 708.024 545.104 707.781 545.554 707.635C545.554 707.076 545.384 706.443 545.578 705.957C546.32 704.084 539.376 698.051 548.497 700.557C550.03 700.982 549.993 698.951 549.92 697.845C549.507 692.007 549.093 686.169 548.497 680.343C548.169 677.169 543.474 676.281 543.316 676.609C540.641 682.143 536.153 677.035 532.978 678.592C531.349 678.568 529.731 678.531 528.101 678.507L524.587 678.616C521.692 678.458 518.834 680.441 515.866 678.92C515.769 677.278 517.922 676.707 517.228 674.542H511.439C517.532 666.491 525.304 662.745 535.788 665.846C532.297 662.039 527.615 663.134 523.662 661.577C525.037 657.904 528.649 659.424 531.701 657.758C527.043 655.642 523.297 653.939 518.396 651.713C522.665 650.181 525.876 650.668 529.001 650.509C530.935 650.412 533.307 650.959 532.334 647.359C531.531 644.392 533.368 644.368 535.447 645.413C537.235 646.313 538.987 647.299 541.03 648.393C542.161 647.141 540.422 642.227 544.8 645C546.272 640.427 549.957 644.428 552.669 643.334C555.138 642.336 561.73 642.859 559.796 649.913C559.407 651.324 558.932 653.282 562.496 652.613C564.515 652.236 568.942 651.446 570.17 654.182C571.374 656.858 568.237 659.132 566.704 661.468C565.646 663.061 563.81 664.301 563.992 667.147C569.076 665.566 573.953 663.693 579.195 663.754C577.601 668.436 571.095 666.965 569.1 671.927C574.147 672.401 579.207 672.365 583.95 676.731C576.799 677.509 570.487 676.232 564.576 678.446C560.927 679.82 556.597 679.772 555.077 684.77C552.851 692.141 556.67 697.942 559.382 704.072C559.528 704.4 560.489 704.595 561 704.485C563.201 703.987 565.755 700.97 567.434 703.573C568.857 705.787 564.624 707.051 564.211 709.459C564.162 709.739 564.539 710.092 564.953 710.846C567.008 709.618 569.112 708.474 571.095 707.149C581.858 699.973 592.61 692.785 603.3 685.512C605.891 683.749 609.868 683.019 610.354 679.407C610.877 675.442 606.365 676.208 604.419 674.469C604.273 674.335 604.091 674.213 603.981 674.055C598.63 666.807 590.116 664.386 582.77 660.191C583.488 655.228 589.046 656.7 591.284 653.781C598.52 651.628 604.03 659.169 612.008 657.722C607.922 652.784 602.826 649.318 602.497 642.896C602.473 642.482 600.807 642.142 599.907 641.777C599.907 639.843 596.38 638.967 598.107 636.717C599.445 634.99 601.731 635.599 603.665 635.708C606.037 635.842 608.396 635.915 610.695 635.136C619.014 641.777 624.912 650.072 626.822 660.714C629.388 659.959 629.753 658.451 630.288 657.235C632.976 651.142 635.578 645 638.206 638.87C638.741 637.618 638.911 635.854 640.82 636.109C642.45 636.316 642.924 637.897 643.387 639.211C644.262 641.704 643.447 643.893 642.17 646.107C640.979 648.186 640.054 650.436 639.203 652.686C638.68 654.061 638.996 656.518 640.407 655.995C646.342 653.793 652.034 654.584 657.872 656.019C658.468 656.165 659.696 655.046 660.158 654.243C664.999 645.912 673.841 642.507 681.077 637.143C685.103 634.163 688.934 630.77 694.018 629.566C695.842 629.822 697.63 630.004 698.214 627.608C700.61 627.45 703.006 627.28 705.389 627.122C707.068 629.019 707.566 627.803 707.919 626.173C719.364 618.754 733.01 614.509 741.633 602.98C744.321 602.992 745.537 601.654 745.318 598.978C747.458 594.466 751.484 591.681 754.987 588.409C756.653 588.47 757.565 587.68 757.65 585.989C758.818 584.311 760.143 582.827 762.248 582.316C763.914 582.401 764.826 581.611 764.984 579.957C767.015 577.901 769.083 575.882 771.989 575.067C772.5 574.703 772.999 574.338 773.51 573.973C774.726 573.559 775.93 573.146 777.146 572.732C778.35 574.155 779.579 574.167 780.807 572.757C782.558 573.158 784.298 573.62 786.061 573.973C795.195 575.749 804.341 575.846 813.475 573.924C821.68 571.986 825.779 566.894 825.771 558.649C825.771 557.444 825.831 556.228 825.746 555.024C825.613 553.115 826.342 550.67 823.679 549.977C821.514 549.405 819.215 549.381 817.646 551.509C816.88 552.543 815.944 553.188 814.679 553.358C810.993 550.938 806.469 553.358 802.371 551.278C805.788 548.809 809.048 546.608 812.137 544.2C813.937 542.789 813.985 539.955 811.699 540.454C807.856 541.305 803.185 541.767 800.534 545.124C796.679 550.013 789.698 551.972 784.784 548.165C781.16 545.355 777.754 545.258 773.522 546.036C770.493 546.584 766.808 549.211 764.23 545.903C777.633 532.086 797.044 533.753 814.472 526.48C793.687 518.355 776.757 530.432 758.307 532.038C759.402 530.785 761.238 529.471 761.031 528.803C758.964 522.247 763.111 524.546 766.164 524.935C768.706 525.251 772.099 526.151 773.035 522.977C773.911 519.985 775.833 519.657 778.058 518.671C780.685 517.504 783.349 516.823 786.11 516.251C787.289 516.008 788.481 515.084 788.469 513.782C788.445 512.067 786.84 512.286 785.721 512.311C779.871 512.396 774.033 512.007 768.171 512.846C763.804 513.466 759.316 513.271 754.877 513.369C753.625 513.393 752.262 513.113 752.019 511.678C751.764 510.097 753.114 509.684 754.354 509.55C765.385 508.358 775.565 502.921 786.961 503.311C789.503 503.396 792.835 505.986 794.745 502.727C796.387 499.93 790.865 500.075 791.631 497.144C792.495 494.992 792.373 494.603 789.892 494.384C783.227 493.788 776.769 494.736 770.566 497.303C767.842 497.692 764.911 498.665 765.568 493.836C765.738 492.559 763.938 492.535 762.746 492.693C760.739 492.353 758.198 493.155 757.334 490.309C756.41 487.232 760.119 488.23 760.764 486.527C760.898 486.174 760.91 485.761 760.971 485.384C763.889 484.021 766.772 485.42 769.679 485.517C774.762 490.577 781.573 488.728 787.618 489.908C788.177 490.017 789.211 489.397 789.515 488.85C790.184 487.609 788.931 487.366 788.177 486.758C784.565 483.802 780.016 482.708 776.027 480.494C774.434 478.293 775.65 475.119 774.41 473.355C771.029 468.539 774.86 469.804 777.134 469.573C781.245 469.463 785.198 469.038 788.81 472.285C790.598 473.902 794.477 475.97 796.277 473.477C797.895 471.239 794.161 469.463 792.568 467.615C792.191 467.177 791.984 466.593 791.704 466.07C792.288 463.139 794.1 463.82 796.168 464.331C798.844 464.988 800.765 467.42 803.696 467.347C807.552 470.157 813.742 467.87 817.269 462.324C818.048 461.777 818.826 461.23 819.604 460.682C822.572 460.998 823.74 458.311 825.722 456.985C832.995 455.44 840.706 455.963 847.529 452.351C848.83 452.546 850.119 452.728 851.421 452.923L851.36 452.85ZM422.984 730.403C424.443 731.765 425.866 733.176 427.386 734.477C428.42 735.365 429.588 735.365 430.646 734.477C431.631 733.65 432.422 732.3 431.74 731.327C429.965 728.797 428.627 725.514 425.319 724.699C423.118 724.151 420.15 723.762 420.576 727.824C418.289 726.56 416.003 725.282 413.449 723.872C413.449 725.732 413.217 727.119 413.497 728.396C414.373 732.47 418.374 732.653 421.244 733.674C423.64 734.526 422.935 731.85 423.008 730.427L422.984 730.403ZM439.536 743.866C441.653 745.387 443.939 746.737 445.861 748.476C449.4 751.674 451.322 747.88 453.718 746.737C455.238 746.007 457.159 744.219 455.566 742.419C453.949 740.582 451.893 738.466 448.78 739.573C448.013 739.841 447.247 740.096 446.481 740.351C446.311 738.77 446.578 736.946 444.328 736.532C443.976 736.399 443.611 736.399 443.258 736.532C442.735 734.295 444.255 733.2 445.788 732.215C450.361 729.247 448.828 724.832 446.566 722.327C443.222 718.642 442.905 724.151 441.422 725.441C435.705 730.342 435.949 732.58 441.859 736.654C439.245 736.399 438.053 737.773 437.822 740.218C436.861 740.339 435.255 740.315 435.377 741.324C435.657 743.501 437.736 743.635 439.512 743.891L439.536 743.866ZM847.48 518.878C843.406 517.37 840.207 512.846 836.412 515.765C834.175 517.48 833.639 523.159 835.683 525.142C838.748 528.109 843.162 526.455 847.188 524.266C845.072 522.369 842.226 522.43 841.144 520.082C843.102 518.586 844.926 521.019 847.492 518.878H847.48ZM784.808 479.959C790.172 482.489 795.73 484.07 801.799 482.708C802.553 482.538 803.49 482.586 803.66 481.565C803.867 480.3 802.954 479.911 801.994 479.497C796.35 477.04 790.683 477.186 784.808 479.959ZM393.381 666.685C401.797 668.668 406.93 664.812 411.709 660.008C405.531 661.2 398.793 660.835 393.381 666.685ZM436.265 686.084C434.72 688.443 437.262 689.453 436.666 691.131C435.62 694.062 437.761 694.865 439.828 694.841C442.127 694.816 444.34 693.442 444.912 691.228C445.581 688.613 442.991 688.832 441.361 688.285C439.695 687.714 438.113 686.899 436.265 686.096V686.084ZM407.112 716.222C404.911 713.546 404.181 710.128 402.04 707.562C401.311 706.686 400.35 705.434 399.085 706.322C398.489 706.747 398.416 708.073 398.307 709.009C397.54 715.443 403.974 713.862 407.112 716.222ZM829.894 499.93C827.619 497.217 824.712 497.85 822.268 497.12C820.529 496.597 818.887 496.925 818.802 499.151C818.729 501.061 820.03 502.192 821.854 502.167C824.567 502.143 827.498 502.642 829.894 499.93ZM414.835 707.112C414.701 705.105 414.543 701.895 412.026 702.211C409.301 702.564 410.736 706.358 409.666 708.462C408.754 710.238 410.068 711.77 411.953 711.758C414.811 711.746 414.64 709.326 414.835 707.1V707.112ZM824.323 522.892C826.513 520.776 831.158 523.561 832.642 519.365C833.25 517.662 831.548 516.896 829.991 517.2C826.731 517.82 823.35 518.611 821.636 521.785C821.173 522.648 822.961 522.807 824.323 522.892ZM514.188 717.742C511.95 716.258 510.43 715.018 508.703 714.178C507 713.339 505.164 713.485 503.741 714.957C503.011 715.711 502.695 716.732 503.509 717.632C504.653 718.897 506.1 719.432 507.815 719.08C509.676 718.703 511.524 718.301 514.188 717.754V717.742ZM413.899 672.839C415.65 672.219 416.854 671.197 417 669.458C417.17 667.415 416.015 665.98 414.154 665.457C412.427 664.97 411.296 666.162 411.697 667.755C412.135 669.507 412.026 671.696 413.911 672.839H413.899ZM816.771 500.89C816.163 499.443 815.202 497.959 813.183 497.813C811.589 497.692 811.261 498.944 811.346 500.197C811.492 502.289 812.757 503.396 814.812 503.444C816.223 503.481 816.977 502.69 816.771 500.89ZM806.579 501.815C808.038 502.034 808.476 501.134 808.573 500.124C808.731 498.507 808.695 496.865 806.518 496.585C805.46 496.451 804.292 496.816 804.511 498.008C804.766 499.443 804.913 501.194 806.579 501.815Z" fill="#094036"/>
<path d="M-458.384 793.646C-459.004 777.069 -459.15 760.492 -458.384 743.915C-451.792 744.912 -445.103 744.742 -438.535 745.398C-434.352 745.812 -429.973 744.134 -426.106 746.019C-419.854 749.071 -412.691 743.124 -406.743 748.244C-406.525 748.439 -405.527 748.025 -405.102 747.648C-401.319 744.401 -396.746 745.435 -392.38 745.058C-386.189 744.523 -380.437 747.113 -374.502 747.381C-351.916 748.427 -329.295 747.721 -306.697 748.111C-292.979 748.342 -278.98 747.77 -265.188 747.965C-256.747 748.086 -246.543 746.371 -240.158 755.384C-239.733 755.979 -238.261 756.028 -237.288 756.004C-231.864 755.894 -226.464 756.004 -220.772 758.266C-221.295 753.9 -221.051 750.057 -216.016 750.093C-209.376 750.129 -202.699 749.169 -196.107 750.859C-189.503 752.55 -182.935 754.994 -176.234 755.493C-167.708 756.125 -159.061 755.006 -150.474 754.873C-141.219 754.727 -141.292 754.836 -141.17 745.751C-141.109 740.862 -142.143 735.656 -137.862 731.74C-138.008 733.528 -138.045 735.34 -138.349 737.104C-139.577 744.219 -139.492 744.365 -132.413 743.647C-131.428 743.55 -130.249 742.966 -129.616 743.939C-128.813 745.167 -129.689 746.335 -130.589 747.101C-132.876 749.047 -134.919 751.09 -135.673 754.435C-134.238 754.617 -133.07 754.763 -131.903 754.934C-129.397 755.286 -125.688 754.775 -125.165 757.463C-124.666 760.005 -128.716 760.017 -130.431 761.574C-130.638 761.769 -130.553 762.267 -130.674 763.082C-127.026 763.082 -124.082 761.343 -121.054 759.932C-117.393 758.217 -113.562 757.317 -110.303 760.406C-103.772 766.609 -95.6837 768.421 -87.158 769.674C-76.7715 771.194 -66.2148 772.69 -57.4215 779.002C-53.8823 781.532 -50.2458 782.98 -46.1958 784.33C-40.808 786.13 -40.2728 783.77 -40.2971 779.574C-40.3336 773.323 -40.212 767.071 -40.1512 760.82C-38.8863 759.434 -39.2634 757.706 -39.1783 756.065C-35.4323 756.186 -32.8661 754.289 -30.9566 751.261C-18.5755 745.848 -6.03629 743.343 8.35156 750.75C6.52722 748.171 5.96774 747.381 5.39612 746.578C9.68936 745.143 14.5056 743.598 17.3029 748.281C19.638 752.185 22.5205 752.757 26.2664 752.404C29.9272 752.063 33.5029 752.696 36.9083 753.729C40.5691 754.848 43.4516 754.204 46.0664 751.601C49.9948 751.078 53.011 748.439 56.5381 747.004C63.58 744.158 70.6949 742.333 78.2111 745.192C71.3881 748.743 64.5651 752.294 57.7421 755.846C56.1854 756.466 54.3611 756.734 53.7651 758.752C55.3827 760.175 56.6232 758.898 57.9489 758.302C67.8246 757.621 77.1895 758.716 84.9003 766.561C70.2814 763.934 56.2705 766.098 42.5637 770.902C39.2678 768.567 37.0908 770.586 35.7529 773.177C33.807 776.911 32.3597 780.948 34.8043 785.157C34.6097 786.786 34.4029 788.416 34.2083 790.046C32.3232 790.897 32.1651 792.113 33.4786 793.621C33.5759 796.115 33.7827 798.62 32.8948 801.028C30.9854 802.098 30.5475 805.382 27.4461 804.652C25.6583 795.798 26.2178 786.567 23.2867 777.896C27.3854 772.131 26.0353 767.85 19.4313 765.709C14.4042 764.079 11.8948 765.79 11.9029 770.842C-2.46063 767.351 -16.7877 767.473 -31.0661 771.328C-30.8106 766.84 -26.1039 765.515 -23.9998 762.134C-32.7566 760.175 -34.058 761.805 -32.4161 771.936C-33.6566 777.665 -32.635 783.466 -33.0607 789.231C-33.4134 793.986 -31.139 796.443 -26.3106 795.993C-21.9566 795.592 -18.0525 796.407 -14.7566 799.423C-14.6593 800.98 -14.5742 802.548 -12.4458 800.894C-10.8039 801.15 -9.42953 801.904 -8.26196 803.071C-8.85791 803.521 -9.64847 803.898 -9.21063 804.884C-9.16199 805.005 -8.88223 805.127 -8.74844 805.09C-7.76331 804.859 -7.77551 804.02 -7.64172 803.254C-5.47687 803.619 -4.22415 804.957 -3.67685 807.012C-7.6174 809.955 -11.5822 807.279 -15.5593 807.146C-25.3134 806.805 -35.0553 806.489 -44.8458 806.878C-53.2499 807.219 -61.6904 805.698 -70.2039 805.759C-83.1931 805.857 -96.2432 807.973 -109.172 803.801C-113.222 802.5 -118.196 804.081 -122.745 804.3C-130.127 804.653 -137.546 804.312 -144.88 804.069C-154.147 803.765 -163.354 802.877 -172.585 804.324C-174.799 804.665 -177.122 805.127 -179.019 803.619C-184.784 799.046 -191.473 798.486 -198.478 798.523C-218.303 798.644 -238.127 798.486 -257.951 798.596C-271.901 798.669 -285.693 797.246 -299.449 795.166C-301.237 794.898 -303.341 794.424 -304.849 795.081C-317.716 800.663 -330.474 795.251 -343.281 794.996C-345.908 794.947 -348.949 794.12 -351.102 795.142C-362.035 800.323 -371.948 795.482 -382.139 792.77C-383.66 792.369 -385.35 792.515 -386.968 792.515C-407.802 792.502 -428.635 792.551 -449.469 792.466C-452.558 792.454 -455.477 793.074 -458.445 793.67L-458.384 793.646Z" fill="#0E4A40"/>
<path d="M434.819 753.596C439.234 755.992 443.697 758.242 448.866 758.546C451.907 758.728 454.133 760.224 455.738 762.876C457.295 765.43 459.703 766.561 462.476 765.065C466.076 763.107 469.919 763.009 473.714 763.411C486.569 764.761 499.206 760.893 512.073 762.049C519.066 762.681 526.12 761.635 533.053 764.189C538.198 766.086 543.768 764.031 549.192 764.201C557.791 764.469 565.903 767.461 574.246 767.716C589.729 768.178 605.272 769.273 620.754 767.485C630.825 766.33 640.822 767.278 650.844 767.959C662.203 768.726 673.599 771.304 684.764 771.012C695.369 770.745 705.89 772.107 716.629 771.219C731.15 770.015 745.964 770.501 760.692 771.036C771.736 771.438 782.657 773.274 793.7 773.043C799.781 772.922 805.826 773.007 811.676 775.026C816.796 776.789 821.917 774.211 827.244 775.245C835.173 776.777 843.359 777.057 851.434 777.859C852.164 792.855 852.079 807.851 851.434 822.847C832.559 820.865 813.549 820.622 794.661 820.768C774.922 820.926 755.329 817.812 735.614 819.235C730.676 819.588 727.599 815.355 722.649 815.051C715.984 814.638 709.453 813.884 702.837 815.295C694.64 817.046 686.844 813.92 678.889 812.972C666.46 811.488 653.957 811.099 641.515 810.88C627.821 810.649 614.077 810.88 600.358 811.196C592.149 811.391 583.575 811.159 575.243 811.099C564.273 811.026 553.193 809.542 542.223 811.683C539.852 812.145 537.2 812.424 535.12 811.014C529.027 806.891 522.216 806.964 515.308 807.012C506.065 807.085 496.761 807.815 487.846 804.069C485.742 803.181 482.957 803.072 480.695 803.582C471.208 805.723 461.807 804.41 452.418 803.242C438.93 801.576 425.527 801.369 412.088 804.069C406.36 805.224 400.412 805.358 394.732 803.254C392.203 802.318 389.588 801.795 386.997 802.232C379.943 803.4 373.558 799.739 366.686 799.727C366.711 798.937 366.735 798.134 366.759 797.343C367.976 797.319 369.204 797.343 370.165 796.395C374.92 793.05 379.664 789.681 384.431 786.349C385.307 785.741 386.158 785.132 385.501 783.965C384.918 782.931 383.762 782.834 382.826 783.101C378.581 784.281 373.996 784.597 370.469 787.711C367.526 787.687 366.942 784.682 365.02 783.442C362.77 781.982 359.839 779.635 359.268 785.011C354.135 785.011 349.064 783.478 343.846 784.974C341.097 785.765 342.387 779.964 338.762 781.095C339.48 780 340.112 778.832 340.927 777.811C341.778 776.728 342.8 775.768 343.736 774.746C346.765 774.491 349.793 774.235 354.318 773.858C351.131 772.605 349.38 771.912 347.908 771.341C347.482 768.653 351.022 770.295 350.718 767.996C348.978 766.476 346.972 765.722 344.685 765.746C344.673 764.931 344.649 764.104 344.636 763.289C345.038 763.192 345.451 763.095 345.853 762.997C348.528 762.839 353.162 764.664 353.454 762.122C354.013 757.378 355.655 759.118 357.857 760.163C358.915 760.662 359.742 760.382 360.508 759.507C363.95 755.542 368.596 760.066 372.427 757.877C373.254 757.403 373.959 759.081 373.789 760.066C372.974 764.858 376.088 765.32 379.469 765.089C383.397 764.834 382.351 766.755 381.196 768.665C379.797 770.976 378.204 773.177 376.477 775.743C380.211 776.303 382.826 772.557 386.45 774.892C384.565 776.887 381.33 777.191 380.357 779.428C389.673 783.673 396.289 778.322 403.112 773.664C404.949 772.411 406.895 771.316 408.658 769.966C415.578 764.639 422.547 759.409 431.608 758.436C434.843 758.084 434.624 755.761 434.831 753.572L434.819 753.596Z" fill="#0E4A40"/>
<path d="M55.8816 724.747C57.9613 724.577 60.1748 722.181 62.0234 724.212C64.0667 726.462 61.9262 728.761 60.8316 730.743C56.6843 738.211 49.3018 743.428 46.1275 751.613C43.5005 754.228 40.618 754.861 36.9572 753.742C33.5518 752.696 29.964 752.075 26.3153 752.416C22.5694 752.769 19.6869 752.197 17.3518 748.293C14.5423 743.598 9.7261 745.155 5.44501 746.578C3.10988 745.374 0.762581 744.158 -1.58472 742.954C-1.93742 739.463 -5.12391 740.23 -7.13067 739.524C-9.3077 738.758 -11.4604 738.442 -11.1928 735.438C-8.38337 735.28 -5.56174 735.121 -2.75228 734.963C-9.30769 731.217 -15.3523 725.817 -23.2577 730.646C-25.1307 729.32 -20.8375 727.265 -23.5983 726.438C-25.1429 725.975 -25.5564 727.909 -25.7631 729.296C-29.3023 731.509 -30.5794 734.72 -30.4821 738.843C-30.3848 742.978 -30.7496 747.125 -30.9199 751.273C-32.8172 754.301 -35.3956 756.198 -39.1415 756.077C-39.8834 754.885 -40.6132 753.693 -41.355 752.501C-42.5226 748.123 -42.7415 743.635 -42.8267 739.147C-42.7902 738.393 -42.7658 737.627 -42.7293 736.861C-42.705 735.973 -42.6807 735.085 -42.6564 734.209C-40.3456 727.18 -42.3158 724.382 -50.2577 723.409C-52.1064 722.667 -53.8821 721.621 -55.8037 721.256C-59.3672 720.588 -58.3334 722.485 -57.2267 724.248C-58.7348 726.304 -57.2145 727.727 -56.1929 729.271C-62.505 729.721 -68.3551 726.912 -74.6429 726.778C-86.124 726.523 -97.4956 727.094 -109.354 730.463C-107.59 725.075 -102.883 723.166 -100.293 719.225C-103.978 718.289 -106.946 718.702 -109.938 719.043C-112.029 719.274 -115.082 720.648 -115.982 718.459C-116.979 716.039 -113.647 715.273 -111.993 713.996C-111.202 713.388 -110.339 712.706 -109.415 712.451C-105.571 711.381 -107.955 709.289 -108.502 707.489C-106.058 706.151 -103.625 704.825 -101.181 703.488C-88.5321 699.304 -75.9321 698.489 -63.3807 704.631C-71.2253 696.288 -80.9551 694.183 -91.5118 694.5C-92.7402 694.402 -93.9686 694.317 -95.197 694.22C-95.2335 693.369 -95.2578 692.529 -95.2943 691.678C-89.9186 687.361 -83.2659 687.227 -75.6645 686.546C-84.3483 680.927 -93.3362 678.993 -101.46 674.651C-91.4267 668.351 -81.4172 669.908 -69.8388 674.651C-73.2321 668.083 -75.5916 663.511 -77.951 658.938C-75.5551 656.639 -73.4267 658.536 -71.3105 659.436C-65.9348 661.711 -61.4834 665.505 -56.874 669.446C-55.6334 666.089 -57.5429 663.644 -57.2024 661.054C-57.0321 659.74 -57.8469 657.94 -56.1807 657.271C-54.5875 656.639 -53.724 658.281 -52.7753 659.229C-51.5226 660.482 -50.4159 661.905 -48.7983 663.766C-46.5969 659.193 -48.8104 654.644 -46.3902 650.655C-42.1821 653.975 -41.805 659.242 -38.5699 663.705C-37.4145 659.315 -36.4902 655.763 -35.3712 651.543C-31.3212 655.228 -32.2699 659.984 -30.1172 663.924C-26.7483 660.592 -27.5753 655.106 -23.3793 651.628C-19.4631 660.178 -22.0902 668.959 -20.8253 677.655C-16.4712 676.585 -15.1455 671.854 -10.7672 670.273C-11.0834 678.02 -7.38606 677.254 -2.59417 674.396C-0.976601 673.435 0.884193 673.35 2.51392 674.688C0.689598 684.49 -6.07257 691.411 -11.7401 698.963C-13.528 701.347 -15.2915 703.755 -16.7631 706.832C-5.22123 701.444 6.04096 695.424 21.1464 699.121C14.591 702.186 9.51936 704.4 4.63017 706.954C2.97611 707.817 -0.368507 707.817 0.689598 711.089C1.46798 713.497 9.19098 715.613 11.0518 714.227C14.0923 711.973 16.8856 711.774 19.4315 713.631C19.6869 713.363 20.0518 713.144 20.1734 712.828C21.1951 710.177 18.6653 705.628 22.0707 704.984C24.6126 704.497 24.8315 709.289 26.1694 711.685C26.741 712.694 27.264 713.716 28.1518 715.37C29.0883 711.661 29.8302 708.705 30.718 705.166C34.4396 708 33.2234 712.196 35.5099 714.701C38.0153 712.135 37.4315 707.757 41.3356 705.117C42.0532 709.094 42.6856 712.548 43.3059 715.99C43.0505 720.052 42.7829 724.127 42.5275 728.189C42.7586 729.04 43.0261 728.773 43.3059 728.201C46.018 725.842 46.687 721.548 50.7126 720.442C51.2478 720.515 51.7951 720.588 52.3302 720.661C52.2816 721.548 52.2329 722.424 52.1842 723.312C51.9897 724.638 50.4329 726.462 51.6613 727.155C53.6194 728.274 54.5923 725.866 55.8694 724.759L55.8816 724.747ZM-12.5185 718.532C-9.16174 717.462 -7.10633 716.829 -5.06309 716.148C-3.88335 715.759 -2.60633 715.212 -3.16579 713.667C-3.71309 712.171 -5.08742 712.378 -6.20634 712.913C-8.32256 713.935 -10.5361 714.92 -12.5185 718.532Z" fill="#094036"/>
<g filter="url(#filter0_f_4_35903)">
<path d="M514.395 283.171C514.395 411.456 410.4 515.452 282.115 515.452C153.829 515.452 49.8337 411.456 49.8337 283.171C49.8337 154.886 153.829 50.8903 282.115 50.8903C410.4 50.8903 514.395 154.886 514.395 283.171Z" fill="#FDFDFB"/>
</g>
<g filter="url(#filter1_f_4_35903)">
<circle cx="282.116" cy="283.171" r="103.655" fill="#FDFDFB"/>
</g>
<circle cx="282.115" cy="283.171" r="69.4094" fill="#FDFDFB"/>
</g>
<defs>
<filter id="filter0_f_4_35903" x="-383.975" y="-382.918" width="1332.18" height="1332.18" filterUnits="userSpaceOnUse" color-interpolation-filters="sRGB">
<feFlood flood-opacity="0" result="BackgroundImageFix"/>
<feBlend mode="normal" in="SourceGraphic" in2="BackgroundImageFix" result="shape"/>
<feGaussianBlur stdDeviation="216.904" result="effect1_foregroundBlur_4_35903"/>
</filter>
<filter id="filter1_f_4_35903" x="91.6997" y="92.7545" width="380.833" height="380.833" filterUnits="userSpaceOnUse" color-interpolation-filters="sRGB">
<feFlood flood-opacity="0" result="BackgroundImageFix"/>
<feBlend mode="normal" in="SourceGraphic" in2="BackgroundImageFix" result="shape"/>
<feGaussianBlur stdDeviation="43.3809" result="effect1_foregroundBlur_4_35903"/>
</filter>
<linearGradient id="paint0_linear_4_35903" x1="655.919" y1="0" x2="655.919" y2="426" gradientUnits="userSpaceOnUse">
<stop stop-color="#63AD9C"/>
<stop offset="1" stop-color="#E6EEE0"/>
</linearGradient>
<clipPath id="clip0_4_35903">
<rect width="1311.84" height="852" fill="white" transform="translate(-459.419)"/>
</clipPath>
</defs>
</svg>
