<svg width="185" height="63" viewBox="0 0 185 63" fill="none" xmlns="http://www.w3.org/2000/svg">
<path d="M99.3481 25.5007C99.3481 25.7457 99.4706 24.8182 99.8556 24.2057C100.165 23.2875 101.16 22.7939 102.078 23.1032C102.996 23.4125 103.49 24.4075 103.181 25.3257C103.181 26.4632 103.181 26.4107 103.181 27.1807C103.181 27.9507 103.181 28.6332 103.181 29.2807C103.118 30.3048 102.977 31.3227 102.761 32.3257C102.48 33.2157 102.08 34.0635 101.571 34.8457C100.721 35.7906 100.019 36.8585 99.4881 38.0132C99.3584 38.5872 99.2996 39.1749 99.3131 39.7632C99.3116 40.3068 99.3822 40.8482 99.5231 41.3732C98.8076 41.4486 98.0861 41.4486 97.3706 41.3732C96.6881 41.2682 95.8481 39.9032 95.6206 39.4832C95.5081 39.2577 95.2777 39.1152 95.0256 39.1152C94.7736 39.1152 94.5432 39.2577 94.4306 39.4832C94.0456 40.1482 93.1881 41.3557 92.6806 41.4257C91.5081 41.5657 89.0756 41.4257 87.1856 41.4257C87.1856 41.4257 87.5006 39.6757 86.7831 39.0457C86.0656 38.4157 85.3306 37.6807 84.7881 37.1907L83.3356 35.5807C82.3107 34.6305 81.561 33.4213 81.1656 32.0807C80.7981 30.4357 80.8331 29.6307 81.1656 28.9832C81.5047 28.4341 82.0343 28.0291 82.6531 27.8457C83.1673 27.7539 83.6962 27.79 84.1931 27.9507C84.5371 28.0937 84.8341 28.3301 85.0506 28.6332C85.4531 29.1757 85.5756 29.4382 85.4181 28.8432C85.2606 28.2482 85.0681 27.3557 84.7006 26.1307C84.3331 24.9057 84.1056 24.6257 83.8781 23.9782C83.6506 23.3307 83.3531 22.7182 83.0031 21.9132C82.6833 21.0905 82.4145 20.2489 82.1981 19.3932C82.0427 18.677 82.209 17.9287 82.6531 17.3457C83.2811 16.7329 84.1873 16.4997 85.0331 16.7332C85.6963 17.0221 86.2573 17.5038 86.6431 18.1157C87.1594 18.9411 87.582 19.8216 87.9031 20.7407C88.4819 22.2425 88.8927 23.8036 89.1281 25.3957C89.0944 24.4559 89.1767 23.5154 89.3731 22.5957C89.5676 22.0284 90.0133 21.5827 90.5806 21.3882C91.1018 21.2283 91.6531 21.1923 92.1906 21.2832C92.7332 21.3966 93.2138 21.7087 93.5381 22.1582C93.9422 23.1796 94.1672 24.2629 94.2031 25.3607C94.2271 24.4263 94.3622 23.4981 94.6056 22.5957C94.8991 22.1847 95.3257 21.8879 95.8131 21.7557C96.3918 21.6511 96.9845 21.6511 97.5631 21.7557C98.0375 21.9143 98.4525 22.2134 98.7531 22.6132C99.1245 23.5411 99.3489 24.5212 99.4181 25.5182" fill="#E6EEE0"/>
<path d="M82.1951 16.876C82.9901 16.1004 84.1368 15.8055 85.2947 16.1319C86.0787 16.4733 86.7428 17.0423 87.2 17.7676C87.7422 18.6344 88.1855 19.5593 88.5155 20.5049C88.6892 20.9557 88.8479 21.4117 88.992 21.8721C89.3055 21.3594 89.7942 20.9643 90.3885 20.7608C91.0073 20.571 91.6619 20.5281 92.325 20.6407C93.0278 20.7876 93.6501 21.1922 94.1483 21.917C94.1656 21.9608 94.1823 22.0049 94.199 22.0489C94.5724 21.6005 95.0811 21.2751 95.6961 21.1104C96.352 20.9918 97.0242 20.9909 97.7713 21.1328C98.3719 21.3336 98.8976 21.7126 99.2781 22.2188L99.368 22.3838C99.4737 22.667 99.5671 22.9544 99.6473 23.2452C100.264 22.4871 101.308 22.1513 102.288 22.4815C103.513 22.8942 104.187 24.1949 103.837 25.4248V27.1807C103.837 28.2919 103.837 28.2922 103.836 29.3213C103.771 30.3784 103.626 31.4293 103.387 32.5235C103.088 33.47 102.662 34.3714 102.058 35.2842C101.253 36.18 100.588 37.193 100.129 38.1582C100.011 38.6796 99.9572 39.2134 99.9696 39.7647C99.9682 40.2502 100.031 40.7342 100.157 41.2032C100.262 41.5928 99.9928 41.9832 99.5916 42.0254C98.8306 42.1056 98.0633 42.1057 97.2713 42.0215C96.4305 41.8922 95.6444 40.9058 95.033 39.7764C94.329 40.9678 93.4951 41.9756 92.7586 42.0772C92.0618 42.1604 91.2686 42.1609 89.1746 42.1133C89.0752 42.1111 89.0749 42.1107 88.9754 42.1084C88.151 42.0899 87.6657 42.0821 87.1854 42.0821C86.7766 42.0819 86.4675 41.7119 86.5399 41.3096C86.546 41.2756 86.557 41.203 86.5682 41.1026C86.6021 40.7979 86.6101 40.48 86.5789 40.1953C86.5422 39.8604 86.4548 39.631 86.3504 39.5391C86.2579 39.4575 86.2572 39.4576 86.1649 39.375C86.0155 39.2411 85.8598 39.0977 85.6903 38.9395C85.5753 38.8322 84.5807 37.8875 84.3006 37.6299L82.8895 36.0616C81.778 35.0311 80.965 33.72 80.5252 32.2237C80.1408 30.5028 80.1496 29.5258 80.6072 28.6387C81.0312 27.9523 81.6933 27.4453 82.5379 27.1993C83.1291 27.0937 83.7363 27.129 84.3543 27.3164C84.2654 26.9836 84.1741 26.6594 84.0721 26.3194C83.8718 25.6516 83.832 25.5507 83.4715 24.7276C83.3851 24.5301 83.3221 24.3743 83.2606 24.1993C83.2277 24.1056 83.1929 24.0132 83.1561 23.918C83.0668 23.6875 82.967 23.4503 82.8182 23.1143C82.8728 23.2377 82.506 22.4161 82.3914 22.1514C82.0619 21.3036 81.7845 20.4358 81.5565 19.5323C81.3603 18.6283 81.5709 17.6837 82.1951 16.876ZM84.8582 17.3662C84.2376 17.1949 83.5729 17.3656 83.1756 17.7432C82.8479 18.1733 82.7252 18.7257 82.8348 19.2325C83.0445 20.062 83.3051 20.8778 83.6053 21.6514C83.707 21.8853 84.0703 22.7002 84.0184 22.583C84.1749 22.9363 84.2825 23.1908 84.3807 23.4444C84.4224 23.552 84.4606 23.6573 84.4959 23.7578C84.5474 23.9043 84.5993 24.0313 84.6737 24.2012C85.0545 25.0709 85.1089 25.2089 85.3289 25.9424C85.4937 26.4917 85.6322 27 85.7742 27.5625C85.8042 27.681 86.0049 28.4947 86.0526 28.6748C86.104 28.8691 86.1288 28.9803 86.1375 29.0811C86.1826 29.218 86.1826 29.218 85.827 29.7364C85.0842 29.79 85.0844 29.7897 84.9891 29.6368C84.9077 29.5581 84.5546 29.0694 84.5164 29.0147C84.3711 28.8113 84.1719 28.6527 83.991 28.5752C83.5965 28.4476 83.1767 28.4186 82.8397 28.4746C82.3756 28.6122 81.9788 28.9164 81.7498 29.2832C81.489 29.7912 81.482 30.4888 81.7947 31.8955C82.1567 33.1227 82.8438 34.2291 83.8231 35.1407L85.2283 36.7041C85.4762 36.928 86.4812 37.8819 86.5858 37.9795C86.7495 38.1322 86.8994 38.2697 87.0418 38.3975C87.1292 38.4757 87.1297 38.4761 87.2166 38.5528C87.6172 38.9047 87.8146 39.4225 87.8836 40.0528C87.9096 40.2902 87.9167 40.5331 87.908 40.7744C88.211 40.7787 88.5598 40.7859 89.0057 40.7959C89.105 40.7982 89.1054 40.7986 89.2049 40.8008C91.2131 40.8465 91.9966 40.8462 92.5906 40.7754C92.7206 40.7575 93.4315 39.8997 93.8436 39.1905C94.0672 38.7425 94.5246 38.4592 95.0252 38.459C95.526 38.459 95.9846 38.7423 96.1981 39.1709C96.5767 39.8697 97.2265 40.687 97.4393 40.7207C97.8678 40.7659 98.2991 40.7822 98.7293 40.7696C98.6805 40.4385 98.656 40.1061 98.6571 39.7784C98.6424 39.1365 98.7061 38.4949 98.8914 37.7393C99.4497 36.5246 100.189 35.4005 101.02 34.4873C101.497 33.7551 101.872 32.9617 102.119 32.1875C102.328 31.2169 102.464 30.2311 102.524 29.2803V25.3252L102.558 25.1162C102.752 24.5416 102.444 23.9183 101.869 23.7246C101.294 23.5311 100.671 23.8403 100.411 24.5547C100.356 24.6421 100.303 24.7495 100.252 24.8731C100.174 25.0622 100.114 25.2555 100.049 25.503C100.019 25.6182 100.001 25.6818 99.9852 25.7295C99.9723 25.7687 99.9728 25.7693 99.9276 25.8614C99.8215 26.1448 99.8212 26.1447 98.8641 25.9785C98.671 25.5441 98.6684 25.5394 98.6912 25.502C98.6451 24.6262 98.47 23.7623 98.1727 22.9375C97.9583 22.6794 97.6821 22.4868 97.4461 22.4014C96.9449 22.3108 96.4314 22.3105 95.9852 22.3887C95.6796 22.4716 95.4078 22.6472 95.2069 22.8897C94.9975 23.7029 94.8807 24.5382 94.8592 25.378C94.837 26.2271 93.5755 26.2311 93.5477 25.3819C93.5142 24.3596 93.3039 23.3506 93.0057 22.542C92.7771 22.2254 92.4382 22.0059 92.0809 21.9307C91.6444 21.857 91.1967 21.8856 90.7938 22.0088C90.4182 22.1376 90.1223 22.4326 90.0145 22.7325C89.8293 23.5994 89.7523 24.4862 89.784 25.3721C89.8137 26.1993 88.6004 26.3101 88.4793 25.4912C88.251 23.9472 87.8525 22.4331 87.284 20.9571C86.979 20.084 86.5769 19.2479 86.0877 18.4659C85.7721 17.9653 85.3133 17.5716 84.8582 17.3662Z" fill="#157D64"/>
<path d="M98.2806 36.0285V29.9879C98.2806 29.6263 97.9868 29.3332 97.6244 29.3332C97.262 29.3332 96.9681 29.6263 96.9681 29.9879V36.0285C96.9681 36.3901 97.262 36.6832 97.6244 36.6832C97.9868 36.6832 98.2806 36.3901 98.2806 36.0285Z" fill="#157D64"/>
<path d="M94.7981 36.0282L94.7806 29.9844C94.7796 29.6237 94.4849 29.3322 94.1225 29.3332C93.7601 29.3342 93.4671 29.6275 93.4681 29.9882L93.4856 36.0319C93.4867 36.3926 93.7813 36.6842 94.1438 36.6832C94.5062 36.6821 94.7992 36.3889 94.7981 36.0282Z" fill="#157D64"/>
<path d="M89.9682 29.998L90.0032 36.0261C90.0053 36.3911 90.3008 36.6853 90.6632 36.6832C91.0257 36.681 91.3177 36.3834 91.3156 36.0184L91.2806 29.9903C91.2785 29.6253 90.983 29.3311 90.6206 29.3332C90.2581 29.3353 89.966 29.633 89.9682 29.998Z" fill="#157D64"/>
<path d="M3.492 59.37C2.876 59.37 2.34 59.246 1.884 58.998C1.428 58.742 1.076 58.382 0.828 57.918C0.58 57.454 0.456 56.91 0.456 56.286C0.456 55.814 0.524 55.394 0.66 55.026C0.804 54.65 1.008 54.334 1.272 54.078C1.536 53.814 1.856 53.614 2.232 53.478C2.608 53.334 3.028 53.262 3.492 53.262C3.756 53.262 4.04 53.298 4.344 53.37C4.656 53.442 4.948 53.562 5.22 53.73C5.348 53.81 5.432 53.906 5.472 54.018C5.512 54.13 5.52 54.246 5.496 54.366C5.472 54.478 5.42 54.578 5.34 54.666C5.268 54.746 5.176 54.798 5.064 54.822C4.952 54.838 4.828 54.81 4.692 54.738C4.516 54.634 4.336 54.558 4.152 54.51C3.968 54.454 3.792 54.426 3.624 54.426C3.36 54.426 3.128 54.47 2.928 54.558C2.728 54.638 2.556 54.758 2.412 54.918C2.276 55.07 2.172 55.262 2.1 55.494C2.028 55.726 1.992 55.994 1.992 56.298C1.992 56.89 2.132 57.358 2.412 57.702C2.7 58.038 3.104 58.206 3.624 58.206C3.792 58.206 3.964 58.182 4.14 58.134C4.324 58.086 4.508 58.01 4.692 57.906C4.828 57.834 4.948 57.81 5.052 57.834C5.164 57.858 5.256 57.914 5.328 58.002C5.4 58.082 5.444 58.182 5.46 58.302C5.476 58.414 5.46 58.526 5.412 58.638C5.372 58.75 5.292 58.842 5.172 58.914C4.908 59.074 4.628 59.19 4.332 59.262C4.036 59.334 3.756 59.37 3.492 59.37ZM8.44416 59.37C7.78016 59.37 7.28016 59.182 6.94416 58.806C6.60816 58.422 6.44016 57.862 6.44016 57.126V51.45C6.44016 51.202 6.50416 51.014 6.63216 50.886C6.76016 50.758 6.94416 50.694 7.18416 50.694C7.42416 50.694 7.60816 50.758 7.73616 50.886C7.87216 51.014 7.94016 51.202 7.94016 51.45V57.054C7.94016 57.422 8.01616 57.694 8.16816 57.87C8.32816 58.046 8.55216 58.134 8.84016 58.134C8.90416 58.134 8.96416 58.134 9.02016 58.134C9.07616 58.126 9.13216 58.118 9.18816 58.11C9.30016 58.094 9.37616 58.126 9.41616 58.206C9.45616 58.278 9.47616 58.43 9.47616 58.662C9.47616 58.862 9.43616 59.018 9.35616 59.13C9.27616 59.242 9.14416 59.31 8.96016 59.334C8.88016 59.342 8.79616 59.35 8.70816 59.358C8.62016 59.366 8.53216 59.37 8.44416 59.37ZM11.0162 59.334C10.7762 59.334 10.5922 59.262 10.4642 59.118C10.3362 58.974 10.2722 58.774 10.2722 58.518V54.114C10.2722 53.85 10.3362 53.65 10.4642 53.514C10.5922 53.37 10.7762 53.298 11.0162 53.298C11.2562 53.298 11.4402 53.37 11.5682 53.514C11.7042 53.65 11.7722 53.85 11.7722 54.114V58.518C11.7722 58.774 11.7082 58.974 11.5802 59.118C11.4522 59.262 11.2642 59.334 11.0162 59.334ZM11.0162 52.182C10.7362 52.182 10.5162 52.114 10.3562 51.978C10.2042 51.834 10.1282 51.638 10.1282 51.39C10.1282 51.134 10.2042 50.938 10.3562 50.802C10.5162 50.666 10.7362 50.598 11.0162 50.598C11.3042 50.598 11.5242 50.666 11.6762 50.802C11.8282 50.938 11.9042 51.134 11.9042 51.39C11.9042 51.638 11.8282 51.834 11.6762 51.978C11.5242 52.114 11.3042 52.182 11.0162 52.182ZM18.2148 61.506C17.9748 61.506 17.7908 61.442 17.6628 61.314C17.5348 61.186 17.4708 60.998 17.4708 60.75V58.05H17.6028C17.4748 58.442 17.2268 58.762 16.8588 59.01C16.4988 59.25 16.0748 59.37 15.5868 59.37C15.0748 59.37 14.6228 59.246 14.2308 58.998C13.8468 58.75 13.5468 58.398 13.3308 57.942C13.1148 57.478 13.0068 56.934 13.0068 56.31C13.0068 55.678 13.1148 55.138 13.3308 54.69C13.5468 54.234 13.8468 53.882 14.2308 53.634C14.6228 53.386 15.0748 53.262 15.5868 53.262C16.0828 53.262 16.5148 53.386 16.8828 53.634C17.2508 53.882 17.4948 54.21 17.6148 54.618L17.4828 54.978V54.042C17.4828 53.794 17.5468 53.606 17.6748 53.478C17.8028 53.35 17.9868 53.286 18.2268 53.286C18.4668 53.286 18.6508 53.35 18.7788 53.478C18.9068 53.606 18.9708 53.794 18.9708 54.042V60.75C18.9708 60.998 18.9028 61.186 18.7668 61.314C18.6388 61.442 18.4548 61.506 18.2148 61.506ZM16.0068 58.23C16.3028 58.23 16.5628 58.158 16.7868 58.014C17.0108 57.87 17.1828 57.658 17.3028 57.378C17.4308 57.09 17.4948 56.734 17.4948 56.31C17.4948 55.67 17.3588 55.194 17.0868 54.882C16.8148 54.562 16.4548 54.402 16.0068 54.402C15.7108 54.402 15.4508 54.474 15.2268 54.618C15.0028 54.754 14.8268 54.966 14.6988 55.254C14.5788 55.534 14.5188 55.886 14.5188 56.31C14.5188 56.942 14.6548 57.422 14.9268 57.75C15.1988 58.07 15.5588 58.23 16.0068 58.23ZM22.6501 59.37C22.1621 59.37 21.7581 59.282 21.4381 59.106C21.1181 58.922 20.8781 58.65 20.7181 58.29C20.5661 57.93 20.4901 57.482 20.4901 56.946V54.042C20.4901 53.786 20.5541 53.598 20.6821 53.478C20.8101 53.35 20.9941 53.286 21.2341 53.286C21.4741 53.286 21.6581 53.35 21.7861 53.478C21.9221 53.598 21.9901 53.786 21.9901 54.042V56.97C21.9901 57.386 22.0741 57.694 22.2421 57.894C22.4101 58.094 22.6781 58.194 23.0461 58.194C23.4461 58.194 23.7741 58.058 24.0301 57.786C24.2861 57.506 24.4141 57.138 24.4141 56.682V54.042C24.4141 53.786 24.4781 53.598 24.6061 53.478C24.7341 53.35 24.9181 53.286 25.1581 53.286C25.3981 53.286 25.5821 53.35 25.7101 53.478C25.8461 53.598 25.9141 53.786 25.9141 54.042V58.578C25.9141 59.09 25.6701 59.346 25.1821 59.346C24.9501 59.346 24.7701 59.282 24.6421 59.154C24.5141 59.018 24.4501 58.826 24.4501 58.578V57.666L24.6181 58.026C24.4501 58.458 24.1941 58.79 23.8501 59.022C23.5141 59.254 23.1141 59.37 22.6501 59.37ZM30.3673 59.37C29.7033 59.37 29.1313 59.246 28.6513 58.998C28.1713 58.75 27.7993 58.398 27.5353 57.942C27.2793 57.486 27.1513 56.946 27.1513 56.322C27.1513 55.714 27.2753 55.182 27.5233 54.726C27.7793 54.27 28.1273 53.914 28.5673 53.658C29.0153 53.394 29.5233 53.262 30.0913 53.262C30.5073 53.262 30.8793 53.33 31.2073 53.466C31.5433 53.602 31.8273 53.798 32.0593 54.054C32.2993 54.31 32.4793 54.622 32.5993 54.99C32.7273 55.35 32.7913 55.758 32.7913 56.214C32.7913 56.358 32.7393 56.47 32.6353 56.55C32.5393 56.622 32.3993 56.658 32.2153 56.658H28.3633V55.794H31.7353L31.5433 55.974C31.5433 55.606 31.4873 55.298 31.3753 55.05C31.2713 54.802 31.1153 54.614 30.9073 54.486C30.7073 54.35 30.4553 54.282 30.1513 54.282C29.8153 54.282 29.5273 54.362 29.2873 54.522C29.0553 54.674 28.8753 54.894 28.7473 55.182C28.6273 55.462 28.5673 55.798 28.5673 56.19V56.274C28.5673 56.93 28.7193 57.422 29.0233 57.75C29.3353 58.07 29.7913 58.23 30.3913 58.23C30.5993 58.23 30.8313 58.206 31.0873 58.158C31.3513 58.102 31.5993 58.01 31.8313 57.882C31.9993 57.786 32.1473 57.746 32.2753 57.762C32.4033 57.77 32.5033 57.814 32.5753 57.894C32.6553 57.974 32.7033 58.074 32.7193 58.194C32.7353 58.306 32.7113 58.422 32.6473 58.542C32.5913 58.662 32.4913 58.766 32.3473 58.854C32.0673 59.03 31.7433 59.162 31.3753 59.25C31.0153 59.33 30.6793 59.37 30.3673 59.37ZM37.981 59.346C37.741 59.346 37.557 59.282 37.429 59.154C37.301 59.018 37.237 58.826 37.237 58.578V54.042C37.237 53.794 37.301 53.606 37.429 53.478C37.557 53.35 37.737 53.286 37.969 53.286C38.201 53.286 38.381 53.35 38.509 53.478C38.637 53.606 38.701 53.794 38.701 54.042V54.858L38.569 54.558C38.745 54.134 39.017 53.814 39.385 53.598C39.761 53.374 40.185 53.262 40.657 53.262C41.129 53.262 41.517 53.35 41.821 53.526C42.125 53.702 42.353 53.97 42.505 54.33C42.657 54.682 42.733 55.13 42.733 55.674V58.578C42.733 58.826 42.669 59.018 42.541 59.154C42.413 59.282 42.229 59.346 41.989 59.346C41.749 59.346 41.561 59.282 41.425 59.154C41.297 59.018 41.233 58.826 41.233 58.578V55.746C41.233 55.29 41.145 54.958 40.969 54.75C40.801 54.542 40.537 54.438 40.177 54.438C39.737 54.438 39.385 54.578 39.121 54.858C38.865 55.13 38.737 55.494 38.737 55.95V58.578C38.737 59.09 38.485 59.346 37.981 59.346ZM46.1886 59.37C45.7646 59.37 45.3846 59.29 45.0486 59.13C44.7206 58.962 44.4606 58.738 44.2686 58.458C44.0846 58.178 43.9926 57.862 43.9926 57.51C43.9926 57.078 44.1046 56.738 44.3286 56.49C44.5526 56.234 44.9166 56.05 45.4206 55.938C45.9246 55.826 46.6006 55.77 47.4486 55.77H48.0486V56.634H47.4606C46.9646 56.634 46.5686 56.658 46.2726 56.706C45.9766 56.754 45.7646 56.838 45.6366 56.958C45.5166 57.07 45.4566 57.23 45.4566 57.438C45.4566 57.702 45.5486 57.918 45.7326 58.086C45.9166 58.254 46.1726 58.338 46.5006 58.338C46.7646 58.338 46.9966 58.278 47.1966 58.158C47.4046 58.03 47.5686 57.858 47.6886 57.642C47.8086 57.426 47.8686 57.178 47.8686 56.898V55.518C47.8686 55.118 47.7806 54.83 47.6046 54.654C47.4286 54.478 47.1326 54.39 46.7166 54.39C46.4846 54.39 46.2326 54.418 45.9606 54.474C45.6966 54.53 45.4166 54.626 45.1206 54.762C44.9686 54.834 44.8326 54.854 44.7126 54.822C44.6006 54.79 44.5126 54.726 44.4486 54.63C44.3846 54.526 44.3526 54.414 44.3526 54.294C44.3526 54.174 44.3846 54.058 44.4486 53.946C44.5126 53.826 44.6206 53.738 44.7726 53.682C45.1406 53.53 45.4926 53.422 45.8286 53.358C46.1726 53.294 46.4846 53.262 46.7646 53.262C47.3406 53.262 47.8126 53.35 48.1806 53.526C48.5566 53.702 48.8366 53.97 49.0206 54.33C49.2046 54.682 49.2966 55.138 49.2966 55.698V58.578C49.2966 58.826 49.2366 59.018 49.1166 59.154C48.9966 59.282 48.8246 59.346 48.6006 59.346C48.3766 59.346 48.2006 59.282 48.0726 59.154C47.9526 59.018 47.8926 58.826 47.8926 58.578V58.002H47.9886C47.9326 58.282 47.8206 58.526 47.6526 58.734C47.4926 58.934 47.2886 59.09 47.0406 59.202C46.7926 59.314 46.5086 59.37 46.1886 59.37ZM52.9671 59.37C52.6231 59.37 52.2591 59.334 51.8751 59.262C51.4911 59.19 51.1471 59.066 50.8431 58.89C50.7151 58.81 50.6231 58.718 50.5671 58.614C50.5191 58.502 50.4991 58.394 50.5071 58.29C50.5231 58.178 50.5631 58.082 50.6271 58.002C50.6991 57.922 50.7871 57.87 50.8911 57.846C51.0031 57.822 51.1231 57.842 51.2511 57.906C51.5711 58.058 51.8711 58.166 52.1511 58.23C52.4311 58.286 52.7071 58.314 52.9791 58.314C53.3631 58.314 53.6471 58.25 53.8311 58.122C54.0231 57.986 54.1191 57.81 54.1191 57.594C54.1191 57.41 54.0551 57.27 53.9271 57.174C53.8071 57.07 53.6231 56.994 53.3751 56.946L52.1751 56.718C51.6791 56.622 51.2991 56.442 51.0351 56.178C50.7791 55.906 50.6511 55.558 50.6511 55.134C50.6511 54.75 50.7551 54.418 50.9631 54.138C51.1791 53.858 51.4751 53.642 51.8511 53.49C52.2271 53.338 52.6591 53.262 53.1471 53.262C53.4991 53.262 53.8271 53.302 54.1311 53.382C54.4431 53.454 54.7431 53.57 55.0311 53.73C55.1511 53.794 55.2311 53.878 55.2711 53.982C55.3191 54.086 55.3311 54.194 55.3071 54.306C55.2831 54.41 55.2351 54.506 55.1631 54.594C55.0911 54.674 54.9991 54.726 54.8871 54.75C54.7831 54.766 54.6631 54.742 54.5271 54.678C54.2791 54.55 54.0391 54.458 53.8071 54.402C53.5831 54.346 53.3671 54.318 53.1591 54.318C52.7671 54.318 52.4751 54.386 52.2831 54.522C52.0991 54.658 52.0071 54.838 52.0071 55.062C52.0071 55.23 52.0631 55.37 52.1751 55.482C52.2871 55.594 52.4591 55.67 52.6911 55.71L53.8911 55.938C54.4111 56.034 54.8031 56.21 55.0671 56.466C55.3391 56.722 55.4751 57.066 55.4751 57.498C55.4751 58.082 55.2471 58.542 54.7911 58.878C54.3351 59.206 53.7271 59.37 52.9671 59.37ZM60.6803 59.334C60.4403 59.334 60.2563 59.262 60.1283 59.118C60.0003 58.974 59.9363 58.774 59.9363 58.518V54.114C59.9363 53.85 60.0003 53.65 60.1283 53.514C60.2563 53.37 60.4403 53.298 60.6803 53.298C60.9203 53.298 61.1043 53.37 61.2323 53.514C61.3683 53.65 61.4363 53.85 61.4363 54.114V58.518C61.4363 58.774 61.3723 58.974 61.2443 59.118C61.1163 59.262 60.9283 59.334 60.6803 59.334ZM60.6803 52.182C60.4003 52.182 60.1803 52.114 60.0203 51.978C59.8683 51.834 59.7923 51.638 59.7923 51.39C59.7923 51.134 59.8683 50.938 60.0203 50.802C60.1803 50.666 60.4003 50.598 60.6803 50.598C60.9683 50.598 61.1883 50.666 61.3403 50.802C61.4923 50.938 61.5683 51.134 61.5683 51.39C61.5683 51.638 61.4923 51.834 61.3403 51.978C61.1883 52.114 60.9683 52.182 60.6803 52.182ZM63.7628 59.346C63.5228 59.346 63.3388 59.282 63.2108 59.154C63.0828 59.018 63.0188 58.826 63.0188 58.578V54.042C63.0188 53.794 63.0828 53.606 63.2108 53.478C63.3388 53.35 63.5188 53.286 63.7508 53.286C63.9828 53.286 64.1628 53.35 64.2908 53.478C64.4188 53.606 64.4828 53.794 64.4828 54.042V54.918L64.3508 54.558C64.5108 54.158 64.7588 53.842 65.0948 53.61C65.4308 53.378 65.8308 53.262 66.2948 53.262C66.7668 53.262 67.1548 53.374 67.4588 53.598C67.7628 53.822 67.9748 54.166 68.0948 54.63H67.9268C68.0868 54.206 68.3508 53.874 68.7188 53.634C69.0868 53.386 69.5108 53.262 69.9908 53.262C70.4388 53.262 70.8068 53.35 71.0948 53.526C71.3908 53.702 71.6108 53.97 71.7548 54.33C71.8988 54.682 71.9708 55.13 71.9708 55.674V58.578C71.9708 58.826 71.9028 59.018 71.7668 59.154C71.6388 59.282 71.4548 59.346 71.2148 59.346C70.9748 59.346 70.7908 59.282 70.6628 59.154C70.5348 59.018 70.4708 58.826 70.4708 58.578V55.734C70.4708 55.286 70.3948 54.958 70.2428 54.75C70.0988 54.542 69.8508 54.438 69.4988 54.438C69.1068 54.438 68.7988 54.578 68.5748 54.858C68.3508 55.13 68.2388 55.51 68.2388 55.998V58.578C68.2388 58.826 68.1748 59.018 68.0468 59.154C67.9188 59.282 67.7348 59.346 67.4948 59.346C67.2548 59.346 67.0668 59.282 66.9308 59.154C66.8028 59.018 66.7388 58.826 66.7388 58.578V55.734C66.7388 55.286 66.6628 54.958 66.5108 54.75C66.3668 54.542 66.1228 54.438 65.7788 54.438C65.3868 54.438 65.0788 54.578 64.8548 54.858C64.6308 55.13 64.5188 55.51 64.5188 55.998V58.578C64.5188 59.09 64.2668 59.346 63.7628 59.346ZM75.4503 59.37C75.0263 59.37 74.6463 59.29 74.3103 59.13C73.9823 58.962 73.7223 58.738 73.5303 58.458C73.3463 58.178 73.2543 57.862 73.2543 57.51C73.2543 57.078 73.3663 56.738 73.5903 56.49C73.8143 56.234 74.1783 56.05 74.6823 55.938C75.1863 55.826 75.8623 55.77 76.7103 55.77H77.3103V56.634H76.7223C76.2263 56.634 75.8303 56.658 75.5343 56.706C75.2383 56.754 75.0263 56.838 74.8983 56.958C74.7783 57.07 74.7183 57.23 74.7183 57.438C74.7183 57.702 74.8103 57.918 74.9943 58.086C75.1783 58.254 75.4343 58.338 75.7623 58.338C76.0263 58.338 76.2583 58.278 76.4583 58.158C76.6663 58.03 76.8303 57.858 76.9503 57.642C77.0703 57.426 77.1303 57.178 77.1303 56.898V55.518C77.1303 55.118 77.0423 54.83 76.8663 54.654C76.6903 54.478 76.3943 54.39 75.9783 54.39C75.7463 54.39 75.4943 54.418 75.2223 54.474C74.9583 54.53 74.6783 54.626 74.3823 54.762C74.2303 54.834 74.0943 54.854 73.9743 54.822C73.8623 54.79 73.7743 54.726 73.7103 54.63C73.6463 54.526 73.6143 54.414 73.6143 54.294C73.6143 54.174 73.6463 54.058 73.7103 53.946C73.7743 53.826 73.8823 53.738 74.0343 53.682C74.4023 53.53 74.7543 53.422 75.0903 53.358C75.4343 53.294 75.7463 53.262 76.0263 53.262C76.6023 53.262 77.0743 53.35 77.4423 53.526C77.8183 53.702 78.0983 53.97 78.2823 54.33C78.4663 54.682 78.5583 55.138 78.5583 55.698V58.578C78.5583 58.826 78.4983 59.018 78.3783 59.154C78.2583 59.282 78.0863 59.346 77.8623 59.346C77.6383 59.346 77.4623 59.282 77.3343 59.154C77.2143 59.018 77.1543 58.826 77.1543 58.578V58.002H77.2503C77.1943 58.282 77.0823 58.526 76.9143 58.734C76.7543 58.934 76.5503 59.09 76.3023 59.202C76.0543 59.314 75.7703 59.37 75.4503 59.37ZM82.8168 61.53C82.3848 61.53 81.9648 61.49 81.5568 61.41C81.1568 61.33 80.7928 61.206 80.4648 61.038C80.3128 60.958 80.2088 60.862 80.1528 60.75C80.1048 60.638 80.0888 60.522 80.1048 60.402C80.1288 60.29 80.1768 60.19 80.2488 60.102C80.3288 60.014 80.4248 59.954 80.5368 59.922C80.6488 59.89 80.7648 59.906 80.8848 59.97C81.2368 60.146 81.5688 60.258 81.8808 60.306C82.2008 60.362 82.4728 60.39 82.6968 60.39C83.2328 60.39 83.6328 60.258 83.8968 59.994C84.1688 59.738 84.3048 59.354 84.3048 58.842V57.762H84.4128C84.2928 58.17 84.0408 58.498 83.6568 58.746C83.2808 58.986 82.8528 59.106 82.3728 59.106C81.8448 59.106 81.3848 58.986 80.9928 58.746C80.6008 58.498 80.2968 58.154 80.0808 57.714C79.8648 57.274 79.7568 56.762 79.7568 56.178C79.7568 55.738 79.8168 55.342 79.9368 54.99C80.0648 54.63 80.2408 54.322 80.4648 54.066C80.6968 53.81 80.9728 53.614 81.2928 53.478C81.6208 53.334 81.9808 53.262 82.3728 53.262C82.8688 53.262 83.3008 53.386 83.6688 53.634C84.0448 53.874 84.2888 54.194 84.4008 54.594L84.2808 54.894V54.042C84.2808 53.794 84.3448 53.606 84.4728 53.478C84.6088 53.35 84.7928 53.286 85.0248 53.286C85.2648 53.286 85.4488 53.35 85.5768 53.478C85.7048 53.606 85.7688 53.794 85.7688 54.042V58.662C85.7688 59.614 85.5168 60.33 85.0128 60.81C84.5088 61.29 83.7768 61.53 82.8168 61.53ZM82.7808 57.966C83.0928 57.966 83.3608 57.894 83.5848 57.75C83.8088 57.606 83.9808 57.402 84.1008 57.138C84.2288 56.866 84.2928 56.546 84.2928 56.178C84.2928 55.626 84.1568 55.194 83.8848 54.882C83.6128 54.562 83.2448 54.402 82.7808 54.402C82.4688 54.402 82.2008 54.474 81.9768 54.618C81.7528 54.762 81.5768 54.966 81.4488 55.23C81.3288 55.494 81.2688 55.81 81.2688 56.178C81.2688 56.73 81.4048 57.166 81.6768 57.486C81.9488 57.806 82.3168 57.966 82.7808 57.966ZM90.215 59.37C89.551 59.37 88.979 59.246 88.499 58.998C88.019 58.75 87.647 58.398 87.383 57.942C87.127 57.486 86.999 56.946 86.999 56.322C86.999 55.714 87.123 55.182 87.371 54.726C87.627 54.27 87.975 53.914 88.415 53.658C88.863 53.394 89.371 53.262 89.939 53.262C90.355 53.262 90.727 53.33 91.055 53.466C91.391 53.602 91.675 53.798 91.907 54.054C92.147 54.31 92.327 54.622 92.447 54.99C92.575 55.35 92.639 55.758 92.639 56.214C92.639 56.358 92.587 56.47 92.483 56.55C92.387 56.622 92.247 56.658 92.063 56.658H88.211V55.794H91.583L91.391 55.974C91.391 55.606 91.335 55.298 91.223 55.05C91.119 54.802 90.963 54.614 90.755 54.486C90.555 54.35 90.303 54.282 89.999 54.282C89.663 54.282 89.375 54.362 89.135 54.522C88.903 54.674 88.723 54.894 88.595 55.182C88.475 55.462 88.415 55.798 88.415 56.19V56.274C88.415 56.93 88.567 57.422 88.871 57.75C89.183 58.07 89.639 58.23 90.239 58.23C90.447 58.23 90.679 58.206 90.935 58.158C91.199 58.102 91.447 58.01 91.679 57.882C91.847 57.786 91.995 57.746 92.123 57.762C92.251 57.77 92.351 57.814 92.423 57.894C92.503 57.974 92.551 58.074 92.567 58.194C92.583 58.306 92.559 58.422 92.495 58.542C92.439 58.662 92.339 58.766 92.195 58.854C91.915 59.03 91.591 59.162 91.223 59.25C90.863 59.33 90.527 59.37 90.215 59.37ZM94.5709 59.346C94.3309 59.346 94.1469 59.282 94.0189 59.154C93.8909 59.018 93.8269 58.826 93.8269 58.578V54.042C93.8269 53.794 93.8909 53.606 94.0189 53.478C94.1469 53.35 94.3269 53.286 94.5589 53.286C94.7909 53.286 94.9709 53.35 95.0989 53.478C95.2269 53.606 95.2909 53.794 95.2909 54.042V54.858L95.1589 54.558C95.3349 54.134 95.6069 53.814 95.9749 53.598C96.3509 53.374 96.7749 53.262 97.2469 53.262C97.7189 53.262 98.1069 53.35 98.4109 53.526C98.7149 53.702 98.9429 53.97 99.0949 54.33C99.2469 54.682 99.3229 55.13 99.3229 55.674V58.578C99.3229 58.826 99.2589 59.018 99.1309 59.154C99.0029 59.282 98.8189 59.346 98.5789 59.346C98.3389 59.346 98.1509 59.282 98.0149 59.154C97.8869 59.018 97.8229 58.826 97.8229 58.578V55.746C97.8229 55.29 97.7349 54.958 97.5589 54.75C97.3909 54.542 97.1269 54.438 96.7669 54.438C96.3269 54.438 95.9749 54.578 95.7109 54.858C95.4549 55.13 95.3269 55.494 95.3269 55.95V58.578C95.3269 59.09 95.0749 59.346 94.5709 59.346ZM102.994 59.37C102.65 59.37 102.286 59.334 101.902 59.262C101.518 59.19 101.174 59.066 100.87 58.89C100.742 58.81 100.65 58.718 100.594 58.614C100.546 58.502 100.526 58.394 100.534 58.29C100.55 58.178 100.59 58.082 100.654 58.002C100.726 57.922 100.814 57.87 100.918 57.846C101.03 57.822 101.15 57.842 101.278 57.906C101.598 58.058 101.898 58.166 102.178 58.23C102.458 58.286 102.734 58.314 103.006 58.314C103.39 58.314 103.674 58.25 103.858 58.122C104.05 57.986 104.146 57.81 104.146 57.594C104.146 57.41 104.082 57.27 103.954 57.174C103.834 57.07 103.65 56.994 103.402 56.946L102.202 56.718C101.706 56.622 101.326 56.442 101.062 56.178C100.806 55.906 100.678 55.558 100.678 55.134C100.678 54.75 100.782 54.418 100.99 54.138C101.206 53.858 101.502 53.642 101.878 53.49C102.254 53.338 102.686 53.262 103.174 53.262C103.526 53.262 103.854 53.302 104.158 53.382C104.47 53.454 104.77 53.57 105.058 53.73C105.178 53.794 105.258 53.878 105.298 53.982C105.346 54.086 105.358 54.194 105.334 54.306C105.31 54.41 105.262 54.506 105.19 54.594C105.118 54.674 105.026 54.726 104.914 54.75C104.81 54.766 104.69 54.742 104.554 54.678C104.306 54.55 104.066 54.458 103.834 54.402C103.61 54.346 103.394 54.318 103.186 54.318C102.794 54.318 102.502 54.386 102.31 54.522C102.126 54.658 102.034 54.838 102.034 55.062C102.034 55.23 102.09 55.37 102.202 55.482C102.314 55.594 102.486 55.67 102.718 55.71L103.918 55.938C104.438 56.034 104.83 56.21 105.094 56.466C105.366 56.722 105.502 57.066 105.502 57.498C105.502 58.082 105.274 58.542 104.818 58.878C104.362 59.206 103.754 59.37 102.994 59.37ZM110.708 61.506C110.468 61.506 110.284 61.442 110.156 61.314C110.028 61.186 109.964 60.998 109.964 60.75V54.042C109.964 53.794 110.028 53.606 110.156 53.478C110.284 53.35 110.464 53.286 110.696 53.286C110.936 53.286 111.12 53.35 111.248 53.478C111.376 53.606 111.44 53.794 111.44 54.042V54.978L111.308 54.618C111.428 54.21 111.672 53.882 112.04 53.634C112.416 53.386 112.852 53.262 113.348 53.262C113.86 53.262 114.308 53.386 114.692 53.634C115.084 53.882 115.388 54.234 115.604 54.69C115.82 55.138 115.928 55.678 115.928 56.31C115.928 56.934 115.82 57.478 115.604 57.942C115.388 58.398 115.088 58.75 114.704 58.998C114.32 59.246 113.868 59.37 113.348 59.37C112.86 59.37 112.432 59.25 112.064 59.01C111.696 58.762 111.448 58.442 111.32 58.05H111.464V60.75C111.464 60.998 111.396 61.186 111.26 61.314C111.132 61.442 110.948 61.506 110.708 61.506ZM112.928 58.23C113.224 58.23 113.484 58.158 113.708 58.014C113.932 57.87 114.104 57.658 114.224 57.378C114.352 57.09 114.416 56.734 114.416 56.31C114.416 55.67 114.28 55.194 114.008 54.882C113.736 54.562 113.376 54.402 112.928 54.402C112.632 54.402 112.372 54.474 112.148 54.618C111.924 54.754 111.748 54.966 111.62 55.254C111.5 55.534 111.44 55.886 111.44 56.31C111.44 56.942 111.576 57.422 111.848 57.75C112.12 58.07 112.48 58.23 112.928 58.23ZM119.091 59.37C118.667 59.37 118.287 59.29 117.951 59.13C117.623 58.962 117.363 58.738 117.171 58.458C116.987 58.178 116.895 57.862 116.895 57.51C116.895 57.078 117.007 56.738 117.231 56.49C117.455 56.234 117.819 56.05 118.323 55.938C118.827 55.826 119.503 55.77 120.351 55.77H120.951V56.634H120.363C119.867 56.634 119.471 56.658 119.175 56.706C118.879 56.754 118.667 56.838 118.539 56.958C118.419 57.07 118.359 57.23 118.359 57.438C118.359 57.702 118.451 57.918 118.635 58.086C118.819 58.254 119.075 58.338 119.403 58.338C119.667 58.338 119.899 58.278 120.099 58.158C120.307 58.03 120.471 57.858 120.591 57.642C120.711 57.426 120.771 57.178 120.771 56.898V55.518C120.771 55.118 120.683 54.83 120.507 54.654C120.331 54.478 120.035 54.39 119.619 54.39C119.387 54.39 119.135 54.418 118.863 54.474C118.599 54.53 118.319 54.626 118.023 54.762C117.871 54.834 117.735 54.854 117.615 54.822C117.503 54.79 117.415 54.726 117.351 54.63C117.287 54.526 117.255 54.414 117.255 54.294C117.255 54.174 117.287 54.058 117.351 53.946C117.415 53.826 117.523 53.738 117.675 53.682C118.043 53.53 118.395 53.422 118.731 53.358C119.075 53.294 119.387 53.262 119.667 53.262C120.243 53.262 120.715 53.35 121.083 53.526C121.459 53.702 121.739 53.97 121.923 54.33C122.107 54.682 122.199 55.138 122.199 55.698V58.578C122.199 58.826 122.139 59.018 122.019 59.154C121.899 59.282 121.727 59.346 121.503 59.346C121.279 59.346 121.103 59.282 120.975 59.154C120.855 59.018 120.795 58.826 120.795 58.578V58.002H120.891C120.835 58.282 120.723 58.526 120.555 58.734C120.395 58.934 120.191 59.09 119.943 59.202C119.695 59.314 119.411 59.37 119.091 59.37ZM124.489 59.346C124.241 59.346 124.049 59.282 123.913 59.154C123.785 59.018 123.721 58.826 123.721 58.578V54.042C123.721 53.794 123.785 53.606 123.913 53.478C124.041 53.35 124.221 53.286 124.453 53.286C124.685 53.286 124.865 53.35 124.993 53.478C125.121 53.606 125.185 53.794 125.185 54.042V54.798H125.065C125.177 54.318 125.397 53.954 125.725 53.706C126.053 53.458 126.489 53.31 127.033 53.262C127.201 53.246 127.333 53.29 127.429 53.394C127.533 53.49 127.593 53.642 127.609 53.85C127.625 54.05 127.577 54.214 127.465 54.342C127.361 54.462 127.201 54.534 126.985 54.558L126.721 54.582C126.233 54.63 125.865 54.782 125.617 55.038C125.369 55.286 125.245 55.638 125.245 56.094V58.578C125.245 58.826 125.181 59.018 125.053 59.154C124.925 59.282 124.737 59.346 124.489 59.346ZM130.294 59.37C129.87 59.37 129.49 59.29 129.154 59.13C128.826 58.962 128.566 58.738 128.374 58.458C128.19 58.178 128.098 57.862 128.098 57.51C128.098 57.078 128.21 56.738 128.434 56.49C128.658 56.234 129.022 56.05 129.526 55.938C130.03 55.826 130.706 55.77 131.554 55.77H132.154V56.634H131.566C131.07 56.634 130.674 56.658 130.378 56.706C130.082 56.754 129.87 56.838 129.742 56.958C129.622 57.07 129.562 57.23 129.562 57.438C129.562 57.702 129.654 57.918 129.838 58.086C130.022 58.254 130.278 58.338 130.606 58.338C130.87 58.338 131.102 58.278 131.302 58.158C131.51 58.03 131.674 57.858 131.794 57.642C131.914 57.426 131.974 57.178 131.974 56.898V55.518C131.974 55.118 131.886 54.83 131.71 54.654C131.534 54.478 131.238 54.39 130.822 54.39C130.59 54.39 130.338 54.418 130.066 54.474C129.802 54.53 129.522 54.626 129.226 54.762C129.074 54.834 128.938 54.854 128.818 54.822C128.706 54.79 128.618 54.726 128.554 54.63C128.49 54.526 128.458 54.414 128.458 54.294C128.458 54.174 128.49 54.058 128.554 53.946C128.618 53.826 128.726 53.738 128.878 53.682C129.246 53.53 129.598 53.422 129.934 53.358C130.278 53.294 130.59 53.262 130.87 53.262C131.446 53.262 131.918 53.35 132.286 53.526C132.662 53.702 132.942 53.97 133.126 54.33C133.31 54.682 133.402 55.138 133.402 55.698V58.578C133.402 58.826 133.342 59.018 133.222 59.154C133.102 59.282 132.93 59.346 132.706 59.346C132.482 59.346 132.306 59.282 132.178 59.154C132.058 59.018 131.998 58.826 131.998 58.578V58.002H132.094C132.038 58.282 131.926 58.526 131.758 58.734C131.598 58.934 131.394 59.09 131.146 59.202C130.898 59.314 130.614 59.37 130.294 59.37ZM138.926 59.334C138.686 59.334 138.502 59.262 138.374 59.118C138.246 58.974 138.182 58.774 138.182 58.518V54.114C138.182 53.85 138.246 53.65 138.374 53.514C138.502 53.37 138.686 53.298 138.926 53.298C139.166 53.298 139.35 53.37 139.478 53.514C139.614 53.65 139.682 53.85 139.682 54.114V58.518C139.682 58.774 139.618 58.974 139.49 59.118C139.362 59.262 139.174 59.334 138.926 59.334ZM138.926 52.182C138.646 52.182 138.426 52.114 138.266 51.978C138.114 51.834 138.038 51.638 138.038 51.39C138.038 51.134 138.114 50.938 138.266 50.802C138.426 50.666 138.646 50.598 138.926 50.598C139.214 50.598 139.434 50.666 139.586 50.802C139.738 50.938 139.814 51.134 139.814 51.39C139.814 51.638 139.738 51.834 139.586 51.978C139.434 52.114 139.214 52.182 138.926 52.182ZM141.985 59.346C141.745 59.346 141.561 59.282 141.433 59.154C141.305 59.018 141.241 58.826 141.241 58.578V54.042C141.241 53.794 141.305 53.606 141.433 53.478C141.561 53.35 141.741 53.286 141.973 53.286C142.205 53.286 142.385 53.35 142.513 53.478C142.641 53.606 142.705 53.794 142.705 54.042V54.858L142.573 54.558C142.749 54.134 143.021 53.814 143.389 53.598C143.765 53.374 144.189 53.262 144.661 53.262C145.133 53.262 145.521 53.35 145.825 53.526C146.129 53.702 146.357 53.97 146.509 54.33C146.661 54.682 146.737 55.13 146.737 55.674V58.578C146.737 58.826 146.673 59.018 146.545 59.154C146.417 59.282 146.233 59.346 145.993 59.346C145.753 59.346 145.565 59.282 145.429 59.154C145.301 59.018 145.237 58.826 145.237 58.578V55.746C145.237 55.29 145.149 54.958 144.973 54.75C144.805 54.542 144.541 54.438 144.181 54.438C143.741 54.438 143.389 54.578 143.125 54.858C142.869 55.13 142.741 55.494 142.741 55.95V58.578C142.741 59.09 142.489 59.346 141.985 59.346ZM150.948 59.37C150.428 59.37 149.992 59.282 149.64 59.106C149.296 58.93 149.04 58.674 148.872 58.338C148.704 57.994 148.62 57.57 148.62 57.066V54.51H147.996C147.804 54.51 147.656 54.462 147.552 54.366C147.448 54.262 147.396 54.122 147.396 53.946C147.396 53.762 147.448 53.622 147.552 53.526C147.656 53.43 147.804 53.382 147.996 53.382H148.62V52.29C148.62 52.042 148.684 51.854 148.812 51.726C148.948 51.598 149.136 51.534 149.376 51.534C149.616 51.534 149.8 51.598 149.928 51.726C150.056 51.854 150.12 52.042 150.12 52.29V53.382H151.392C151.584 53.382 151.732 53.43 151.836 53.526C151.94 53.622 151.992 53.762 151.992 53.946C151.992 54.122 151.94 54.262 151.836 54.366C151.732 54.462 151.584 54.51 151.392 54.51H150.12V56.982C150.12 57.366 150.204 57.654 150.372 57.846C150.54 58.038 150.812 58.134 151.188 58.134C151.324 58.134 151.444 58.122 151.548 58.098C151.652 58.074 151.744 58.058 151.824 58.05C151.92 58.042 152 58.074 152.064 58.146C152.128 58.21 152.16 58.346 152.16 58.554C152.16 58.714 152.132 58.858 152.076 58.986C152.028 59.106 151.936 59.19 151.8 59.238C151.696 59.27 151.56 59.298 151.392 59.322C151.224 59.354 151.076 59.37 150.948 59.37ZM155.699 59.37C155.035 59.37 154.463 59.246 153.983 58.998C153.503 58.75 153.131 58.398 152.867 57.942C152.611 57.486 152.483 56.946 152.483 56.322C152.483 55.714 152.607 55.182 152.855 54.726C153.111 54.27 153.459 53.914 153.899 53.658C154.347 53.394 154.855 53.262 155.423 53.262C155.839 53.262 156.211 53.33 156.539 53.466C156.875 53.602 157.159 53.798 157.391 54.054C157.631 54.31 157.811 54.622 157.931 54.99C158.059 55.35 158.123 55.758 158.123 56.214C158.123 56.358 158.071 56.47 157.967 56.55C157.871 56.622 157.731 56.658 157.547 56.658H153.695V55.794H157.067L156.875 55.974C156.875 55.606 156.819 55.298 156.707 55.05C156.603 54.802 156.447 54.614 156.239 54.486C156.039 54.35 155.787 54.282 155.483 54.282C155.147 54.282 154.859 54.362 154.619 54.522C154.387 54.674 154.207 54.894 154.079 55.182C153.959 55.462 153.899 55.798 153.899 56.19V56.274C153.899 56.93 154.051 57.422 154.355 57.75C154.667 58.07 155.123 58.23 155.723 58.23C155.931 58.23 156.163 58.206 156.419 58.158C156.683 58.102 156.931 58.01 157.163 57.882C157.331 57.786 157.479 57.746 157.607 57.762C157.735 57.77 157.835 57.814 157.907 57.894C157.987 57.974 158.035 58.074 158.051 58.194C158.067 58.306 158.043 58.422 157.979 58.542C157.923 58.662 157.823 58.766 157.679 58.854C157.399 59.03 157.075 59.162 156.707 59.25C156.347 59.33 156.011 59.37 155.699 59.37ZM160.079 59.346C159.831 59.346 159.639 59.282 159.503 59.154C159.375 59.018 159.311 58.826 159.311 58.578V54.042C159.311 53.794 159.375 53.606 159.503 53.478C159.631 53.35 159.811 53.286 160.043 53.286C160.275 53.286 160.455 53.35 160.583 53.478C160.711 53.606 160.775 53.794 160.775 54.042V54.798H160.655C160.767 54.318 160.987 53.954 161.315 53.706C161.643 53.458 162.079 53.31 162.623 53.262C162.791 53.246 162.923 53.29 163.019 53.394C163.123 53.49 163.183 53.642 163.199 53.85C163.215 54.05 163.167 54.214 163.055 54.342C162.951 54.462 162.791 54.534 162.575 54.558L162.311 54.582C161.823 54.63 161.455 54.782 161.207 55.038C160.959 55.286 160.835 55.638 160.835 56.094V58.578C160.835 58.826 160.771 59.018 160.643 59.154C160.515 59.282 160.327 59.346 160.079 59.346ZM165.884 59.37C165.46 59.37 165.08 59.29 164.744 59.13C164.416 58.962 164.156 58.738 163.964 58.458C163.78 58.178 163.688 57.862 163.688 57.51C163.688 57.078 163.8 56.738 164.024 56.49C164.248 56.234 164.612 56.05 165.116 55.938C165.62 55.826 166.296 55.77 167.144 55.77H167.744V56.634H167.156C166.66 56.634 166.264 56.658 165.968 56.706C165.672 56.754 165.46 56.838 165.332 56.958C165.212 57.07 165.152 57.23 165.152 57.438C165.152 57.702 165.244 57.918 165.428 58.086C165.612 58.254 165.868 58.338 166.196 58.338C166.46 58.338 166.692 58.278 166.892 58.158C167.1 58.03 167.264 57.858 167.384 57.642C167.504 57.426 167.564 57.178 167.564 56.898V55.518C167.564 55.118 167.476 54.83 167.3 54.654C167.124 54.478 166.828 54.39 166.412 54.39C166.18 54.39 165.928 54.418 165.656 54.474C165.392 54.53 165.112 54.626 164.816 54.762C164.664 54.834 164.528 54.854 164.408 54.822C164.296 54.79 164.208 54.726 164.144 54.63C164.08 54.526 164.048 54.414 164.048 54.294C164.048 54.174 164.08 54.058 164.144 53.946C164.208 53.826 164.316 53.738 164.468 53.682C164.836 53.53 165.188 53.422 165.524 53.358C165.868 53.294 166.18 53.262 166.46 53.262C167.036 53.262 167.508 53.35 167.876 53.526C168.252 53.702 168.532 53.97 168.716 54.33C168.9 54.682 168.992 55.138 168.992 55.698V58.578C168.992 58.826 168.932 59.018 168.812 59.154C168.692 59.282 168.52 59.346 168.296 59.346C168.072 59.346 167.896 59.282 167.768 59.154C167.648 59.018 167.588 58.826 167.588 58.578V58.002H167.684C167.628 58.282 167.516 58.526 167.348 58.734C167.188 58.934 166.984 59.09 166.736 59.202C166.488 59.314 166.204 59.37 165.884 59.37ZM173.25 61.53C172.818 61.53 172.398 61.49 171.99 61.41C171.59 61.33 171.226 61.206 170.898 61.038C170.746 60.958 170.642 60.862 170.586 60.75C170.538 60.638 170.522 60.522 170.538 60.402C170.562 60.29 170.61 60.19 170.682 60.102C170.762 60.014 170.858 59.954 170.97 59.922C171.082 59.89 171.198 59.906 171.318 59.97C171.67 60.146 172.002 60.258 172.314 60.306C172.634 60.362 172.906 60.39 173.13 60.39C173.666 60.39 174.066 60.258 174.33 59.994C174.602 59.738 174.738 59.354 174.738 58.842V57.762H174.846C174.726 58.17 174.474 58.498 174.09 58.746C173.714 58.986 173.286 59.106 172.806 59.106C172.278 59.106 171.818 58.986 171.426 58.746C171.034 58.498 170.73 58.154 170.514 57.714C170.298 57.274 170.19 56.762 170.19 56.178C170.19 55.738 170.25 55.342 170.37 54.99C170.498 54.63 170.674 54.322 170.898 54.066C171.13 53.81 171.406 53.614 171.726 53.478C172.054 53.334 172.414 53.262 172.806 53.262C173.302 53.262 173.734 53.386 174.102 53.634C174.478 53.874 174.722 54.194 174.834 54.594L174.714 54.894V54.042C174.714 53.794 174.778 53.606 174.906 53.478C175.042 53.35 175.226 53.286 175.458 53.286C175.698 53.286 175.882 53.35 176.01 53.478C176.138 53.606 176.202 53.794 176.202 54.042V58.662C176.202 59.614 175.95 60.33 175.446 60.81C174.942 61.29 174.21 61.53 173.25 61.53ZM173.214 57.966C173.526 57.966 173.794 57.894 174.018 57.75C174.242 57.606 174.414 57.402 174.534 57.138C174.662 56.866 174.726 56.546 174.726 56.178C174.726 55.626 174.59 55.194 174.318 54.882C174.046 54.562 173.678 54.402 173.214 54.402C172.902 54.402 172.634 54.474 172.41 54.618C172.186 54.762 172.01 54.966 171.882 55.23C171.762 55.494 171.702 55.81 171.702 56.178C171.702 56.73 171.838 57.166 172.11 57.486C172.382 57.806 172.75 57.966 173.214 57.966ZM178.501 59.334C178.261 59.334 178.077 59.262 177.949 59.118C177.821 58.974 177.757 58.774 177.757 58.518V54.114C177.757 53.85 177.821 53.65 177.949 53.514C178.077 53.37 178.261 53.298 178.501 53.298C178.741 53.298 178.925 53.37 179.053 53.514C179.189 53.65 179.257 53.85 179.257 54.114V58.518C179.257 58.774 179.193 58.974 179.065 59.118C178.937 59.262 178.749 59.334 178.501 59.334ZM178.501 52.182C178.221 52.182 178.001 52.114 177.841 51.978C177.689 51.834 177.613 51.638 177.613 51.39C177.613 51.134 177.689 50.938 177.841 50.802C178.001 50.666 178.221 50.598 178.501 50.598C178.789 50.598 179.009 50.666 179.161 50.802C179.313 50.938 179.389 51.134 179.389 51.39C179.389 51.638 179.313 51.834 179.161 51.978C179.009 52.114 178.789 52.182 178.501 52.182ZM181.583 59.346C181.335 59.346 181.143 59.282 181.007 59.154C180.879 59.018 180.815 58.826 180.815 58.578V54.042C180.815 53.794 180.879 53.606 181.007 53.478C181.135 53.35 181.315 53.286 181.547 53.286C181.779 53.286 181.959 53.35 182.087 53.478C182.215 53.606 182.279 53.794 182.279 54.042V54.798H182.159C182.271 54.318 182.491 53.954 182.819 53.706C183.147 53.458 183.583 53.31 184.127 53.262C184.295 53.246 184.427 53.29 184.523 53.394C184.627 53.49 184.687 53.642 184.703 53.85C184.719 54.05 184.671 54.214 184.559 54.342C184.455 54.462 184.295 54.534 184.079 54.558L183.815 54.582C183.327 54.63 182.959 54.782 182.711 55.038C182.463 55.286 182.339 55.638 182.339 56.094V58.578C182.339 58.826 182.275 59.018 182.147 59.154C182.019 59.282 181.831 59.346 181.583 59.346Z" fill="#157D64"/>
</svg>
