<svg width="40" height="43" viewBox="0 0 40 43" fill="none" xmlns="http://www.w3.org/2000/svg">
<g filter="url(#filter0_d_17_1949)">
<circle cx="19.989" cy="19.989" r="19.989" fill="#4CDAFE"/>
<circle cx="19.989" cy="19.989" r="18.489" stroke="white" stroke-width="3"/>
</g>
<path d="M20.0208 9.49081C20.914 9.49092 21.7509 9.84912 22.3749 10.4962L29.5217 17.8654C30.8087 19.1926 30.8083 21.3434 29.5217 22.67L29.5227 22.671C29.0034 23.2092 28.3361 23.5455 27.6142 23.6439V27.2296C27.6142 29.0135 26.2068 30.4868 24.4397 30.4868H15.5379C13.7708 30.4867 12.3643 29.0134 12.3643 27.2296V23.6439C11.6417 23.5452 10.9743 23.208 10.4539 22.67V22.669C9.83255 22.0302 9.4909 21.1746 9.49081 20.2706C9.49081 19.3656 9.83279 18.5093 10.4588 17.8644L17.6076 10.4913C18.2317 9.84771 19.067 9.49083 19.9568 9.49081H20.0208ZM19.9883 23.7324C19.3064 23.7324 18.8236 24.2343 18.8236 24.7703V26.6059C18.8236 27.1421 19.3065 27.6438 19.9883 27.6438C20.6708 27.6437 21.154 27.1416 21.154 26.6059V24.7703C21.154 24.2344 20.6707 23.7325 19.9883 23.7324Z" fill="white" stroke="#00ADE3"/>
<defs>
<filter id="filter0_d_17_1949" x="0" y="0" width="39.978" height="43" filterUnits="userSpaceOnUse" color-interpolation-filters="sRGB">
<feFlood flood-opacity="0" result="BackgroundImageFix"/>
<feColorMatrix in="SourceAlpha" type="matrix" values="0 0 0 0 0 0 0 0 0 0 0 0 0 0 0 0 0 0 127 0" result="hardAlpha"/>
<feOffset dy="3"/>
<feComposite in2="hardAlpha" operator="out"/>
<feColorMatrix type="matrix" values="0 0 0 0 0.00392157 0 0 0 0 0.705882 0 0 0 0 0.929412 0 0 0 1 0"/>
<feBlend mode="normal" in2="BackgroundImageFix" result="effect1_dropShadow_17_1949"/>
<feBlend mode="normal" in="SourceGraphic" in2="effect1_dropShadow_17_1949" result="shape"/>
</filter>
</defs>
</svg>
