<svg width="31" height="30" viewBox="0 0 31 30" fill="none" xmlns="http://www.w3.org/2000/svg">
<path d="M11.6881 1.80761C13.4058 0.0784264 16.2017 0.0780336 17.9185 1.80761H17.9175C18.7481 2.64255 19.2077 3.75707 19.2077 4.93826C19.2077 6.11927 18.7481 7.23351 17.9175 8.06793L15.5396 10.4648H26.0991C28.5307 10.4648 30.4886 12.4831 30.489 14.9404C30.489 17.3995 28.5308 19.4181 26.0991 19.4181H15.5416L17.9185 21.8129C18.7496 22.6514 19.2077 23.7642 19.2077 24.9456C19.2076 26.1287 18.7459 27.2411 17.9145 28.0772L17.9155 28.0782C17.0906 28.9108 15.9811 29.3753 14.8038 29.3753C13.6983 29.3753 12.6548 28.967 11.8447 28.2248L11.6861 28.0722L1.79465 18.113C0.966079 17.279 0.510477 16.1659 0.510477 14.9853V14.8956C0.510477 13.7114 0.968686 12.5962 1.80162 11.7619L11.6881 1.80761Z" fill="white" stroke="#01668E"/>
</svg>
