<svg width="130" height="77" viewBox="0 0 130 77" fill="none" xmlns="http://www.w3.org/2000/svg">
<g filter="url(#filter0_d_4_2171)">
<rect x="4" y="4" width="122" height="67" rx="33.5" fill="#52C125"/>
<rect x="2" y="2" width="126" height="71" rx="35.5" stroke="white" stroke-width="4"/>
</g>
<rect x="5.00926" y="4" width="118.972" height="63.0588" rx="31.5294" fill="#67EB00"/>
<path d="M27.2239 44.18C26.6372 44.18 26.1839 44.02 25.8639 43.7C25.5439 43.3667 25.3839 42.9 25.3839 42.3V31.6C25.3839 30.9867 25.5439 30.52 25.8639 30.2C26.1839 29.88 26.6372 29.72 27.2239 29.72C27.8239 29.72 28.2772 29.88 28.5839 30.2C28.9039 30.52 29.0639 30.9867 29.0639 31.6V42.3C29.0639 42.9 28.9106 43.3667 28.6039 43.7C28.2972 44.02 27.8372 44.18 27.2239 44.18ZM34.1344 44.18C33.5744 44.18 33.1477 44.0333 32.8544 43.74C32.561 43.4467 32.4144 43.0133 32.4144 42.44V31.54C32.4144 30.9533 32.561 30.5067 32.8544 30.2C33.1477 29.88 33.5344 29.72 34.0144 29.72C34.441 29.72 34.7744 29.8 35.0144 29.96C35.2544 30.12 35.521 30.3867 35.8144 30.76L42.1544 38.68H41.5944V31.44C41.5944 30.88 41.7344 30.4533 42.0144 30.16C42.3077 29.8667 42.7344 29.72 43.2944 29.72C43.8544 29.72 44.2744 29.8667 44.5544 30.16C44.8477 30.4533 44.9944 30.88 44.9944 31.44V42.52C44.9944 43.0267 44.861 43.4333 44.5944 43.74C44.3277 44.0333 43.9677 44.18 43.5144 44.18C43.061 44.18 42.701 44.1 42.4344 43.94C42.181 43.7667 41.9077 43.5 41.6144 43.14L35.2744 35.2H35.8344V42.44C35.8344 43.0133 35.6877 43.4467 35.3944 43.74C35.1144 44.0333 34.6944 44.18 34.1344 44.18ZM50.2106 44.18C49.624 44.18 49.1706 44.02 48.8506 43.7C48.5306 43.3667 48.3706 42.9 48.3706 42.3V31.6C48.3706 30.9867 48.5306 30.52 48.8506 30.2C49.1706 29.88 49.624 29.72 50.2106 29.72C50.8106 29.72 51.264 29.88 51.5706 30.2C51.8906 30.52 52.0506 30.9867 52.0506 31.6V42.3C52.0506 42.9 51.8973 43.3667 51.5906 43.7C51.284 44.02 50.824 44.18 50.2106 44.18ZM62.5211 44.22C60.9611 44.22 59.6211 43.92 58.5011 43.32C57.3811 42.72 56.5211 41.8733 55.9211 40.78C55.3344 39.6867 55.0411 38.4067 55.0411 36.94C55.0411 35.8467 55.2078 34.8533 55.5411 33.96C55.8878 33.0667 56.3811 32.3 57.0211 31.66C57.6744 31.02 58.4611 30.5333 59.3811 30.2C60.3144 29.8533 61.3611 29.68 62.5211 29.68C63.1344 29.68 63.7678 29.7533 64.4211 29.9C65.0878 30.0333 65.6744 30.24 66.1811 30.52C66.5544 30.72 66.8144 30.9733 66.9611 31.28C67.1078 31.5867 67.1544 31.9 67.1011 32.22C67.0611 32.54 66.9478 32.8267 66.7611 33.08C66.5744 33.3333 66.3344 33.5067 66.0411 33.6C65.7478 33.68 65.4278 33.6333 65.0811 33.46C64.6811 33.2733 64.2811 33.1333 63.8811 33.04C63.4944 32.9333 63.0878 32.88 62.6611 32.88C61.8344 32.88 61.1411 33.04 60.5811 33.36C60.0344 33.6667 59.6211 34.12 59.3411 34.72C59.0611 35.32 58.9211 36.06 58.9211 36.94C58.9211 37.82 59.0611 38.5667 59.3411 39.18C59.6211 39.78 60.0344 40.24 60.5811 40.56C61.1411 40.8667 61.8344 41.02 62.6611 41.02C63.0078 41.02 63.3811 40.98 63.7811 40.9C64.1811 40.8067 64.5744 40.6667 64.9611 40.48C65.3611 40.3067 65.7144 40.26 66.0211 40.34C66.3411 40.42 66.5944 40.58 66.7811 40.82C66.9811 41.06 67.1078 41.34 67.1611 41.66C67.2144 41.9667 67.1678 42.2733 67.0211 42.58C66.8878 42.8867 66.6478 43.1333 66.3011 43.32C65.8344 43.6 65.2544 43.82 64.5611 43.98C63.8811 44.14 63.2011 44.22 62.5211 44.22ZM71.8106 44.18C71.224 44.18 70.7706 44.02 70.4506 43.7C70.1306 43.3667 69.9706 42.9 69.9706 42.3V31.6C69.9706 30.9867 70.1306 30.52 70.4506 30.2C70.7706 29.88 71.224 29.72 71.8106 29.72C72.4106 29.72 72.864 29.88 73.1706 30.2C73.4906 30.52 73.6506 30.9867 73.6506 31.6V42.3C73.6506 42.9 73.4973 43.3667 73.1906 43.7C72.884 44.02 72.424 44.18 71.8106 44.18ZM77.6611 44.18C77.2478 44.18 76.9011 44.0867 76.6211 43.9C76.3411 43.7 76.1678 43.4333 76.1011 43.1C76.0344 42.7533 76.0944 42.3667 76.2811 41.94L81.2611 31.22C81.5011 30.7 81.7944 30.32 82.1411 30.08C82.5011 29.84 82.9078 29.72 83.3611 29.72C83.8144 29.72 84.2078 29.84 84.5411 30.08C84.8878 30.32 85.1878 30.7 85.4411 31.22L90.4211 41.94C90.6344 42.3667 90.7078 42.7533 90.6411 43.1C90.5878 43.4467 90.4211 43.7133 90.1411 43.9C89.8744 44.0867 89.5411 44.18 89.1411 44.18C88.6078 44.18 88.1944 44.06 87.9011 43.82C87.6211 43.58 87.3678 43.1933 87.1411 42.66L86.0611 40.12L87.4611 41.14H79.2211L80.6411 40.12L79.5611 42.66C79.3211 43.1933 79.0744 43.58 78.8211 43.82C78.5678 44.06 78.1811 44.18 77.6611 44.18ZM83.3211 33.74L81.0011 39.28L80.4411 38.32H86.2611L85.7011 39.28L83.3611 33.74H83.3211ZM94.895 44.18C94.3083 44.18 93.855 44.02 93.535 43.7C93.215 43.3667 93.055 42.9067 93.055 42.32V31.76C93.055 31.16 93.215 30.7 93.535 30.38C93.8683 30.06 94.3283 29.9 94.915 29.9H99.835C101.435 29.9 102.668 30.2933 103.535 31.08C104.415 31.8533 104.855 32.9333 104.855 34.32C104.855 35.2133 104.655 35.9933 104.255 36.66C103.868 37.3133 103.302 37.82 102.555 38.18C101.822 38.5267 100.915 38.7 99.835 38.7L99.995 38.34H100.955C101.528 38.34 102.035 38.48 102.475 38.76C102.915 39.0267 103.282 39.44 103.575 40L104.575 41.8C104.788 42.1867 104.888 42.5667 104.875 42.94C104.862 43.3 104.715 43.6 104.435 43.84C104.168 44.0667 103.775 44.18 103.255 44.18C102.735 44.18 102.308 44.0733 101.975 43.86C101.655 43.6467 101.368 43.3133 101.115 42.86L99.295 39.52C99.135 39.2267 98.9283 39.0267 98.675 38.92C98.435 38.8 98.155 38.74 97.835 38.74H96.735V42.32C96.735 42.9067 96.5817 43.3667 96.275 43.7C95.9683 44.02 95.5083 44.18 94.895 44.18ZM96.735 36.14H99.175C99.8817 36.14 100.422 36 100.795 35.72C101.168 35.44 101.355 35.0067 101.355 34.42C101.355 33.86 101.168 33.44 100.795 33.16C100.422 32.8667 99.8817 32.72 99.175 32.72H96.735V36.14Z" fill="#15752F"/>
<defs>
<filter id="filter0_d_4_2171" x="0" y="0" width="130" height="77" filterUnits="userSpaceOnUse" color-interpolation-filters="sRGB">
<feFlood flood-opacity="0" result="BackgroundImageFix"/>
<feColorMatrix in="SourceAlpha" type="matrix" values="0 0 0 0 0 0 0 0 0 0 0 0 0 0 0 0 0 0 127 0" result="hardAlpha"/>
<feOffset dy="2"/>
<feComposite in2="hardAlpha" operator="out"/>
<feColorMatrix type="matrix" values="0 0 0 0 0 0 0 0 0 0 0 0 0 0 0 0 0 0 0.15 0"/>
<feBlend mode="normal" in2="BackgroundImageFix" result="effect1_dropShadow_4_2171"/>
<feBlend mode="normal" in="SourceGraphic" in2="effect1_dropShadow_4_2171" result="shape"/>
</filter>
</defs>
</svg>
