<svg width="26" height="26" viewBox="0 0 26 26" fill="none" xmlns="http://www.w3.org/2000/svg">
<path d="M13.0381 0.5C14.0817 0.500112 15.0594 0.918274 15.7891 1.6748L24.3701 10.5234C25.8761 12.0765 25.8758 14.5944 24.3701 16.1465L24.3711 16.1475C23.7419 16.7994 22.9282 17.1977 22.0498 17.2959V21.6934C22.0498 23.7804 20.4046 25.5 18.3438 25.5H7.65625C5.59542 25.5 3.9502 23.7804 3.9502 21.6934V17.2959C3.07145 17.1973 2.25814 16.7978 1.62793 16.1465V16.1475C0.900306 15.4003 0.50003 14.3976 0.5 13.3379C0.5 12.2778 0.901165 11.2759 1.63379 10.5215L10.2158 1.66895C10.9456 0.916388 11.9223 0.5 12.9619 0.5H13.0381ZM12.999 17.3896C12.1303 17.3896 11.4951 18.0321 11.4951 18.7412V20.9453C11.4952 21.6545 12.1305 22.2959 12.999 22.2959C13.8684 22.2959 14.5028 21.6541 14.5029 20.9453V18.7412C14.5029 18.0322 13.8683 17.3897 12.999 17.3896Z" fill="white" stroke="#01668E"/>
</svg>
