<svg width="40" height="43" viewBox="0 0 40 43" fill="none" xmlns="http://www.w3.org/2000/svg">
<g filter="url(#filter0_d_17_1952)">
<circle cx="19.989" cy="19.989" r="19.989" fill="#FFF635"/>
<circle cx="19.989" cy="19.989" r="18.489" stroke="white" stroke-width="3"/>
</g>
<path d="M17.7261 9.6663C19.1613 8.22131 21.4973 8.22108 22.932 9.6663L23.0589 9.79911C23.6728 10.4798 24.0092 11.3572 24.0092 12.2821C24.0091 13.207 23.6721 14.0837 23.0579 14.764L22.932 14.8968L21.1387 16.703H29.5447C31.5781 16.7033 33.2128 18.3904 33.2131 20.4412L33.2082 20.633C33.1101 22.5977 31.5146 24.1813 29.5447 24.1814H21.1416L22.933 25.9856L23.0589 26.1203C23.673 26.8032 24.0102 27.6782 24.0102 28.6033C24.0101 29.5917 23.6247 30.5226 22.9301 31.221L22.9291 31.22C22.2398 31.9155 21.3135 32.3041 20.33 32.3041C19.3446 32.3041 18.4177 31.9159 17.7241 31.2151V31.2141L9.65547 23.0904C8.96315 22.3936 8.58221 21.4635 8.58221 20.4776V20.4038C8.58231 19.415 8.96555 18.4841 9.66137 17.7871L17.7261 9.6663Z" fill="white" stroke="#FFC90C"/>
<defs>
<filter id="filter0_d_17_1952" x="0" y="0" width="39.978" height="43" filterUnits="userSpaceOnUse" color-interpolation-filters="sRGB">
<feFlood flood-opacity="0" result="BackgroundImageFix"/>
<feColorMatrix in="SourceAlpha" type="matrix" values="0 0 0 0 0 0 0 0 0 0 0 0 0 0 0 0 0 0 127 0" result="hardAlpha"/>
<feOffset dy="3"/>
<feComposite in2="hardAlpha" operator="out"/>
<feColorMatrix type="matrix" values="0 0 0 0 1 0 0 0 0 0.801083 0 0 0 0 0.0958334 0 0 0 1 0"/>
<feBlend mode="normal" in2="BackgroundImageFix" result="effect1_dropShadow_17_1952"/>
<feBlend mode="normal" in="SourceGraphic" in2="effect1_dropShadow_17_1952" result="shape"/>
</filter>
</defs>
</svg>
