<svg width="95" height="11" viewBox="0 0 95 11" fill="none" xmlns="http://www.w3.org/2000/svg">
          <path
            d="M0.744169 8.65345C0.504129 8.65345 0.320098 8.58943 0.192077 8.46141C0.0640557 8.32539 4.49494e-05 8.13336 4.49494e-05 7.88532V3.34856C4.49494e-05 3.10052 0.0640557 2.91249 0.192077 2.78446C0.320098 2.65644 0.500129 2.59243 0.732167 2.59243C0.964206 2.59243 1.14424 2.65644 1.27226 2.78446C1.40028 2.91249 1.46429 3.10052 1.46429 3.34856V4.22471L1.33227 3.86464C1.49229 3.46458 1.74034 3.14853 2.07639 2.91649C2.41245 2.68445 2.81251 2.56843 3.27659 2.56843C3.74867 2.56843 4.13674 2.68045 4.44079 2.90448C4.74484 3.12852 4.95687 3.47258 5.07689 3.93666H4.90887C5.06889 3.51259 5.33294 3.18053 5.701 2.94049C6.06906 2.69245 6.49313 2.56843 6.97321 2.56843C7.42129 2.56843 7.78935 2.65644 8.07739 2.83247C8.37344 3.0085 8.59348 3.27655 8.7375 3.63661C8.88153 3.98867 8.95354 4.43674 8.95354 4.98083V7.88532C8.95354 8.13336 8.88553 8.32539 8.74951 8.46141C8.62149 8.58943 8.43745 8.65345 8.19741 8.65345C7.95737 8.65345 7.77334 8.58943 7.64532 8.46141C7.5173 8.32539 7.45329 8.13336 7.45329 7.88532V5.04084C7.45329 4.59277 7.37728 4.26471 7.22525 4.05668C7.08123 3.84864 6.83319 3.74462 6.48113 3.74462C6.08906 3.74462 5.78101 3.88465 5.55697 4.1647C5.33294 4.43674 5.22092 4.8168 5.22092 5.30489V7.88532C5.22092 8.13336 5.15691 8.32539 5.02889 8.46141C4.90086 8.58943 4.71683 8.65345 4.47679 8.65345C4.23675 8.65345 4.04872 8.58943 3.9127 8.46141C3.78468 8.32539 3.72067 8.13336 3.72067 7.88532V5.04084C3.72067 4.59277 3.64465 4.26471 3.49263 4.05668C3.3486 3.84864 3.10456 3.74462 2.76051 3.74462C2.36844 3.74462 2.06039 3.88465 1.83635 4.1647C1.61231 4.43674 1.5003 4.8168 1.5003 5.30489V7.88532C1.5003 8.3974 1.24825 8.65345 0.744169 8.65345ZM13.1777 8.67745C12.5696 8.67745 12.0415 8.55343 11.5934 8.30539C11.1453 8.05735 10.7973 7.70529 10.5492 7.24921C10.3012 6.78513 10.1772 6.24104 10.1772 5.61694C10.1772 5.14486 10.2452 4.72479 10.3812 4.35673C10.5252 3.98066 10.7293 3.66061 10.9933 3.39657C11.2574 3.12452 11.5734 2.92049 11.9415 2.78446C12.3095 2.64044 12.7216 2.56843 13.1777 2.56843C13.7858 2.56843 14.3139 2.69245 14.7619 2.94049C15.21 3.18853 15.5581 3.54059 15.8061 3.99667C16.0542 4.45274 16.1782 4.99283 16.1782 5.61694C16.1782 6.08902 16.1062 6.51309 15.9621 6.88915C15.8261 7.26521 15.6261 7.58927 15.362 7.86131C15.098 8.12536 14.782 8.32939 14.4139 8.47342C14.0458 8.60944 13.6338 8.67745 13.1777 8.67745ZM13.1777 7.53726C13.4737 7.53726 13.7338 7.46525 13.9578 7.32122C14.1819 7.1772 14.3539 6.96516 14.4739 6.68512C14.6019 6.39707 14.6659 6.04101 14.6659 5.61694C14.6659 4.97683 14.5299 4.50075 14.2579 4.1887C13.9858 3.86865 13.6258 3.70862 13.1777 3.70862C12.8816 3.70862 12.6216 3.78063 12.3976 3.92466C12.1735 4.06068 11.9975 4.27271 11.8695 4.56076C11.7494 4.84081 11.6894 5.19287 11.6894 5.61694C11.6894 6.24904 11.8255 6.72912 12.0975 7.05718C12.3695 7.37723 12.7296 7.53726 13.1777 7.53726ZM19.6756 8.65345C19.4756 8.65345 19.2996 8.60144 19.1476 8.49742C19.0035 8.3934 18.8835 8.23338 18.7875 8.01734L16.8792 3.5886C16.8072 3.41257 16.7792 3.24854 16.7952 3.09652C16.8192 2.94449 16.8912 2.82447 17.0112 2.73646C17.1392 2.64044 17.3112 2.59243 17.5273 2.59243C17.7113 2.59243 17.8593 2.63644 17.9714 2.72445C18.0834 2.80447 18.1834 2.96049 18.2714 3.19253L19.8917 7.23721H19.5316L21.1999 3.18053C21.2879 2.95649 21.3879 2.80447 21.4999 2.72445C21.62 2.63644 21.78 2.59243 21.98 2.59243C22.1561 2.59243 22.2961 2.64044 22.4001 2.73646C22.5041 2.82447 22.5681 2.94449 22.5921 3.09652C22.6161 3.24054 22.5881 3.40057 22.5081 3.5766L20.5638 8.01734C20.4758 8.23338 20.3558 8.3934 20.2037 8.49742C20.0597 8.60144 19.8837 8.65345 19.6756 8.65345ZM25.4435 8.67745C25.0195 8.67745 24.6394 8.59744 24.3034 8.43741C23.9753 8.26938 23.7153 8.04534 23.5232 7.7653C23.3392 7.48525 23.2472 7.1692 23.2472 6.81714C23.2472 6.38507 23.3592 6.04501 23.5832 5.79697C23.8073 5.54093 24.1713 5.35689 24.6754 5.24488C25.1795 5.13286 25.8556 5.07685 26.7038 5.07685H27.3039V5.94099H26.7158C26.2197 5.94099 25.8236 5.965 25.5276 6.013C25.2315 6.06101 25.0195 6.14503 24.8915 6.26505C24.7714 6.37706 24.7114 6.53709 24.7114 6.74513C24.7114 7.00917 24.8034 7.22521 24.9875 7.39323C25.1715 7.56126 25.4275 7.64528 25.7556 7.64528C26.0196 7.64528 26.2517 7.58527 26.4517 7.46525C26.6597 7.33723 26.8238 7.1652 26.9438 6.94916C27.0638 6.73312 27.1238 6.48508 27.1238 6.20504V4.82481C27.1238 4.42474 27.0358 4.13669 26.8598 3.96066C26.6838 3.78463 26.3877 3.69662 25.9716 3.69662C25.7396 3.69662 25.4876 3.72462 25.2155 3.78063C24.9515 3.83664 24.6714 3.93266 24.3754 4.06868C24.2233 4.14069 24.0873 4.16069 23.9673 4.12869C23.8553 4.09668 23.7673 4.03267 23.7033 3.93666C23.6392 3.83264 23.6072 3.72062 23.6072 3.6006C23.6072 3.48058 23.6392 3.36456 23.7033 3.25254C23.7673 3.13252 23.8753 3.04451 24.0273 2.9885C24.3954 2.83647 24.7474 2.72846 25.0835 2.66444C25.4275 2.60043 25.7396 2.56843 26.0196 2.56843C26.5957 2.56843 27.0678 2.65644 27.4359 2.83247C27.8119 3.0085 28.092 3.27655 28.276 3.63661C28.46 3.98867 28.5521 4.44474 28.5521 5.00484V7.88532C28.5521 8.13336 28.4921 8.32539 28.372 8.46141C28.252 8.58943 28.08 8.65345 27.8559 8.65345C27.6319 8.65345 27.4559 8.58943 27.3279 8.46141C27.2078 8.32539 27.1478 8.13336 27.1478 7.88532V7.30922H27.2438C27.1878 7.58927 27.0758 7.83331 26.9078 8.04134C26.7478 8.24138 26.5437 8.3974 26.2957 8.50942C26.0476 8.62144 25.7636 8.67745 25.4435 8.67745ZM34.0773 10.8138C33.8373 10.8138 33.6532 10.7498 33.5252 10.6218C33.3972 10.4938 33.3332 10.3057 33.3332 10.0577V3.34856C33.3332 3.10052 33.3972 2.91249 33.5252 2.78446C33.6532 2.65644 33.8333 2.59243 34.0653 2.59243C34.3053 2.59243 34.4894 2.65644 34.6174 2.78446C34.7454 2.91249 34.8094 3.10052 34.8094 3.34856V4.28472L34.6774 3.92466C34.7974 3.51659 35.0415 3.18853 35.4095 2.94049C35.7856 2.69245 36.2217 2.56843 36.7177 2.56843C37.2298 2.56843 37.6779 2.69245 38.062 2.94049C38.454 3.18853 38.7581 3.54059 38.9741 3.99667C39.1902 4.44474 39.2982 4.98483 39.2982 5.61694C39.2982 6.24104 39.1902 6.78513 38.9741 7.24921C38.7581 7.70529 38.458 8.05735 38.074 8.30539C37.6899 8.55343 37.2378 8.67745 36.7177 8.67745C36.2297 8.67745 35.8016 8.55743 35.4335 8.31739C35.0655 8.06935 34.8174 7.74929 34.6894 7.35723H34.8334V10.0577C34.8334 10.3057 34.7654 10.4938 34.6294 10.6218C34.5014 10.7498 34.3173 10.8138 34.0773 10.8138ZM36.2977 7.53726C36.5937 7.53726 36.8538 7.46525 37.0778 7.32122C37.3018 7.1772 37.4739 6.96516 37.5939 6.68512C37.7219 6.39707 37.7859 6.04101 37.7859 5.61694C37.7859 4.97683 37.6499 4.50075 37.3779 4.1887C37.1058 3.86865 36.7457 3.70862 36.2977 3.70862C36.0016 3.70862 35.7416 3.78063 35.5175 3.92466C35.2935 4.06068 35.1175 4.27271 34.9895 4.56076C34.8694 4.84081 34.8094 5.19287 34.8094 5.61694C34.8094 6.24904 34.9454 6.72912 35.2175 7.05718C35.4895 7.37723 35.8496 7.53726 36.2977 7.53726ZM42.462 8.67745C42.0379 8.67745 41.6579 8.59744 41.3218 8.43741C40.9938 8.26938 40.7337 8.04534 40.5417 7.7653C40.3577 7.48525 40.2656 7.1692 40.2656 6.81714C40.2656 6.38507 40.3777 6.04501 40.6017 5.79697C40.8257 5.54093 41.1898 5.35689 41.6939 5.24488C42.198 5.13286 42.8741 5.07685 43.7222 5.07685H44.3223V5.94099H43.7342C43.2381 5.94099 42.8421 5.965 42.546 6.013C42.25 6.06101 42.0379 6.14503 41.9099 6.26505C41.7899 6.37706 41.7299 6.53709 41.7299 6.74513C41.7299 7.00917 41.8219 7.22521 42.0059 7.39323C42.19 7.56126 42.446 7.64528 42.7741 7.64528C43.0381 7.64528 43.2701 7.58527 43.4702 7.46525C43.6782 7.33723 43.8422 7.1652 43.9623 6.94916C44.0823 6.73312 44.1423 6.48508 44.1423 6.20504V4.82481C44.1423 4.42474 44.0543 4.13669 43.8782 3.96066C43.7022 3.78463 43.4062 3.69662 42.9901 3.69662C42.7581 3.69662 42.506 3.72462 42.234 3.78063C41.9699 3.83664 41.6899 3.93266 41.3938 4.06868C41.2418 4.14069 41.1058 4.16069 40.9858 4.12869C40.8737 4.09668 40.7857 4.03267 40.7217 3.93666C40.6577 3.83264 40.6257 3.72062 40.6257 3.6006C40.6257 3.48058 40.6577 3.36456 40.7217 3.25254C40.7857 3.13252 40.8938 3.04451 41.0458 2.9885C41.4138 2.83647 41.7659 2.72846 42.102 2.66444C42.446 2.60043 42.7581 2.56843 43.0381 2.56843C43.6142 2.56843 44.0863 2.65644 44.4543 2.83247C44.8304 3.0085 45.1105 3.27655 45.2945 3.63661C45.4785 3.98867 45.5705 4.44474 45.5705 5.00484V7.88532C45.5705 8.13336 45.5105 8.32539 45.3905 8.46141C45.2705 8.58943 45.0985 8.65345 44.8744 8.65345C44.6504 8.65345 44.4743 8.58943 44.3463 8.46141C44.2263 8.32539 44.1663 8.13336 44.1663 7.88532V7.30922H44.2623C44.2063 7.58927 44.0943 7.83331 43.9263 8.04134C43.7662 8.24138 43.5622 8.3974 43.3142 8.50942C43.0661 8.62144 42.7821 8.67745 42.462 8.67745ZM47.8614 8.65345C47.6134 8.65345 47.4213 8.58943 47.2853 8.46141C47.1573 8.32539 47.0933 8.13336 47.0933 7.88532V3.34856C47.0933 3.10052 47.1573 2.91249 47.2853 2.78446C47.4133 2.65644 47.5934 2.59243 47.8254 2.59243C48.0574 2.59243 48.2375 2.65644 48.3655 2.78446C48.4935 2.91249 48.5575 3.10052 48.5575 3.34856V4.10469H48.4375C48.5495 3.6246 48.7696 3.26054 49.0976 3.0125C49.4257 2.76446 49.8617 2.61644 50.4058 2.56843C50.5739 2.55243 50.7059 2.59643 50.8019 2.70045C50.9059 2.79647 50.9659 2.94849 50.9819 3.15653C50.9979 3.35656 50.9499 3.52059 50.8379 3.64861C50.7339 3.76863 50.5739 3.84064 50.3578 3.86464L50.0938 3.88865C49.6057 3.93666 49.2376 4.08868 48.9896 4.34473C48.7416 4.59277 48.6175 4.94483 48.6175 5.4009V7.88532C48.6175 8.13336 48.5535 8.32539 48.4255 8.46141C48.2975 8.58943 48.1095 8.65345 47.8614 8.65345ZM53.667 8.67745C53.2429 8.67745 52.8629 8.59744 52.5268 8.43741C52.1988 8.26938 51.9387 8.04534 51.7467 7.7653C51.5627 7.48525 51.4706 7.1692 51.4706 6.81714C51.4706 6.38507 51.5827 6.04501 51.8067 5.79697C52.0307 5.54093 52.3948 5.35689 52.8989 5.24488C53.403 5.13286 54.0791 5.07685 54.9272 5.07685H55.5273V5.94099H54.9392C54.4431 5.94099 54.0471 5.965 53.751 6.013C53.455 6.06101 53.2429 6.14503 53.1149 6.26505C52.9949 6.37706 52.9349 6.53709 52.9349 6.74513C52.9349 7.00917 53.0269 7.22521 53.2109 7.39323C53.395 7.56126 53.651 7.64528 53.9791 7.64528C54.2431 7.64528 54.4751 7.58527 54.6752 7.46525C54.8832 7.33723 55.0472 7.1652 55.1673 6.94916C55.2873 6.73312 55.3473 6.48508 55.3473 6.20504V4.82481C55.3473 4.42474 55.2593 4.13669 55.0832 3.96066C54.9072 3.78463 54.6112 3.69662 54.1951 3.69662C53.9631 3.69662 53.711 3.72462 53.439 3.78063C53.1749 3.83664 52.8949 3.93266 52.5988 4.06868C52.4468 4.14069 52.3108 4.16069 52.1908 4.12869C52.0787 4.09668 51.9907 4.03267 51.9267 3.93666C51.8627 3.83264 51.8307 3.72062 51.8307 3.6006C51.8307 3.48058 51.8627 3.36456 51.9267 3.25254C51.9907 3.13252 52.0987 3.04451 52.2508 2.9885C52.6188 2.83647 52.9709 2.72846 53.3069 2.66444C53.651 2.60043 53.9631 2.56843 54.2431 2.56843C54.8192 2.56843 55.2913 2.65644 55.6593 2.83247C56.0354 3.0085 56.3155 3.27655 56.4995 3.63661C56.6835 3.98867 56.7755 4.44474 56.7755 5.00484V7.88532C56.7755 8.13336 56.7155 8.32539 56.5955 8.46141C56.4755 8.58943 56.3035 8.65345 56.0794 8.65345C55.8554 8.65345 55.6793 8.58943 55.5513 8.46141C55.4313 8.32539 55.3713 8.13336 55.3713 7.88532V7.30922H55.4673C55.4113 7.58927 55.2993 7.83331 55.1313 8.04134C54.9712 8.24138 54.7672 8.3974 54.5192 8.50942C54.2711 8.62144 53.9871 8.67745 53.667 8.67745ZM64.2331 8.67745C63.625 8.67745 63.0969 8.55343 62.6488 8.30539C62.2007 8.05735 61.8527 7.70529 61.6046 7.24921C61.3566 6.78513 61.2326 6.24104 61.2326 5.61694C61.2326 5.14486 61.3006 4.72479 61.4366 4.35673C61.5806 3.98066 61.7847 3.66061 62.0487 3.39657C62.3128 3.12452 62.6288 2.92049 62.9969 2.78446C63.3649 2.64044 63.777 2.56843 64.2331 2.56843C64.8412 2.56843 65.3693 2.69245 65.8174 2.94049C66.2654 3.18853 66.6135 3.54059 66.8615 3.99667C67.1096 4.45274 67.2336 4.99283 67.2336 5.61694C67.2336 6.08902 67.1616 6.51309 67.0176 6.88915C66.8815 7.26521 66.6815 7.58927 66.4175 7.86131C66.1534 8.12536 65.8374 8.32939 65.4693 8.47342C65.1012 8.60944 64.6892 8.67745 64.2331 8.67745ZM64.2331 7.53726C64.5291 7.53726 64.7892 7.46525 65.0132 7.32122C65.2373 7.1772 65.4093 6.96516 65.5293 6.68512C65.6573 6.39707 65.7213 6.04101 65.7213 5.61694C65.7213 4.97683 65.5853 4.50075 65.3133 4.1887C65.0412 3.86865 64.6812 3.70862 64.2331 3.70862C63.937 3.70862 63.677 3.78063 63.453 3.92466C63.2289 4.06068 63.0529 4.27271 62.9249 4.56076C62.8048 4.84081 62.7448 5.19287 62.7448 5.61694C62.7448 6.24904 62.8809 6.72912 63.1529 7.05718C63.425 7.37723 63.785 7.53726 64.2331 7.53726ZM73.7345 8.67745C73.0704 8.67745 72.5704 8.48942 72.2343 8.11336C71.8982 7.72929 71.7302 7.1692 71.7302 6.43307V0.756126C71.7302 0.508084 71.7942 0.320053 71.9222 0.192032C72.0503 0.0640099 72.2343 -9.53834e-07 72.4743 -9.53834e-07C72.7144 -9.53834e-07 72.8984 0.0640099 73.0264 0.192032C73.1625 0.320053 73.2305 0.508084 73.2305 0.756126V6.36106C73.2305 6.72912 73.3065 7.00117 73.4585 7.1772C73.6185 7.35323 73.8426 7.44124 74.1306 7.44124C74.1946 7.44124 74.2546 7.44124 74.3106 7.44124C74.3667 7.43324 74.4227 7.42524 74.4787 7.41724C74.5907 7.40124 74.6667 7.43324 74.7067 7.51325C74.7467 7.58527 74.7667 7.73729 74.7667 7.96933C74.7667 8.16936 74.7267 8.32539 74.6467 8.43741C74.5667 8.54943 74.4347 8.61744 74.2506 8.64144C74.1706 8.64944 74.0866 8.65745 73.9986 8.66545C73.9106 8.67345 73.8226 8.67745 73.7345 8.67745ZM77.4952 8.67745C77.0711 8.67745 76.6911 8.59744 76.355 8.43741C76.027 8.26938 75.7669 8.04534 75.5749 7.7653C75.3909 7.48525 75.2988 7.1692 75.2988 6.81714C75.2988 6.38507 75.4109 6.04501 75.6349 5.79697C75.8589 5.54093 76.223 5.35689 76.7271 5.24488C77.2312 5.13286 77.9073 5.07685 78.7554 5.07685H79.3555V5.94099H78.7674C78.2713 5.94099 77.8753 5.965 77.5792 6.013C77.2832 6.06101 77.0711 6.14503 76.9431 6.26505C76.8231 6.37706 76.7631 6.53709 76.7631 6.74513C76.7631 7.00917 76.8551 7.22521 77.0391 7.39323C77.2232 7.56126 77.4792 7.64528 77.8073 7.64528C78.0713 7.64528 78.3033 7.58527 78.5034 7.46525C78.7114 7.33723 78.8754 7.1652 78.9955 6.94916C79.1155 6.73312 79.1755 6.48508 79.1755 6.20504V4.82481C79.1755 4.42474 79.0875 4.13669 78.9114 3.96066C78.7354 3.78463 78.4394 3.69662 78.0233 3.69662C77.7913 3.69662 77.5392 3.72462 77.2672 3.78063C77.0031 3.83664 76.7231 3.93266 76.427 4.06868C76.275 4.14069 76.139 4.16069 76.019 4.12869C75.9069 4.09668 75.8189 4.03267 75.7549 3.93666C75.6909 3.83264 75.6589 3.72062 75.6589 3.6006C75.6589 3.48058 75.6909 3.36456 75.7549 3.25254C75.8189 3.13252 75.9269 3.04451 76.079 2.9885C76.447 2.83647 76.7991 2.72846 77.1351 2.66444C77.4792 2.60043 77.7913 2.56843 78.0713 2.56843C78.6474 2.56843 79.1195 2.65644 79.4875 2.83247C79.8636 3.0085 80.1437 3.27655 80.3277 3.63661C80.5117 3.98867 80.6037 4.44474 80.6037 5.00484V7.88532C80.6037 8.13336 80.5437 8.32539 80.4237 8.46141C80.3037 8.58943 80.1316 8.65345 79.9076 8.65345C79.6836 8.65345 79.5075 8.58943 79.3795 8.46141C79.2595 8.32539 79.1995 8.13336 79.1995 7.88532V7.30922H79.2955C79.2395 7.58927 79.1275 7.83331 78.9595 8.04134C78.7994 8.24138 78.5954 8.3974 78.3474 8.50942C78.0993 8.62144 77.8153 8.67745 77.4952 8.67745ZM84.3829 8.67745C83.8708 8.67745 83.4187 8.55343 83.0266 8.30539C82.6426 8.05735 82.3425 7.70529 82.1265 7.24921C81.9104 6.78513 81.8024 6.24104 81.8024 5.61694C81.8024 4.98483 81.9104 4.44474 82.1265 3.99667C82.3425 3.54059 82.6426 3.18853 83.0266 2.94049C83.4187 2.69245 83.8708 2.56843 84.3829 2.56843C84.8709 2.56843 85.295 2.68845 85.6551 2.92849C86.0231 3.16853 86.2712 3.48458 86.3992 3.87665H86.2672V0.756126C86.2672 0.508084 86.3312 0.320053 86.4592 0.192032C86.5872 0.0640099 86.7713 -9.53834e-07 87.0113 -9.53834e-07C87.2513 -9.53834e-07 87.4354 0.0640099 87.5634 0.192032C87.6994 0.320053 87.7674 0.508084 87.7674 0.756126V7.88532C87.7674 8.13336 87.7034 8.32539 87.5754 8.46141C87.4474 8.58943 87.2633 8.65345 87.0233 8.65345C86.7833 8.65345 86.5992 8.58943 86.4712 8.46141C86.3432 8.32539 86.2792 8.13336 86.2792 7.88532V6.94916L86.4112 7.30922C86.2912 7.72529 86.0471 8.05735 85.6791 8.30539C85.311 8.55343 84.8789 8.67745 84.3829 8.67745ZM84.8029 7.53726C85.099 7.53726 85.359 7.46525 85.5831 7.32122C85.8071 7.1772 85.9791 6.96516 86.0991 6.68512C86.2272 6.39707 86.2912 6.04101 86.2912 5.61694C86.2912 4.97683 86.1552 4.50075 85.8831 4.1887C85.6111 3.86865 85.251 3.70862 84.8029 3.70862C84.5069 3.70862 84.2468 3.78063 84.0228 3.92466C83.7988 4.06068 83.6227 4.27271 83.4947 4.56076C83.3747 4.84081 83.3147 5.19287 83.3147 5.61694C83.3147 6.24904 83.4507 6.72912 83.7227 7.05718C83.9948 7.37723 84.3549 7.53726 84.8029 7.53726ZM91.9994 8.67745C91.3913 8.67745 90.8633 8.55343 90.4152 8.30539C89.9671 8.05735 89.619 7.70529 89.371 7.24921C89.123 6.78513 88.9989 6.24104 88.9989 5.61694C88.9989 5.14486 89.067 4.72479 89.203 4.35673C89.347 3.98066 89.551 3.66061 89.8151 3.39657C90.0791 3.12452 90.3952 2.92049 90.7632 2.78446C91.1313 2.64044 91.5434 2.56843 91.9994 2.56843C92.6075 2.56843 93.1356 2.69245 93.5837 2.94049C94.0318 3.18853 94.3798 3.54059 94.6279 3.99667C94.8759 4.45274 94.9999 4.99283 94.9999 5.61694C94.9999 6.08902 94.9279 6.51309 94.7839 6.88915C94.6479 7.26521 94.4479 7.58927 94.1838 7.86131C93.9198 8.12536 93.6037 8.32939 93.2357 8.47342C92.8676 8.60944 92.4555 8.67745 91.9994 8.67745ZM91.9994 7.53726C92.2955 7.53726 92.5555 7.46525 92.7796 7.32122C93.0036 7.1772 93.1756 6.96516 93.2957 6.68512C93.4237 6.39707 93.4877 6.04101 93.4877 5.61694C93.4877 4.97683 93.3517 4.50075 93.0796 4.1887C92.8076 3.86865 92.4475 3.70862 91.9994 3.70862C91.7034 3.70862 91.4434 3.78063 91.2193 3.92466C90.9953 4.06068 90.8192 4.27271 90.6912 4.56076C90.5712 4.84081 90.5112 5.19287 90.5112 5.61694C90.5112 6.24904 90.6472 6.72912 90.9193 7.05718C91.1913 7.37723 91.5514 7.53726 91.9994 7.53726Z"
            fill="white"
          />
        </svg>