<svg width="32" height="34" viewBox="0 0 32 34" fill="none" xmlns="http://www.w3.org/2000/svg">
<path d="M29.582 12.9109C31.4726 14.7887 31.473 17.8462 29.582 19.7234V19.7225C28.6702 20.6295 27.4517 21.1316 26.1631 21.1317C24.875 21.1317 23.6574 20.6292 22.7461 19.7225L22.7451 19.7234L21.25 18.2391L21.25 27.3817C21.25 30.0498 19.0388 32.1811 16.3662 32.1815C13.692 32.1815 11.4805 30.0499 11.4805 27.3817L11.4805 18.242L9.9873 19.7234V19.7244C9.07241 20.6313 7.85536 21.1317 6.56641 21.1317C5.27548 21.1316 4.05897 20.6276 3.14648 19.7205C2.23644 18.8188 1.72754 17.6049 1.72754 16.3182C1.72762 15.0291 2.23646 13.8155 3.15234 12.909H3.15332L12.9062 3.2215C13.8176 2.31594 15.035 1.81818 16.3223 1.81818H16.4102C17.7014 1.81818 18.9204 2.31923 19.832 3.22931L29.582 12.9109Z" fill="white" stroke="#641671" stroke-width="2"/>
</svg>
