<svg width="32" height="34" viewBox="0 0 32 34" fill="none" xmlns="http://www.w3.org/2000/svg">
<path d="M3.14526 21.0891C1.25465 19.2113 1.25433 16.1538 3.14526 14.2766V14.2775C4.05708 13.3705 5.27555 12.8684 6.56421 12.8683C7.85233 12.8683 9.06989 13.3708 9.9812 14.2775L9.98218 14.2766L11.4773 15.7609L11.4773 6.61835C11.4773 3.95025 13.6885 1.81892 16.3611 1.81854C19.0353 1.81854 21.2468 3.95006 21.2468 6.61835V15.758L22.74 14.2766V14.2756C23.6549 13.3687 24.8719 12.8683 26.1609 12.8683C27.4518 12.8684 28.6683 13.3724 29.5808 14.2795C30.4909 15.1812 30.9998 16.3951 30.9998 17.6818C30.9997 18.9709 30.4908 20.1845 29.575 21.091H29.574L19.821 30.7785C18.9097 31.6841 17.6923 32.1818 16.405 32.1818H16.3171C15.0259 32.1818 13.8069 31.6808 12.8953 30.7707L3.14526 21.0891Z" fill="white" stroke="#7D278B" stroke-width="2"/>
</svg>
